<svg xmlns="http://www.w3.org/2000/svg" viewBox="0 0 287 15.45"><defs><style>.cls-1,.cls-2{fill:none;}.cls-2{stroke:#000;stroke-miterlimit:10;stroke-width:1.44px;}.cls-3,.cls-4{isolation:isolate;font-family:ArialMT, Arial;}.cls-3{font-size:12.99px;}.cls-4{font-size:13.06px;}</style></defs><title>FITUS Bonus 6</title><g id="Слой_2" data-name="Слой 2"><g id="Слой_1-2" data-name="Слой 1"><line class="cls-1" y1="6.67" x2="10.82" y2="6.67"/><line class="cls-2" x1="3.48" y1="6.67" x2="10.82" y2="6.67"/><path d="M0,6.67A17.67,17.67,0,0,1,4.93,9.41l-1-2.74,1-2.74A17.47,17.47,0,0,1,0,6.67Z"/><line class="cls-2" x1="46.75" y1="6.67" x2="152.69" y2="6.67"/><path d="M43.27,6.67A17.92,17.92,0,0,1,48.2,9.41l-1-2.74,1-2.74A17.53,17.53,0,0,1,43.27,6.67Z"/><text class="cls-3" transform="translate(155.88 11.23) scale(1.22 1)">+3</text><line class="cls-2" x1="176.13" y1="6.67" x2="283.52" y2="6.67"/><path d="M287,6.67a17.67,17.67,0,0,0-4.93,2.74l1-2.74-1-2.74A17.28,17.28,0,0,0,287,6.67Z"/><text class="cls-4" transform="translate(11.82 11.21) scale(1.3 1)">+5</text><line class="cls-1" x1="32.27" y1="6.67" x2="43.27" y2="6.67"/><line class="cls-2" x1="32.27" y1="6.67" x2="39.78" y2="6.67"/><path d="M43.27,6.67a17.67,17.67,0,0,0-4.93,2.74l1-2.74-1-2.74A17.28,17.28,0,0,0,43.27,6.67Z"/></g></g></svg>