<svg xmlns="http://www.w3.org/2000/svg" viewBox="0 0 220 15.45"><defs><style>.cls-1,.cls-2{fill:none;}.cls-2{stroke:#000;stroke-miterlimit:10;stroke-width:1.26px;}.cls-3,.cls-4{isolation:isolate;font-family:ArialMT, Arial;}.cls-3{font-size:12.99px;}.cls-4{font-size:13.06px;}</style></defs><title>FITUS Bonus 8</title><g id="Слой_2" data-name="Слой 2"><g id="Слой_1-2" data-name="Слой 1"><line class="cls-1" y1="6.67" x2="8.29" y2="6.67"/><line class="cls-2" x1="2.67" y1="6.67" x2="8.29" y2="6.67"/><path d="M0,6.67A13.11,13.11,0,0,1,3.78,9.41L3,6.67l.77-2.74A12.84,12.84,0,0,1,0,6.67Z"/><line class="cls-2" x1="35.84" y1="6.67" x2="117.04" y2="6.67"/><path d="M33.17,6.67A13.3,13.3,0,0,1,37,9.41l-.77-2.74L37,3.93A13.11,13.11,0,0,1,33.17,6.67Z"/><text class="cls-3" transform="translate(119.49 11.23) scale(0.94 1)">+3</text><line class="cls-2" x1="135.01" y1="6.67" x2="217.33" y2="6.67"/><path d="M220,6.67a13.11,13.11,0,0,0-3.78,2.74L217,6.67l-.77-2.74A12.8,12.8,0,0,0,220,6.67Z"/><text class="cls-4" transform="translate(9.06 11.21)">+5</text><line class="cls-1" x1="24.74" y1="6.67" x2="33.17" y2="6.67"/><line class="cls-2" x1="24.74" y1="6.67" x2="30.49" y2="6.67"/><path d="M33.17,6.67a13,13,0,0,0-3.78,2.74l.77-2.74-.77-2.74A12.8,12.8,0,0,0,33.17,6.67Z"/></g></g></svg>