<?xml version="1.0" encoding="utf-8"?>
<!-- Generator: Adobe Illustrator 22.1.0, SVG Export Plug-In . SVG Version: 6.00 Build 0)  -->
<svg version="1.1" id="Слой_1" xmlns="http://www.w3.org/2000/svg" xmlns:xlink="http://www.w3.org/1999/xlink" x="0px" y="0px"
	 viewBox="0 0 200 200" style="enable-background:new 0 0 200 200;" xml:space="preserve">
<style type="text/css">
	.st0{fill:#44AADF;}
</style>
<g transform="translate(0.000000,200.000000) scale(0.100000,-0.100000)">
	<path class="st0" d="M1279,1902.5c-95-114.2-111.6-142.4-103.9-171.9c5.1-18-20.5-32.1-127-70.6c-73.1-26.9-175.8-64.2-228.4-84.7
		c-233.5-86-223.3-75.7-372.1-329.8c-89.8-151.4-92.4-160.4-87.3-224.6c3.8-37.2,11.5-77,16.7-88.5c7.7-19.2-2.6-21.8-98.8-25.7
		l-106.5-3.8l-3.8-414.5l-2.6-413.2h-68c-77,0-102.7-12.8-96.2-46.2C4.8,6,33,4.7,746.5,0.9c653.1-2.6,741.7,0,748.1,16.7
		c14.1,35.9-20.5,57.7-92.4,57.7h-69.3v296.4v297.7l83.4,75.7c46.2,42.3,114.2,123.2,152.7,180.9c65.4,100.1,213,381.1,232.2,442.7
		c6.4,24.4,16.7,28.2,71.9,28.2c51.3,0,70.6,6.4,95,32.1c29.5,28.2,32.1,39.8,32.1,164.2c0,92.4-5.1,138.6-15.4,146.3
		c-21.8,18-592.8,260.5-610.8,260.5C1364.9,2000,1322.6,1956.4,1279,1902.5z M1515.1,1864c59-25.7,136-59,170.7-74.4
		c35.9-16.7,102.7-46.2,151.4-65.4l86-37.2v-100.1c0-82.1-3.8-101.4-23.1-111.6c-18-9-89.8,21.8-320.8,136
		c-163,82.1-297.7,154-297.7,159.1c0,20.5,95,138.6,111.6,138.6C1402.1,1910.2,1456,1889.6,1515.1,1864z M1518.9,1554.7
		c123.2-61.6,224.6-118,224.6-124.5c0-26.9-168.1-354.1-231-449.1c-37.2-56.5-97.5-132.2-136-168.1
		c-64.2-62.9-201.5-147.6-236.1-147.6c-9,0-92.4-46.2-186.1-102.7C854.2,502.6,769.5,460.2,749,460.2
		c-46.2,0-109.1,64.2-109.1,111.6c0,20.5,9,48.8,19.2,64.2C681,666.8,817,759.2,919.7,813.1c48.8,25.7,73.1,47.5,86,78.3
		c9,23.1,42.3,74.4,73.1,115.5c96.2,127,92.4,118,74.4,139.9c-9,10.3-37.2,19.2-62.9,19.2s-83.4,18-127,38.5
		c-44.9,21.8-88.5,38.5-96.2,38.5c-9,0-30.8-20.5-50-43.6c-21.8-26.9-75.7-64.2-132.2-92.4c-52.6-25.7-96.2-55.2-96.2-65.4
		s14.1-37.2,32.1-60.3c48.8-64.2,43.6-71.9-55.2-71.9h-87.3l-21.8,44.9c-11.5,25.7-21.8,61.6-21.8,82.1
		c0,35.9,156.5,314.4,206.6,368.3c32.1,33.4,62.9,47.5,351.6,154c127,46.2,239.9,89.8,250.2,96.2c10.3,5.1,26.9,11.5,34.6,11.5
		C1286.7,1666.4,1395.7,1616.3,1518.9,1554.7z M964.6,1113.3l69.3-26.9l-59-88.5l-59-89.8l-83.4,3.8c-80.8,3.8-83.4,5.1-105.2,48.8
		c-11.5,24.4-21.8,48.8-23.1,53.9c0,3.8,30.8,25.7,68,46.2s75.7,47.5,84.7,59C878.6,1145.4,879.9,1145.4,964.6,1113.3z M768.3,823.4
		c0-6.4-21.8-23.1-48.8-38.5c-46.2-25.7-53.9-26.9-100.1-10.3c-107.8,38.5-225.8,16.7-286.1-52.6c-50-56.5-51.3-89.8-3.8-100.1
		c19.2-3.8,47.5-10.3,62.9-15.4c21.8-6.4,32.1,0,47.5,32.1c23.1,43.6,69.3,61.6,107.8,41.1c20.5-11.5,23.1-23.1,19.2-80.8
		c-7.7-79.6-26.9-100.1-96.2-100.1c-48.8,0-48.8,0-48.8-51.3c0-48.8,2.6-51.3,38.5-51.3c21.8,0,59-7.7,82.1-18
		c100.1-41.1,75.7-198.9-29.5-200.2c-34.6,0-91.1,44.9-91.1,73.1c0,20.5-10.3,20.5-83.4,1.3c-41.1-11.5-57.7-21.8-57.7-38.5
		c0-37.2,73.1-109.1,125.7-123.2c42.3-11.5,35.9-12.8-57.7-14.1l-106.5-1.3v378.5v378.5h263C650.2,832.3,768.3,828.5,768.3,823.4z
		 M1255.9,343.5V75.3H913.3c-306.7,1.3-338.8,2.6-295.1,19.2c114.2,39.8,163,150.1,118,266.9c-7.7,16.7-2.6,21.8,24.4,21.8
		c41.1,0,74.4,16.7,251.5,121.9c74.4,44.9,151.4,86,170.7,89.8c19.2,5.1,38.5,14.1,42.3,20.5C1248.2,654,1255.9,584.7,1255.9,343.5z
		"/>
</g>
</svg>
