<?xml version="1.0" encoding="utf-8"?>
<!-- Generator: Adobe Illustrator 22.1.0, SVG Export Plug-In . SVG Version: 6.00 Build 0)  -->
<svg version="1.1" id="Слой_1" xmlns="http://www.w3.org/2000/svg" xmlns:xlink="http://www.w3.org/1999/xlink" x="0px" y="0px"
	 viewBox="0 0 200 200" style="enable-background:new 0 0 200 200;" xml:space="preserve">
<style type="text/css">
	.st0{fill:#44AADF;}
</style>
<g transform="translate(0.000000,200.000000) scale(0.100000,-0.100000)">
	<path class="st0" d="M1281.9,1889.8c-94.6-113.7-111.2-141.8-103.5-171.2c5.1-17.9-20.4-31.9-126.5-70.3
		c-72.8-26.8-175.1-63.9-227.4-84.3c-232.6-85.6-222.3-75.4-370.6-328.4c-89.4-150.8-92-159.7-86.9-223.6
		c3.8-37.1,11.5-76.7,16.6-88.2c7.7-19.2-2.6-21.7-98.4-25.6l-106.1-3.8l-3.8-412.7l-2.6-411.4H105c-76.7,0-102.2-12.8-95.8-46
		C13,1.2,41.1-0.1,751.6-3.9c650.4-2.6,738.6,0,745,16.6c14.1,35.8-20.4,57.5-92,57.5h-69v295.2v296.4l83.1,75.4
		c46,42.2,113.7,122.7,152.1,180.2c65.2,99.7,212.1,379.5,231.3,440.8c6.4,24.3,16.6,28.1,71.6,28.1c51.1,0,70.3,6.4,94.6,31.9
		c29.4,28.1,31.9,39.6,31.9,163.6c0,92-5.1,138-15.3,145.7c-21.7,17.9-590.3,259.4-608.2,259.4
		C1367.5,1986.9,1325.3,1943.4,1281.9,1889.8z M1517,1851.4c58.8-25.6,135.4-58.8,169.9-74.1c35.8-16.6,102.2-46,150.8-65.2
		l85.6-37.1v-99.7c0-81.8-3.8-100.9-23-111.2c-17.9-8.9-89.4,21.7-319.4,135.4c-162.3,81.8-296.4,153.3-296.4,158.4
		c0,20.4,94.6,138,111.2,138C1404.6,1897.4,1458.2,1877,1517,1851.4z M1523.4,1544.8c129.1-63.9,221.1-117.6,221.1-127.8
		c0-35.8-205.7-422.9-272.2-509.8c-76.7-103.5-208.3-208.3-304.1-241.5c-37.1-14.1-135.4-66.4-221.1-118.8
		c-95.8-57.5-168.7-93.3-190.4-93.3c-52.4,0-111.2,62.6-111.2,117.6c0,57.5,33.2,88.2,209.6,194.2c115,70.3,143.1,93.3,161,132.9
		c11.5,26.8,47.3,79.2,77.9,117.6c31.9,38.3,61.3,76.7,66.4,85.6c15.3,24.3-28.1,54.9-80.5,54.9c-29.4,0-76.7,15.3-121.4,38.3
		c-85.6,44.7-103.5,47.3-115,14.1c-8.9-28.1-113.7-99.7-190.4-130.3c-63.9-25.6-70.3-51.1-28.1-102.2c53.7-63.9,46-75.4-56.2-75.4
		h-89.4l-19.2,46c-34.5,81.8-25.6,112.4,81.8,291.3c56.2,92,113.7,175.1,127.8,182.7c14.1,8.9,127.8,53.7,253,99.7
		s253,94.6,284.9,107.3c31.9,14.1,65.2,25.6,75.4,25.6C1293.4,1654.7,1402,1604.8,1523.4,1544.8z M968.8,1103.9l69-26.8L979,988.9
		l-58.8-89.4l-83.1,3.8c-80.5,3.8-83.1,5.1-104.8,48.6c-11.5,24.3-21.7,48.6-23,53.7c0,3.8,30.7,25.6,67.7,46
		c37.1,20.4,75.4,47.3,84.3,58.8C883.2,1135.9,884.5,1135.9,968.8,1103.9z M773.3,815.1c0-6.4-17.9-20.4-40.9-33.2
		c-34.5-20.4-48.6-20.4-106.1-7.7c-155.9,34.5-264.5-25.6-306.7-172.5c-30.7-107.3-23-338.6,15.3-410.2C367,129,401.5,98.3,448.8,83
		c26.8-7.7,5.1-11.5-80.5-11.5l-118.8-1.3v376.9v376.9h261.9C655.8,824.1,773.3,820.3,773.3,815.1z M572.7,673.3
		c3.8-5.1,3.8-35.8,0-70.3c-6.4-51.1-11.5-60.1-34.5-60.1c-14.1,0-42.2-8.9-61.3-17.9c-33.2-17.9-35.8-16.6-35.8,6.4
		c0,37.1,35.8,115,61.3,134.2C526.7,684.8,563.8,688.6,572.7,673.3z M1258.9,337.3V70.2H924.1H589.3l56.2,28.1
		c72.8,37.1,115,113.7,115,209.6c0,61.3,2.6,66.4,35.8,72.8c19.2,3.8,107.3,51.1,195.5,103.5s176.3,99.7,195.5,104.8
		c17.9,3.8,37.1,12.8,40.9,19.2C1251.2,646.5,1258.9,577.5,1258.9,337.3z M588,415.2c29.4-33.2,39.6-146.9,16.6-191.7
		c-10.2-16.6-33.2-37.1-52.4-43.4c-29.4-11.5-39.6-7.7-69,20.4c-25.6,25.6-34.5,49.8-39.6,102.2c-5.1,61.3-1.3,71.6,29.4,103.5
		C515.2,447.1,556.1,451,588,415.2z"/>
</g>
</svg>
