<?xml version="1.0" encoding="utf-8"?>
<!-- Generator: Adobe Illustrator 22.1.0, SVG Export Plug-In . SVG Version: 6.00 Build 0)  -->
<svg version="1.1" id="Слой_1" xmlns="http://www.w3.org/2000/svg" xmlns:xlink="http://www.w3.org/1999/xlink" x="0px" y="0px"
	 viewBox="0 0 200 200" style="enable-background:new 0 0 200 200;" xml:space="preserve">
<style type="text/css">
	.st0{fill:#44AADF;}
</style>
<g transform="translate(0.000000,200.000000) scale(0.100000,-0.100000)">
	<path class="st0" d="M1279.1,1902.5c-94.9-114.2-111.6-142.4-103.9-171.9c5.1-18-20.5-32.1-127-70.5
		c-73.1-26.9-175.7-64.1-228.3-84.7c-233.5-85.9-223.2-75.7-372-329.7c-89.8-151.4-92.4-160.3-87.2-224.5
		c3.8-37.2,11.5-77,16.7-88.5c7.7-19.2-2.6-21.8-98.8-25.7l-106.5-3.8L168.3,489l-2.6-413h-68c-77,0-102.6-12.8-96.2-46.2
		C5.4,6.7,33.6,5.4,746.8,1.5c652.9-2.6,741.4,0,747.8,16.7c14.1,35.9-20.5,57.7-92.4,57.7H1333v296.3v297.6l83.4,75.7
		c46.2,42.3,114.2,123.1,152.6,180.9c65.4,100.1,212.9,381,232.2,442.5c6.4,24.4,16.7,28.2,71.8,28.2c51.3,0,70.5,6.4,94.9,32.1
		c29.5,28.2,32.1,39.8,32.1,164.2c0,92.4-5.1,138.5-15.4,146.2c-21.8,18-592.6,260.4-610.6,260.4
		C1365.1,2000,1322.7,1956.4,1279.1,1902.5z M1515.1,1864c59-25.7,136-59,170.6-74.4c35.9-16.7,102.6-46.2,151.4-65.4l85.9-37.2
		V1587c0-82.1-3.8-101.3-23.1-111.6c-18-9-89.8,21.8-320.7,136c-162.9,82.1-297.6,153.9-297.6,159.1c0,20.5,94.9,138.5,111.6,138.5
		C1402.3,1910.2,1456.1,1889.7,1515.1,1864z M1519,1554.9c123.1-61.6,224.5-118,224.5-124.4c0-26.9-168-354-230.9-449
		c-37.2-56.4-97.5-132.1-136-168c-64.1-62.9-201.4-147.5-236-147.5c-9,0-92.4-46.2-186-102.6c-100.1-60.3-184.7-102.6-205.2-102.6
		c-46.2,0-109,64.1-109,111.6c0,20.5,9,50,20.5,66.7c21.8,30.8,152.6,119.3,261.7,175.7c46.2,24.4,70.5,46.2,83.4,77
		c9,23.1,42.3,74.4,73.1,115.4c96.2,127,92.4,118,74.4,139.8c-9,10.3-37.2,19.2-62.9,19.2s-83.4,18-127,38.5
		c-44.9,21.8-88.5,38.5-96.2,38.5c-9,0-30.8-20.5-50-43.6c-21.8-26.9-75.7-64.1-132.1-92.4c-52.6-25.7-96.2-55.2-96.2-65.4
		s14.1-37.2,32.1-60.3c48.7-64.1,43.6-71.8-55.2-71.8h-87.2l-21.8,44.9c-11.5,25.7-21.8,61.6-21.8,82.1
		c0,35.9,156.5,314.3,206.5,368.1c32.1,33.4,62.9,47.5,351.5,153.9c127,46.2,239.9,89.8,250.1,96.2c10.3,5.1,26.9,11.5,34.6,11.5
		C1286.8,1666.5,1395.8,1616.5,1519,1554.9z M964.8,1113.6l69.3-26.9l-59-88.5l-59-89.8l-83.4,3.8c-80.8,3.8-83.4,5.1-105.2,48.7
		c-11.5,24.4-21.8,48.7-23.1,53.9c0,3.8,30.8,25.7,68,46.2c37.2,20.5,75.7,47.5,84.7,59C878.9,1145.7,880.2,1145.7,964.8,1113.6z
		 M767.3,823.7c0-6.4-37.2-34.6-83.4-64.1L601.8,707v37.2c0,34.6-2.6,37.2-53.9,37.2c-35.9,0-85.9-14.1-142.4-41
		c-87.2-42.3-88.5-42.3-80.8-85.9c3.8-23.1,9-46.2,12.8-48.7c3.8-3.8,32.1,2.6,64.1,12.8l59,20.5V414.6V191.4h-64.1h-64.1v-51.3
		V88.7h198.8h198.8v51.3v51.3H666h-64.1v128.3v127l46.2-30.8c55.2-37.2,128.3-42.3,188.6-11.5c23.1,11.5,101.3,57.7,175.7,101.3
		c74.4,44.9,151.4,85.9,170.6,89.8c19.2,5.1,38.5,14.1,42.3,20.5c23.1,38.5,30.8-30.8,30.8-271.9V75.9H749.3H242.7v378.4v378.4h263
		C650.6,832.7,768.6,828.9,767.3,823.7z"/>
</g>
</svg>
