<?xml version="1.0" encoding="utf-8"?>
<!-- Generator: Adobe Illustrator 22.1.0, SVG Export Plug-In . SVG Version: 6.00 Build 0)  -->
<svg version="1.1" id="Слой_1" xmlns="http://www.w3.org/2000/svg" xmlns:xlink="http://www.w3.org/1999/xlink" x="0px" y="0px"
	 viewBox="0 0 200 200" style="enable-background:new 0 0 200 200;" xml:space="preserve">
<style type="text/css">
	.st0{fill:#44AADF;}
</style>
<g transform="translate(0.000000,200.000000) scale(0.100000,-0.100000)">
	<path class="st0" d="M1278.9,1903.1c-94.9-114.2-111.6-142.4-103.9-171.9c5.1-18-20.5-32.1-127-70.6
		c-73.1-26.9-175.8-64.2-228.4-84.7c-233.5-86-223.3-75.7-372.1-329.8c-89.8-151.4-92.4-160.4-87.3-224.5
		c3.8-37.2,11.5-77,16.7-88.5c7.7-19.2-2.6-21.8-98.8-25.7l-106.5-3.8l-3.8-414.4l-2.6-413.2h-68c-77,0-102.6-12.8-96.2-46.2
		C4.8,6.7,33,5.4,746.4,1.5c653.1-2.6,741.6,0,748,16.7c14.1,35.9-20.5,57.7-92.4,57.7h-69.3v296.4V670l83.4,75.7
		c46.2,42.3,114.2,123.2,152.7,180.9c65.4,100.1,213,381.1,232.2,442.7c6.4,24.4,16.7,28.2,71.9,28.2c51.3,0,70.6,6.4,94.9,32.1
		c29.5,28.2,32.1,39.8,32.1,164.2c0,92.4-5.1,138.6-15.4,146.3c-21.8,18-592.8,260.5-610.8,260.5
		C1364.9,2000.6,1322.5,1957,1278.9,1903.1z M1515,1864.6c59-25.7,136-59,170.7-74.4c35.9-16.7,102.6-46.2,151.4-65.4l86-37.2
		v-100.1c0-82.1-3.8-101.4-23.1-111.6c-18-9-89.8,21.8-320.8,136c-163,82.1-297.7,154-297.7,159.1c0,20.5,94.9,138.6,111.6,138.6
		C1402.1,1910.8,1456,1890.2,1515,1864.6z M1521.4,1556.6c129.6-64.2,222-118,222-128.3c0-35.9-206.6-424.7-273.3-512
		c-77-103.9-209.1-209.1-305.4-242.5c-37.2-14.1-136-66.7-222-119.3c-179.6-109.1-216.8-116.8-269.4-53.9
		c-43.6,51.3-43.6,102.6,2.6,151.4c19.2,21.8,97.5,77,174.5,123.2c115.5,69.3,143.7,92.4,161.7,132.2c11.5,26.9,47.5,79.6,78.3,118
		c32.1,38.5,61.6,77,66.7,86c15.4,24.4-28.2,55.2-80.8,55.2c-29.5,0-77,15.4-121.9,38.5c-86,44.9-103.9,47.5-115.5,14.1
		c-9-28.2-114.2-100.1-191.2-130.9c-64.2-25.7-70.6-51.3-28.2-102.6c53.9-64.2,46.2-75.7-56.5-75.7h-89.8l-19.2,46.2
		c-34.6,82.1-25.7,112.9,82.1,292.5c56.5,92.4,114.2,175.8,128.3,183.5c14.1,9,128.3,53.9,254.1,100.1s254.1,94.9,286.1,107.8
		c32.1,14.1,65.4,25.7,75.7,25.7C1290.5,1667,1399.5,1616.9,1521.4,1556.6z M964.5,1114l69.3-26.9l-59-88.5l-59-89.8l-83.4,3.8
		c-80.8,3.8-83.4,5.1-105.2,48.8c-11.5,24.4-21.8,48.8-23.1,53.9c0,3.8,30.8,25.7,68,46.2c37.2,20.5,75.7,47.5,84.7,59
		C878.6,1146,879.9,1146,964.5,1114z M768.2,822.7c0-25.7-74.4-44.9-166.8-42.3l-96.2,2.6L393.6,558.4
		c-86-170.7-112.9-238.7-112.9-277.1v-51.3h134.7h134.7v-70.6V88.8h64.2h64.2v70.6v70.6h44.9c43.6,0,44.9,1.3,44.9,51.3
		s-1.3,51.3-44.9,51.3c-38.5,0-44.9,3.8-44.9,29.5c0,25.7,5.1,28.2,56.5,24.4c62.9-5.1,80.8,2.6,277.1,119.3
		c74.4,44.9,151.4,86,170.7,89.8c19.2,5.1,38.5,14.1,42.3,20.5c23.1,38.5,30.8-30.8,30.8-272V75.9H749H242.2v378.5V833h263
		C650.2,833,768.2,827.8,768.2,822.7z M550.1,480.1V332.6h-71.9c-52.6,0-70.6,3.8-65.4,16.7c16.7,44.9,128.3,278.4,132.2,278.4
		C547.5,627.7,550.1,560.9,550.1,480.1z"/>
</g>
</svg>
