<?xml version="1.0" encoding="utf-8"?>
<!-- Generator: Adobe Illustrator 22.1.0, SVG Export Plug-In . SVG Version: 6.00 Build 0)  -->
<svg version="1.1" id="Слой_1" xmlns="http://www.w3.org/2000/svg" xmlns:xlink="http://www.w3.org/1999/xlink" x="0px" y="0px"
	 viewBox="0 0 200 200" style="enable-background:new 0 0 200 200;" xml:space="preserve">
<style type="text/css">
	.st0{fill:#44AADF;}
</style>
<g transform="translate(0.000000,200.000000) scale(0.100000,-0.100000)">
	<path class="st0" d="M1278.9,1902.5c-94.9-114.2-111.6-142.4-103.9-171.9c5.1-18-20.5-32.1-127-70.5
		c-73.1-26.9-175.8-64.1-228.4-84.7c-233.5-85.9-223.3-75.7-372.1-329.7c-89.8-151.4-92.4-160.3-87.3-224.5
		c3.8-37.2,11.5-77,16.7-88.5c7.7-19.2-2.6-21.8-98.8-25.7l-106.5-3.8L167.7,489l-2.6-413h-68c-77,0-102.6-12.8-96.2-46.2
		C4.8,6.7,33,5.4,746.4,1.5c653.1-2.6,741.6,0,748,16.7c14.1,35.9-20.5,57.7-92.4,57.7h-69.3v296.3v297.6l83.4,75.7
		c46.2,42.3,114.2,123.1,152.7,180.9c65.4,100.1,213,381,232.2,442.5c6.4,24.4,16.7,28.2,71.9,28.2c51.3,0,70.6,6.4,94.9,32.1
		c29.5,28.2,32.1,39.8,32.1,164.2c0,92.4-5.1,138.5-15.4,146.2c-21.8,18-592.8,260.4-610.8,260.4
		C1364.9,2000,1322.5,1956.4,1278.9,1902.5z M1515,1864c59-25.7,136-59,170.7-74.4c35.9-16.7,102.6-46.2,151.4-65.4l86-37.2V1587
		c0-82.1-3.8-101.3-23.1-111.6c-18-9-89.8,21.8-320.8,136c-163,82.1-297.7,153.9-297.7,159.1c0,20.5,94.9,138.5,111.6,138.5
		C1402.1,1910.2,1456,1889.7,1515,1864z M1518.8,1554.9c123.2-61.6,224.5-118,224.5-124.4c0-26.9-168.1-354-231-449
		c-37.2-56.4-97.5-132.1-136-168C1312.3,750.6,1175,666,1140.3,666c-9,0-92.4-46.2-186-102.6C854.2,503.1,769.5,460.7,749,460.7
		c-46.2,0-109.1,64.1-109.1,111.6c0,20.5,9,48.7,19.2,64.1c21.8,30.8,157.8,123.1,260.5,177c48.8,25.7,73.1,47.5,86,78.2
		c9,23.1,42.3,74.4,73.1,115.4c96.2,127,92.4,118,74.4,139.8c-9,10.3-37.2,19.2-62.9,19.2s-83.4,18-127,38.5
		c-44.9,21.8-88.5,38.5-96.2,38.5c-9,0-30.8-20.5-50-43.6c-21.8-26.9-75.7-64.1-132.2-92.4c-52.6-25.7-96.2-55.2-96.2-65.4
		s14.1-37.2,32.1-60.3c48.8-64.1,43.6-71.8-55.2-71.8h-87.3l-21.8,44.9c-11.5,25.7-21.8,61.6-21.8,82.1
		c0,35.9,156.5,314.3,206.6,368.1c32.1,33.4,62.9,47.5,351.6,153.9c127,46.2,239.9,89.8,250.2,96.2c10.3,5.1,26.9,11.5,34.6,11.5
		C1286.6,1666.5,1395.7,1616.5,1518.8,1554.9z M964.5,1113.6l69.3-26.9l-59-88.5l-59-89.8l-83.4,3.8c-80.8,3.8-83.4,5.1-105.2,48.7
		c-11.5,24.4-21.8,48.7-23.1,53.9c0,3.8,30.8,25.7,68,46.2c37.2,20.5,75.7,47.5,84.7,59C878.6,1145.7,879.9,1145.7,964.5,1113.6z
		 M768.2,823.7c0-6.4-21.8-21.8-48.8-37.2c-43.6-24.4-51.3-24.4-98.8-7.7c-64.2,21.8-182.2,14.1-234.8-18
		c-39.8-23.1-92.4-101.3-92.4-137.3c0-20.5,15.4-28.2,89.8-41c42.3-7.7,46.2-5.1,57.7,34.6c15.4,51.3,71.9,87.2,105.2,66.7
		c19.2-11.5,21.8-29.5,19.2-96.2l-5.1-82.1l-106.5-109C328.1,267,280.7,196.5,280.7,133.6V88.7h231h231v51.3v50L586,193.9
		l-157.8,3.8l106.5,106.5c80.8,79.5,112.9,105.2,128.3,97.5c12.8-5.1,46.2-11.5,74.4-15.4c60.3-5.1,78.3,2.6,274.6,119.3
		c74.4,44.9,151.4,85.9,170.7,89.8c19.2,5.1,38.5,14.1,42.3,20.5c23.1,38.5,30.8-30.8,30.8-271.9V75.9H749H242.2v378.4v378.4h263
		C650.2,832.7,768.2,828.9,768.2,823.7z"/>
</g>
</svg>
