<?xml version="1.0" encoding="utf-8"?>
<!-- Generator: Adobe Illustrator 22.1.0, SVG Export Plug-In . SVG Version: 6.00 Build 0)  -->
<svg version="1.1" id="Слой_1" xmlns="http://www.w3.org/2000/svg" xmlns:xlink="http://www.w3.org/1999/xlink" x="0px" y="0px"
	 viewBox="0 0 200 200" style="enable-background:new 0 0 200 200;" xml:space="preserve">
<style type="text/css">
	.st0{fill:#44AADF;}
</style>
<g transform="translate(0.000000,200.000000) scale(0.100000,-0.100000)">
	<path class="st0" d="M1272.8,1902.7c-94.7-113.9-111.3-142-103.7-171.5c5.1-17.9-20.5-32-126.7-70.4
		c-72.9-26.9-175.3-64-227.8-84.5c-232.9-85.7-222.7-75.5-371.1-328.9c-89.6-151-92.1-160-87-224c3.8-37.1,11.5-76.8,16.6-88.3
		c7.7-19.2-2.6-21.8-98.5-25.6l-106.2-3.8l-3.8-413.4L162,80.4H94.2c-76.8,0-102.4-12.8-96-46.1C2,11.3,30.2,10,741.7,6.2
		c651.4-2.6,739.7,0,746.1,16.6c14.1,35.8-20.5,57.6-92.1,57.6h-69.1V376v296.9l83.2,75.5c46.1,42.2,113.9,122.9,152.3,180.4
		c65.3,99.8,212.4,380.1,231.6,441.5c6.4,24.3,16.6,28.2,71.7,28.2c51.2,0,70.4,6.4,94.7,32c29.4,28.2,32,39.7,32,163.8
		c0,92.1-5.1,138.2-15.4,145.9c-21.8,17.9-591.2,259.8-609.1,259.8C1358.6,2000,1316.3,1956.5,1272.8,1902.7z M1508.3,1864.3
		c58.9-25.6,135.7-58.9,170.2-74.2c35.8-16.6,102.4-46.1,151-65.3l85.7-37.1v-99.8c0-81.9-3.8-101.1-23-111.3
		c-17.9-9-89.6,21.8-319.9,135.7c-162.5,81.9-296.9,153.6-296.9,158.7c0,20.5,94.7,138.2,111.3,138.2
		C1395.7,1910.4,1449.4,1889.9,1508.3,1864.3z M1514.7,1557.2c129.3-64,221.4-117.7,221.4-128c0-35.8-206-423.6-272.6-510.6
		C1386.7,815,1254.9,710,1158.9,676.8c-37.1-14.1-135.7-66.5-221.4-119c-84.5-51.2-168.9-93.4-185.6-93.4
		c-47.3,0-116.5,72.9-116.5,120.3c0,21.8,7.7,48.6,16.6,58.9c17.9,23,128,97.3,249.5,167.6c62.7,37.1,88.3,60.1,104.9,97.3
		c11.5,26.9,47.3,80.6,78.1,119c32,38.4,61.4,76.8,66.5,85.7c15.4,24.3-28.2,55-80.6,55c-29.4,0-76.8,15.4-121.6,38.4
		c-85.7,44.8-103.7,47.3-115.2,14.1c-9-28.2-113.9-99.8-190.7-130.5c-64-25.6-70.4-51.2-28.2-102.4c53.7-64,46.1-75.5-56.3-75.5
		h-89.6l-19.2,46.1c-34.6,81.9-25.6,112.6,81.9,291.8c56.3,92.1,113.9,175.3,128,183c14.1,9,128,53.7,253.4,99.8
		s253.4,94.7,285.4,107.5c32,14.1,65.3,25.6,75.5,25.6C1284.3,1667.3,1393.1,1617.4,1514.7,1557.2z M959.3,1115.7l69.1-26.9
		l-58.9-88.3L910.7,911l-83.2,3.8c-80.6,3.8-83.2,5.1-104.9,48.6c-11.5,24.3-21.8,48.6-23,53.7c0,3.8,30.7,25.6,67.8,46.1
		c37.1,20.5,75.5,47.3,84.5,58.9C873.5,1147.7,874.8,1147.7,959.3,1115.7z M763.5,825.2c0-29.4-75.5-41-254.7-41H319.4l-7.7-194.5
		c-9-213.7-9-215,65.3-215c32,0,51.2,10.2,75.5,38.4c38.4,46.1,71.7,48.6,112.6,6.4c58.9-57.6,33.3-213.7-38.4-231.6
		c-38.4-9-90.9,20.5-102.4,58.9c-7.7,23-15.4,25.6-48.6,17.9c-89.6-19.2-98.5-25.6-84.5-67.8c16.6-47.3,48.6-75.5,110.1-98.5
		c48.6-16.6,47.3-16.6-56.3-17.9H238.8v377.5v377.5h262.3C645.7,835.4,763.5,830.3,763.5,825.2z M566.4,653.7
		c-3.8-16.6-7.7-44.8-7.7-64c0-29.4-5.1-35.8-30.7-35.8c-17.9,0-46.1-5.1-64-12.8l-33.3-12.8v76.8v76.8h71.7
		C571.5,681.9,574.1,680.6,566.4,653.7z M1249.8,347.9V80.4H908.1C590.7,81.7,569,83,609.9,100.9c92.1,39.7,129.3,99.8,131.8,211.2
		c1.3,64,6.4,75.5,25.6,75.5c29.4,0,71.7,21.8,239.3,121.6c74.2,44.8,151,85.7,170.2,89.6c19.2,5.1,38.4,14.1,42.2,20.5
		C1242.1,657.6,1249.8,588.5,1249.8,347.9z"/>
</g>
</svg>
