<?xml version="1.0" standalone="no"?>
<!DOCTYPE svg PUBLIC "-//W3C//DTD SVG 20010904//EN"
 "http://www.w3.org/TR/2001/REC-SVG-20010904/DTD/svg10.dtd">
<svg version="1.0" xmlns="http://www.w3.org/2000/svg"
 width="200.000000pt" height="200.000000pt" viewBox="0 0 200.000000 200.000000"
 preserveAspectRatio="xMidYMid meet">

<g transform="translate(0.000000,200.000000) scale(0.100000,-0.100000)"
fill="#000000" stroke="none">
<path d="M1298 1614 c-74 -89 -87 -111 -81 -134 4 -14 -16 -25 -99 -55 -57
-21 -137 -50 -178 -66 -182 -67 -174 -59 -290 -257 -70 -118 -72 -125 -68
-175 3 -29 9 -60 13 -69 6 -15 -2 -17 -77 -20 l-83 -3 -3 -323 -2 -322 -53 0
c-60 0 -80 -10 -75 -36 3 -18 25 -19 581 -22 509 -2 578 0 583 13 11 28 -16
45 -72 45 l-54 0 0 231 0 232 65 59 c36 33 89 96 119 141 51 78 166 297 181
345 5 19 13 22 56 22 40 0 55 5 74 25 23 22 25 31 25 128 0 72 -4 108 -12 114
-17 14 -462 203 -476 203 -7 0 -40 -34 -74 -76z m184 -30 c46 -20 106 -46 133
-58 28 -13 80 -36 118 -51 l67 -29 0 -78 c0 -64 -3 -79 -18 -87 -14 -7 -70 17
-250 106 -127 64 -232 120 -232 124 0 16 74 108 87 108 7 1 49 -15 95 -35z m3
-241 c96 -48 175 -92 175 -97 0 -21 -131 -276 -180 -350 -29 -44 -76 -103
-106 -131 -50 -49 -157 -115 -184 -115 -7 0 -72 -36 -145 -80 -78 -47 -144
-80 -160 -80 -36 0 -85 50 -85 87 0 16 7 38 15 50 17 24 123 96 203 138 38 20
57 37 67 61 7 18 33 58 57 90 75 99 72 92 58 109 -7 8 -29 15 -49 15 -20 0
-65 14 -99 30 -35 17 -69 30 -75 30 -7 0 -24 -16 -39 -34 -17 -21 -59 -50
-103 -72 -41 -20 -75 -43 -75 -51 0 -8 11 -29 25 -47 38 -50 34 -56 -43 -56
l-68 0 -17 35 c-9 20 -17 48 -17 64 0 28 122 245 161 287 25 26 49 37 274 120
99 36 187 70 195 75 8 4 21 9 27 9 7 0 92 -39 188 -87z m-432 -344 l54 -21
-46 -69 -46 -70 -65 3 c-63 3 -65 4 -82 38 -9 19 -17 38 -18 42 0 3 24 20 53
36 29 16 59 37 66 46 17 20 18 20 84 -5z m-153 -226 c0 -5 -17 -17 -38 -29
-34 -19 -40 -19 -77 -6 -50 17 -142 11 -183 -14 -31 -18 -72 -79 -72 -107 0
-16 12 -22 70 -32 33 -6 36 -4 45 27 12 40 56 68 82 52 15 -9 17 -23 15 -75
l-4 -64 -83 -85 c-98 -101 -135 -156 -135 -205 l0 -35 180 0 180 0 0 40 0 39
-122 3 -123 3 83 83 c63 62 88 82 100 76 10 -4 36 -9 58 -12 47 -4 61 2 214
93 58 35 118 67 133 70 15 4 30 11 33 16 18 30 24 -24 24 -212 l0 -209 -395 0
-395 0 0 295 0 295 205 0 c113 0 205 -3 205 -7z"/>
</g>
</svg>
