<svg xmlns="http://www.w3.org/2000/svg" viewBox="0 0 160.36 162.03"><defs><style>.cls-1{fill:#44aadf;}</style></defs><title>sleep 5</title><g id="Слой_2" data-name="Слой 2"><g id="Слой_1-2" data-name="Слой 1"><path class="cls-1" d="M83.44,1.09c-.67.6-1.15,3.33-1.15,6.33,0,6.33.48,6.58,10.48,6.84,9.62.17,10.48.26,10.48,1.11,0,.52-2.18,3.08-4.85,5.81s-6,6.5-7.43,8.38a27.43,27.43,0,0,1-3.62,4.28c-2.56,1.88-7.9,11.2-7.9,13.68,0,5.47.29,5.56,22.38,5.65,11,.08,21,.08,22.19,0,1.91-.09,2.1-.52,2.1-5.56,0-3.85-.38-5.74-1.43-6.51s-4.85-1.19-10.29-1.28c-4.85-.09-9-.26-9.43-.34-1.33-.17-.85-1.53,1.43-3.67a40.68,40.68,0,0,0,3.53-4.11c.77-1,4.57-5.47,8.38-9.92l6.86-8V7.42c0-5-.29-6.42-1.53-6.85C120.71-.45,84.7,0,83.44,1.09Z"/><path class="cls-1" d="M131.84,30.76a14.12,14.12,0,0,0-1,5.14c0,4,1.71,5.2,7.53,5.2,2.18,0,3.9.43,3.9.94s-2.66,3.6-5.9,6.85c-7,6.93-7.24,7.53-7.33,12.91-.1,3.08.28,4.27,1.61,4.87s18.77,1.29,27.63,1c2-.09,2.08-.43,2.08-6.07v-6l-3.51-.09c-2-.08-4.29-.26-5.06-.34l-2.66-.34c-1.43-.09,1-3.43,7-9.93,3.91-4.1,4.86-7.69,3.72-13.5l-.57-2.31H146.13C134,29.14,132.8,29.31,131.84,30.76Z"/><path class="cls-1" d="M96.6,63.51c0,4.62.77,5.3,6.67,5.47,2.38.09,4.58.26,5,.26,1.91.17.29,4.36-3.14,7.77-2.1,2.14-3.82,4.11-3.82,4.45a15.18,15.18,0,0,1-2.47,3.17c-2,2.14-2.38,3.33-2.09,6.67L97,95.41l14,.17c13.14.17,14.19,0,15-1.54a7.26,7.26,0,0,0,.38-4.62c-.47-2.57-1-3-3.33-3.08-1.53-.09-4-.17-5.52-.26-4.1-.17-4.49-1-1.63-4.28a19,19,0,0,0,2.48-3.42,29.35,29.35,0,0,1,3.43-4.78,18.19,18.19,0,0,0,4-8.12c.76-6.16.19-6.34-15.62-6.16l-13.72.17Z"/><path class="cls-1" d="M.21,88.27c-.58,1.77.3,3.78,4.7,10.38,1.55,2.24,2,3.77,1.27,4.84C2,110.21-.27,115.41,0,117.48c.49,4.37,3.51,3.78,7.62-1.42,2.16-2.7,4.6-4.83,5.38-4.83s3.61,2.37,6.35,5.31,5.37,5.31,5.87,5.31,1,.82,1,1.77,1.47,3.3,3.23,5.19c2.44,2.71,3.32,3.07,3.91,1.89.59-1.42,1.46-1.3,4.59.71,4.5,2.83,5.19,6.36,2,9.9-2.83,3.07-2.55,7.43.58,8.85,3.72,1.77,4.31,1.53,5.77-2.71a32.65,32.65,0,0,1,3.26-6.53c1.77-2.36,2.35-2.6,4.7-1.54,5.12,2.48,15.44,5.08,21.79,5.67,3.52.35,6.65.94,7,1.41s.79,4.13.88,8.14l.19,7.43h3.62c3.32,0,3.71-.35,4.3-3.54a27.26,27.26,0,0,0,0-7c-.78-4.6,2.35-7.91,8.2-9,5.38-.83,10.66-2.83,13.4-5a8.92,8.92,0,0,1,4.59-1.53c2.35,0,3.13.94,5.48,6.73,2.14,5.66,3.07,7,5.26,7.19s2.95-.23,3.73-2.59.48-4.13-1.38-8.15c-4.1-9-4.1-9.31,1.57-14.38a95.39,95.39,0,0,0,9.41-10.19l4.31-5.55,3.22,4.13a29.89,29.89,0,0,1,3.75,5.77c.88,2.83,5.18,2.12,5.86-1,.88-4,.69-5-1.17-7.42-3.51-4.61-6-9.09-6-10.62a6.06,6.06,0,0,1,1.55-3.31,15,15,0,0,0,2.05-5.89l.5-3.89-4.21.23c-2.34.12-4.39.83-4.59,1.54a42.85,42.85,0,0,1-3.17,5.84c-6.34,9.9-10.35,14.86-13.58,17.45a85,85,0,0,0-6.36,5.78,13.87,13.87,0,0,1-5.56,3.89,7.86,7.86,0,0,0-3.82,2.24,3.69,3.69,0,0,1-2.73,1.66,6.73,6.73,0,0,0-3.62,1.77,7.62,7.62,0,0,1-4.4,1.77c-1.37,0-2.83.35-3.08.82-.88,1-2,1.07-16.32,2-13,.83-28.05-1.89-34.7-6.14-2.15-1.41-4.2-2.59-4.69-2.59s-1.46-.83-2.25-1.77a5.5,5.5,0,0,0-3.46-1.76c-1,0-1.86-.48-1.86-1.07s-.87-1.29-2-1.65a4.37,4.37,0,0,1-2.54-2.94,4.42,4.42,0,0,0-2.74-3.07c-1.27-.35-6.65-6-12-12.51C9.4,87.09,8.65,86.5,4.83,86.5,2.07,86.5.51,87.09.21,88.27Z"/></g></g></svg>