<svg xmlns="http://www.w3.org/2000/svg" viewBox="0 0 161.7 96.36"><defs><style>.cls-1{fill:#44aadf;}</style></defs><title>sleep 1</title><g id="Слой_2" data-name="Слой 2"><g id="Слой_1-2" data-name="Слой 1"><path class="cls-1" d="M71,.15a26.36,26.36,0,0,1-4.9.8c-7.58.8-11.48,1.7-11.48,2.6,0,.4-1.56,1.1-3.41,1.5a18,18,0,0,0-5.37,2,6.44,6.44,0,0,1-3.15,1.4,14.68,14.68,0,0,0-4.62,2.2C36.21,12,34.27,13,33.62,13s-3,1.6-5.45,3.5-5,3.9-5.65,4.5c-1.94,1.5-14.24,15-17.39,19.1-1.48,2-3.33,4.2-3.88,4.9-3.34,3.8-.1,9.8,11.09,21,8.89,8.9,12,11.5,18.23,15.5a49.18,49.18,0,0,1,6.75,5.1,6,6,0,0,0,3.52,1.9,8.69,8.69,0,0,1,3.42.9c4,2.1,13.5,5.2,17.11,5.5,1.39.2,2.78.5,3.06.9,1,1,31.26.7,35.05-.4a22.4,22.4,0,0,1,6.29-1c1.39,0,2.5-.4,2.5-.9a1.09,1.09,0,0,1,1.19-1h0a19.55,19.55,0,0,0,5.09-2,16.76,16.76,0,0,1,5.64-2,4.47,4.47,0,0,0,3.06-1.4,11.36,11.36,0,0,1,3.32-2c2.6-.9,11.57-7.5,12.49-9.3a2.62,2.62,0,0,1,2-1.3c1.66,0,15.26-14.6,15.26-16.3,0-.7,1.29-2.6,2.78-4.2,3.32-3.5,3.41-5,.46-9.7a18.28,18.28,0,0,1-2.32-4.5c0-.4-2.77-4-6.29-7.9-9-10.2-15.72-15.3-29.32-22.1-2-1-3.79-2.1-4-2.6a2,2,0,0,0-1.75-.7,13.1,13.1,0,0,1-4.26-1.4C105.71,2.15,96.37.55,84,.15,77,0,71.09,0,71,.15ZM95.5,14c6.67,3.4,15.18,12.6,18.13,19.5,1.76,4.3,2.32,7.2,2.32,13.5.09,8.6-.65,12.1-4,20-2.31,5.4-9.16,13.5-11.56,13.5-.75,0-1.39.4-1.39,1s-.75,1-1.66,1a4.15,4.15,0,0,0-2.69,1.1,8.55,8.55,0,0,1-4,1.4,10.73,10.73,0,0,0-4.08,1.3c-2.21,1.8-15.16-.3-21.36-3.5-10.09-5.2-17-15.1-19.52-27.8-1.2-6.2-1.2-7.6.19-13.4,1.39-6.1,1.39-6.6-.19-7.8-2.59-2-4.81-1.6-6.57,1.4-2.68,4.4-2.31,20.8.65,29.6,1.21,3.8,3.23,8,4.35,9.3a8.74,8.74,0,0,1,2.13,4c0,1.5,0,1.5-10.93-5.2A30.6,30.6,0,0,1,30,69a5.08,5.08,0,0,0-2.21-1.5c-.65,0-6.11-4.9-8.79-8-.47-.6-2.78-3.1-5-5.6l-4-4.4,1.94-2.3a8.75,8.75,0,0,0,2-3.5,1.1,1.1,0,0,1,1-1.2h0c1.29,0,3.6-2.5,3.6-3.9,0-.6.28-1.1.74-1.1s2.5-2,4.81-4.5A36.47,36.47,0,0,1,29,28.45a5.64,5.64,0,0,0,2.5-1.8,26.32,26.32,0,0,1,8.61-6c2.3-1.1,4.53-2.5,4.8-3.1s1.76-1.1,3.14-1.1a12.3,12.3,0,0,0,5.28-1.6c2-1.1,4.07-1.4,7.58-.9,3.15.4,5.56.2,7-.6C74.23,9.65,87.55,9.85,95.5,14ZM130,26.45c10.83,7.9,19.89,18,19.89,22.2,0,1.7-11.84,15.2-18.59,21.1-3.79,3.3-14.52,9.2-15.35,8.3-.28-.3.56-2.3,1.84-4.3,5.47-8.6,7.5-20.2,5.75-33-.65-4.9-1.86-10.2-2.69-11.8a37.8,37.8,0,0,1-1.85-4.5,25,25,0,0,0-2-3.8c-1.58-2.3-1.58-2.3,1.1-1.6,1.44.4,6.81,3.7,11.89,7.4Z"/><path class="cls-1" d="M77.21,27.47c-5.9.9-7.17,2.3-5.8,6.3a39.71,39.71,0,0,0,3.34,6.8c2.16,3.7,2.85,6.9,1.38,6.9a79.53,79.53,0,0,1-8-2.6c-4.91-1.8-7.47-2.3-8.16-1.6s-1,3.6-1,6.7c0,6.9,2.75,10.9,11.1,16.7,4.43,3.1,6.19,3.7,10.42,3.8,2.75,0,5.4-.5,5.7-1a3.39,3.39,0,0,1,2.55-1c2.56,0,9.63-6.7,10.42-9.9a11,11,0,0,1,1.57-3.9c.49-.7.69-4,.49-7.6C100.16,34,89.65,25.47,77.21,27.47Z"/></g></g></svg>