<svg xmlns="http://www.w3.org/2000/svg" viewBox="0 0 161.95 162.57"><defs><style>.cls-1{fill:none;}.cls-2{fill:#44aadf;}</style></defs><title>sleep 4.2</title><g id="Слой_2" data-name="Слой 2"><g id="Слой_1-2" data-name="Слой 1"><rect class="cls-1" x="-0.08" y="0.08" width="162.11" height="161.95" transform="translate(-0.08 162.03) rotate(-90)"/><path class="cls-2" d="M135.48,24.92l-6.43.26-.5,3.62a13.64,13.64,0,0,0,.33,6c.75,2.15,1.25,2.33,5.26,2.33,6.18-.09,6.51-.09,6.51,1.12s-4.92,5.86-6,5.86a.7.7,0,0,0-.67.73v.05c0,.35-1.67,2.5-3.75,4.58-3.35,3.45-3.77,4.31-3.77,7.68,0,6.46-.32,6.38,17.29,6.46,9.18.09,16.11-.26,16.7-.69,1.08-.86,1.24-3.1.5-8.71l-.42-3.28-4.5.35a25.57,25.57,0,0,1-7-.18l-2.43-.51,3.13-3.43c1.75-1.9,4.26-4.4,5.6-5.61,4.92-4.32,6.17-6.73,6.08-11.73-.08-3.62-.41-4.67-1.49-4.75C154.26,24.75,140.74,24.75,135.48,24.92Z"/><path class="cls-2" d="M93.23,56.94c-.75.43-1,2.06-.83,4.48l.25,3.71,5.42.34a41.94,41.94,0,0,1,6.52.61c1.09.43-1.26,4.14-8.44,13.37-3.67,4.83-4,5.52-3.75,9.32l.25,4h14c15.44,0,16.28-.26,16.28-5.17,0-3.88-1.09-4.67-6.1-4.31-2.75.08-5.09-.18-6-.87-1.34-1-1.17-1.55,2.25-6.12,2.09-2.85,5.18-6.82,6.93-8.9,2.67-3.35,3.17-4.39,2.92-7.33l-.25-3.53-14.19-.17C100.75,56.24,93.82,56.51,93.23,56.94Z"/><path class="cls-2" d="M151.64,87.11c-1.3.23-6.33,5.86-12.57,13.84-6.23,8.21-11.43,14-13.27,14.78a28.25,28.25,0,0,0-6.06,4.11c-1.65,1.52-3.47,2.81-4,2.81A14.71,14.71,0,0,0,111.5,125c-1.74,1.29-3.73,2.35-4.33,2.35a9.91,9.91,0,0,0-4,1.87,13.31,13.31,0,0,1-6.42,1.88,10.71,10.71,0,0,0-5.2,1.06c-1.91,1.41-23,1.41-24.37.12-.52-.59-2.26-1.06-3.9-1.18a12.38,12.38,0,0,1-4.59-1.52,10.18,10.18,0,0,0-3.56-1.53c-1.9-.24-4.16-1.41-10.58-5.4-1.91-1.16-4.94-3-6.68-4.1s-3.29-2.47-3.29-3a1,1,0,0,0-1-1.06c-.94,0-3.37-2.81-9.88-11.49-2.07-2.7-4.15-4.93-4.68-4.93s-1.48-1.53-2.16-3.29c-1.91-5-3.73-6.56-8.07-6.69-5-.12-5.46,1.65-2.07,7.51,1.47,2.47,2.69,5.17,2.69,6s-2.34,4.57-5.2,8.33c-4.68,6.21-5,6.92-3.11,6.92A13.3,13.3,0,0,1,5.66,118c2.16,1.18,2.68.83,6.06-3.64,4.08-5.51,4.43-5.39,8.84,1.53,2.35,3.75,13.36,13.85,15,13.85s6.84,5,6.84,6.68c0,.82-.34,1.53-.78,1.53-.78,0-3.55,7.15-3.55,9.15,0,1.17,5.9,4.45,6.42,3.51.17-.11,1.3-2.81,2.6-6,1.81-4.1,2.95-5.51,4.42-5.51a3.23,3.23,0,0,1,2.69,1.29,1.57,1.57,0,0,0,2,.72l0,0c.86-.23,3.64.23,6.15,1.06a39.68,39.68,0,0,0,11.37,1.64c7.88,0,8.49.82,8.49,10.91,0,6.69.69,7.86,4.34,7.86,2,0,2.85-3.51,2.69-10.68-.1-6.09,1.3-8.56,5-8.91,6.58-.59,19-4.93,21.93-7.62l2.43-2.24,2.17,5.63c1.12,3,2.6,7.06,3.2,8.92,1.21,3.53,2.17,3.87,5.46,1.77,2.26-1.29,2.87-3.76,1.3-5a3.88,3.88,0,0,1-.86-2.46,23.1,23.1,0,0,0-2.17-6.34c-1.22-2.47-1.9-5.28-1.74-6.1.44-1.53,1.14-2.11,6.16-5.63,3-2.11,3.12-2.11,9-9.27,2.69-3.28,5.2-5.4,5.81-5s3,3.4,5.46,6.57c4.43,5.63,4.6,5.75,6.85,4.11,3.73-2.83,3.21-5.64-2.08-13.1l-4.85-6.8,2.6-4.1c2.95-4.47,3.47-8.06,1.3-9.16a6.63,6.63,0,0,0-1.91-.59A24.06,24.06,0,0,1,151.64,87.11Z"/></g></g></svg>