<?xml version="1.0" encoding="utf-8"?>
<!-- Generator: Adobe Illustrator 22.1.0, SVG Export Plug-In . SVG Version: 6.00 Build 0)  -->
<svg version="1.1" id="Слой_1" xmlns="http://www.w3.org/2000/svg" xmlns:xlink="http://www.w3.org/1999/xlink" x="0px" y="0px"
	 viewBox="0 0 14400 14400" style="enable-background:new 0 0 14400 14400;" xml:space="preserve">
<style type="text/css">
	.st0{display:none;fill:#1EFF90;}
	.st1{display:none;fill:#44AADF;}
	.st2{display:none;fill:none;}
	.st3{fill:#44AADF;}
	.st4{display:none;fill:#F859FF;}
	.st5{display:none;fill:#E9FF18;}
	.st6{display:none;fill:#7C00DE;}
</style>
<rect x="7118.4" y="7118.6" transform="matrix(6.123234e-17 -1 1 6.123234e-17 -8.499756e-02 14399.0352)" class="st0" width="162.1" height="161.9"/>
<path class="st1" d="M7189.6,7171.4c-1.6,0.4-3.2,0.7-4.9,0.8c-7.6,0.8-11.5,1.7-11.5,2.6c0,0.4-1.6,1.1-3.4,1.5
	c-1.9,0.4-3.7,1.1-5.4,2c-0.9,0.7-2,1.2-3.1,1.4c-1.7,0.5-3.2,1.2-4.6,2.2c-1.8,1.3-3.8,2.3-4.4,2.3s-3,1.6-5.5,3.5s-5,3.9-5.6,4.5
	c-1.9,1.5-14.2,15-17.4,19.1c-1.5,2-3.3,4.2-3.9,4.9c-3.3,3.8-0.1,9.8,11.1,21c8.9,8.9,12,11.5,18.2,15.5c2.4,1.5,4.7,3.2,6.7,5.1
	c0.9,1,2.2,1.7,3.5,1.9c1.2,0.1,2.4,0.4,3.4,0.9c4,2.1,13.5,5.2,17.1,5.5c1.4,0.2,2.8,0.5,3.1,0.9c1,1,31.3,0.7,35.1-0.4
	c2-0.6,4.2-1,6.3-1c1.4,0,2.5-0.4,2.5-0.9c0.1-0.6,0.6-1.1,1.2-1c0,0,0,0,0,0c1.8-0.4,3.5-1.1,5.1-2c1.7-1,3.7-1.7,5.6-2
	c1.2,0,2.3-0.6,3.1-1.4c1-0.9,2.1-1.5,3.3-2c2.6-0.9,11.6-7.5,12.5-9.3c0.4-0.7,1.2-1.2,2-1.3c1.7,0,15.3-14.6,15.3-16.3
	c0-0.7,1.3-2.6,2.8-4.2c3.3-3.5,3.4-5,0.5-9.7c-1-1.4-1.8-2.9-2.3-4.5c0-0.4-2.8-4-6.3-7.9c-9-10.2-15.7-15.3-29.3-22.1
	c-2-1-3.8-2.1-4-2.6c-0.4-0.5-1.1-0.8-1.8-0.7c-1.5-0.2-2.9-0.7-4.3-1.4c-5.9-2.9-15.3-4.5-27.7-4.9
	C7195.6,7171.2,7189.7,7171.2,7189.6,7171.4z M7214.1,7185.2c6.7,3.4,15.2,12.6,18.1,19.5c1.8,4.3,2.3,7.2,2.3,13.5
	c0.1,8.6-0.6,12.1-4,20c-2.3,5.4-9.2,13.5-11.6,13.5c-0.7,0-1.4,0.4-1.4,1s-0.7,1-1.7,1c-1,0-2,0.4-2.7,1.1c-1.2,0.8-2.6,1.3-4,1.4
	c-1.4,0.2-2.8,0.6-4.1,1.3c-2.2,1.8-15.2-0.3-21.4-3.5c-10.1-5.2-17-15.1-19.5-27.8c-1.2-6.2-1.2-7.6,0.2-13.4
	c1.4-6.1,1.4-6.6-0.2-7.8c-2.6-2-4.8-1.6-6.6,1.4c-2.7,4.4-2.3,20.8,0.6,29.6c1.2,3.8,3.2,8,4.4,9.3c1.1,1.1,1.8,2.5,2.1,4
	c0,1.5,0,1.5-10.9-5.2c-1.9-1.1-3.7-2.4-5.4-3.9c-0.6-0.7-1.4-1.2-2.2-1.5c-0.6,0-6.1-4.9-8.8-8c-0.5-0.6-2.8-3.1-5-5.6l-4-4.4
	l1.9-2.3c0.9-1,1.6-2.2,2-3.5c-0.1-0.6,0.4-1.1,1-1.2c0,0,0,0,0,0c1.3,0,3.6-2.5,3.6-3.9c0-0.6,0.3-1.1,0.7-1.1c0.5,0,2.5-2,4.8-4.5
	c1.5-1.6,3.1-3.2,4.9-4.5c1-0.4,1.8-1,2.5-1.8c2.4-2.6,5.4-4.6,8.6-6c2.3-1.1,4.5-2.5,4.8-3.1s1.8-1.1,3.1-1.1
	c1.9-0.1,3.7-0.7,5.3-1.6c2-1.1,4.1-1.4,7.6-0.9c3.1,0.4,5.6,0.2,7-0.6C7192.8,7180.9,7206.1,7181.1,7214.1,7185.2z M7248.6,7197.7
	c10.8,7.9,19.9,18,19.9,22.2c0,1.7-11.8,15.2-18.6,21.1c-3.8,3.3-14.5,9.2-15.4,8.3c-0.3-0.3,0.6-2.3,1.8-4.3
	c5.5-8.6,7.5-20.2,5.7-33c-0.6-4.9-1.9-10.2-2.7-11.8s-1.6-3.7-1.8-4.5c-0.6-1.3-1.2-2.6-2-3.8c-1.6-2.3-1.6-2.3,1.1-1.6
	C7238.1,7190.7,7243.5,7194,7248.6,7197.7L7248.6,7197.7z"/>
<path class="st1" d="M7195.8,7198.7c-5.9,0.9-7.2,2.3-5.8,6.3c0.9,2.4,2,4.6,3.3,6.8c2.2,3.7,2.8,6.9,1.4,6.9
	c-2.7-0.7-5.4-1.6-8-2.6c-4.9-1.8-7.5-2.3-8.2-1.6c-0.7,0.7-1,3.6-1,6.7c0,6.9,2.8,10.9,11.1,16.7c4.4,3.1,6.2,3.7,10.4,3.8
	c2.8,0,5.4-0.5,5.7-1s1.5-1,2.6-1c2.6,0,9.6-6.7,10.4-9.9c0.3-1.4,0.8-2.7,1.6-3.9c0.5-0.7,0.7-4,0.5-7.6
	C7218.8,7205.2,7208.2,7196.7,7195.8,7198.7z"/>
<rect x="7118.4" y="7118.6" transform="matrix(6.123234e-17 -1 1 6.123234e-17 -8.232888e-02 14399.0322)" class="st2" width="162.1" height="161.9"/>
<path class="st3" d="M7129.1,7206.1c-2.5,1.1-10.5,11.4-10.5,13.5c0,0.6,1.3,3.1,2.8,5.6c1.1,1.6,2.1,3.2,2.8,5
	c0,1.6,9.8,12.2,13,13.9c4.9,2.6,10.7,7.3,10.7,8.7c0.1,2.1,4.6,4.9,6.7,4.2c1.5-0.3,3,0,4.2,0.9c1.1,0.8,2.5,1.4,3.9,1.6
	c1.4,0.2,2.8,0.7,4,1.4c4.2,2.3,8.9,3.7,13.7,4.2c2.4,0.2,4.7,0.7,6.9,1.5c4,1.5,25.5,0.3,34-2c9.8-2.7,18.4-6,21.2-8.3
	c1-0.9,2.2-1.5,3.5-1.8c0.6,0.1,1.2-0.4,1.3-1c0-0.6,0.7-1,1.4-1c4.3,0,31.7-28.4,31.7-32.8c0-1.3-3.2-6.5-7.5-12.2l-1.9-2.5h-69.8
	C7152.6,7205,7130.8,7205.3,7129.1,7206.1z M7267.4,7215.3c3.1,3,1.9,5.3-8.7,16.3c-7.9,8.1-12,11.6-17.2,14.3
	c-3.7,2-6.9,3.6-7.1,3.6c-1.1,0-0.1-3.7,1.4-5.4c2.6-3,5.7-13.5,5.9-19.8c0.1-10.8,0.1-10.7,7.8-11
	C7259.6,7212.9,7265.6,7213.5,7267.4,7215.3z M7155.7,7217.2c0,2.1,0.1,4.5,0,5.3c-0.3,5.5,4.3,19.7,6.7,20.8c1,0.5,0.8,5.2-0.3,5.2
	c-2.5,0-19.4-11.4-23.7-16c-3.8-3.9-8.5-11-8.5-12.6c0.3-1.5,1-3,2.1-4.1c1.9-2.1,2.7-2.3,12.8-2.3h10.7L7155.7,7217.2z
	 M7178.5,7216.2c0.3,1.9,0.3,3.9,0,5.8c-0.3,2.2,0.4,4.3,2.5,7.7c6.2,10.3,16.2,14.1,26,9.8c2.8-1.2,6-3.1,7-4.3
	c2.6-3.1,4.9-9.5,5.3-15.3c0.3-2.7,0.5-5.2,0.5-5.7s3-0.7,6.6-0.7c8.9,0,9.3,0.6,7.7,11.6c-0.7,4.7-1.6,8.7-2,9
	c-0.4,0.3-1.6,2.4-2.6,4.7c-2.4,5.5-5.4,9-10.1,11.7c-2.1,1.2-5.2,3-7,4.1c-4.2,2.6-17.2,2.9-24.6,0.5c-7-2.2-17-10.8-19.9-17.1
	c-3.2-6.9-4-9.8-4.2-15.4c-0.3-7.8,1-9.1,8.9-9.1C7177.7,7213.5,7178,7213.6,7178.5,7216.2L7178.5,7216.2z"/>
<rect x="7118.5" y="7118.5" transform="matrix(6.123234e-17 -1 1 6.123234e-17 -4.989714e-02 14398.9824)" class="st4" width="162" height="161.9"/>
<path class="st1" d="M7219.2,7167.7c-1.1,1.1-1.5,3-1.3,6.2l0.3,4.6l8-0.1c4.3,0,7.9,0.3,7.9,0.8c-0.1,0.5-0.5,0.8-1,0.8
	c-0.6,0.1-1,0.7-1,1.3c0,0.7-2,3.4-4.6,5.9c-2.6,2.5-4.6,5.1-4.6,5.7c0,0.6-0.9,2-2.2,3.2c-2.4,2.3-3.6,7.5-2.6,11.5
	c0.6,2.3,1.1,2.6,3.7,2c1.8-0.3,3.1-0.1,3.1,0.5s0.5,0.7,1.1,0.3c0.6-0.4,7-0.7,14.1-0.8c7.1-0.1,13.6-0.5,14.3-0.9
	c1.5-0.9,1.1-9-0.5-11c-0.9-1-2.9-1.3-7.4-1c-5.4,0.4-6.2,0.3-6.2-1.4c0-1,3.5-5.6,7.6-10.2c6.6-7.2,7.6-8.8,7.5-12
	c-0.1-6.6-1-6.9-18.8-7C7223.6,7166.1,7220.5,7166.5,7219.2,7167.7z"/>
<path class="st1" d="M7230.5,7217.2c-0.6,0.5-24.9,1.1-53.9,1.3c-29.1,0.1-53.8,0.6-55.1,0.8c-3.4,0.4-3.7,2.1-1,5.5
	c1.1,1.6,1.8,3.8,1.5,4.8c-0.8,2.5,6.8,8.4,12,9.2c3.4,0.6,4.4,1.4,4.6,3.5c0.3,2.5,6.2,9.2,8.2,9.2c2,0.8,3.9,1.8,5.8,3.2
	c2.7,1.8,5.6,3.2,6.7,3.2c1.4,0.2,2.7,1.1,3.6,2.4c1.1,1.5,2.7,2.1,4.2,1.6c1.3-0.3,2.7-0.1,3.9,0.8c1,1,8.2,3.1,11.5,3.4
	c0.8,0.1,1.6,0.5,2.3,1c0.9,0.5,1.9,0.5,2.8,0.1c0.9-0.4,1.9-0.4,2.8,0.1c1.3,1.1,12.2,1.6,13.7,0.8c1.9-0.5,3.8-0.7,5.7-0.8
	c2.7-0.1,4.7-0.4,4.7-0.6s0.7-0.5,8.5-1.6c2-0.2,3.9-0.9,5.6-1.9c1.5-1.6,9.9-5.3,12-5.3c1.5-0.4,2.9-1.3,4.1-2.5
	c1.3-1.3,2.8-2.2,4.4-2.5c0.9,0,1.7-0.6,1.7-1.3s0.7-1.3,1.5-1.3s3-1.6,4.8-3.5c3.1-3.2,6.4-6.2,9.9-8.9c3.6-2.9,6.8-6.2,7.1-7.2
	c0.3-1,1.1-1.7,2-1.8c0.8,0,1.4-0.6,1.4-1.4c0.2-1.2,0.8-2.3,1.5-3.2c0.8-1,1.3-2.4,1.5-3.8c0-1.9,0.7-1.9-29.8-2
	c-9.9,0-18.2-0.5-18.5-1C7231.7,7216.8,7231,7216.7,7230.5,7217.2z M7254.1,7228.8l4.3,0.1l-4.6,5c-2.6,2.8-5.8,5.3-7.2,5.8
	c-2.3,0.9-4.5,2.2-6.5,3.9c-4.5,3.7-5.6,3.2-3-1.1c1.1-1.7,2-3.7,2.7-5.8c0.9-3.8,6.7-9.5,8.5-8.7
	C7249.1,7228.6,7251.7,7228.8,7254.1,7228.8L7254.1,7228.8z M7154.6,7230.2c2.1,3.5,5.5,12.3,5,12.9c-0.3,0.5-1.5,0-2.8-1
	c-1.1-1-2.4-1.7-3.7-1.9c-2.2,0-9.6-9.1-8.2-10.1C7145.9,7229.4,7154.1,7229.4,7154.6,7230.2z M7230.7,7230.4l3.1,0.3l-4.6,5.3
	c-2.5,3-4.8,5.4-5.2,5.4c-0.4,0-0.9,1.1-1.2,2.6c-0.3,1.5-1,2.3-1.6,1.9c-0.6-0.4-1.6,0.1-2.5,1.1c-0.8,0.9-1.7,1.6-2.8,1.9
	c-1.5,0.4-2.9,1.1-4.2,2c-4.1,2.5-24.5,2.9-24.5,0.4c0-0.6-1.8-1.6-4.1-2.4c-3.8-1.3-10.7-8.3-15.6-16l-1.6-2.6l10.1-0.1
	c7.8-0.1,10.3,0.3,11.3,1.8c0.7,1.1,1.9,1.6,3,1.3c1.6-0.1,3.3,0.4,4.7,1.4c2,1.3,3.2,1.4,3.4,0.6c0.2-0.8,1-1,2.3-0.1
	c1.3,0.9,2.8,0.8,4.8-0.5C7213.5,7229.4,7215.6,7229.1,7230.7,7230.4z"/>
<rect x="7118.1" y="7118.9" transform="matrix(6.123234e-17 -1 1 6.123234e-17 -0.3741 14399.167)" class="st5" width="162.5" height="161.8"/>
<path class="st1" d="M7254,7143.4l-6.4,0.3l-0.5,3.6c-0.3,2-0.2,4,0.3,6c0.7,2.2,1.2,2.3,5.3,2.3c6.2-0.1,6.5-0.1,6.5,1.1
	s-4.9,5.9-6,5.9c-0.4,0-0.7,0.3-0.7,0.7c0,0,0,0,0,0.1c0,0.3-1.7,2.5-3.8,4.6c-3.3,3.4-3.8,4.3-3.8,7.7c0,6.5-0.3,6.4,17.3,6.5
	c9.2,0.1,16.1-0.3,16.7-0.7c1.1-0.9,1.2-3.1,0.5-8.7l-0.4-3.3l-4.5,0.4c-2.3,0.3-4.7,0.2-7-0.2l-2.4-0.5l3.1-3.4
	c1.8-1.9,4.3-4.4,5.6-5.6c4.9-4.3,6.2-6.7,6.1-11.7c-0.1-3.6-0.4-4.7-1.5-4.7C7272.8,7143.3,7259.2,7143.3,7254,7143.4z"/>
<path class="st1" d="M7211.7,7175.4c-0.7,0.4-1,2.1-0.8,4.5l0.2,3.7l5.4,0.3c2.2,0,4.4,0.2,6.5,0.6c1.1,0.4-1.3,4.1-8.4,13.4
	c-3.7,4.8-4,5.5-3.8,9.3l0.2,4h14c15.4,0,16.3-0.3,16.3-5.2c0-3.9-1.1-4.7-6.1-4.3c-2.8,0.1-5.1-0.2-6-0.9c-1.3-1-1.2-1.6,2.3-6.1
	c2.1-2.8,5.2-6.8,6.9-8.9c2.7-3.4,3.2-4.4,2.9-7.3l-0.2-3.5l-14.2-0.2C7219.2,7174.7,7212.3,7175,7211.7,7175.4z"/>
<path class="st1" d="M7270.1,7205.7c-1.3,0.2-6.3,5.9-12.6,13.8c-6.2,8.2-11.4,14-13.3,14.8c-2.2,1.1-4.2,2.5-6.1,4.1
	c-1.6,1.5-3.5,2.8-4,2.8c-1.5,0.5-3,1.3-4.2,2.3c-1.7,1.3-3.7,2.3-4.3,2.3c-1.5,0.3-2.8,1-4,1.9c-1.9,1.2-4.1,1.8-6.4,1.9
	c-1.8-0.1-3.6,0.3-5.2,1.1c-1.9,1.4-23,1.4-24.4,0.1c-0.5-0.6-2.3-1.1-3.9-1.2c-1.6-0.2-3.2-0.7-4.6-1.5c-1.1-0.7-2.3-1.2-3.6-1.5
	c-1.9-0.2-4.2-1.4-10.6-5.4c-1.9-1.2-4.9-3-6.7-4.1c-1.7-1.1-3.3-2.5-3.3-3c0-0.5-0.4-1-1-1.1c-0.9,0-3.4-2.8-9.9-11.5
	c-2.1-2.7-4.2-4.9-4.7-4.9s-1.5-1.5-2.2-3.3c-1.9-5-3.7-6.6-8.1-6.7c-5-0.1-5.5,1.6-2.1,7.5c1.5,2.5,2.7,5.2,2.7,6
	c0,0.8-2.3,4.6-5.2,8.3c-4.7,6.2-5,6.9-3.1,6.9c1.6,0.1,3.1,0.5,4.5,1.2c2.2,1.2,2.7,0.8,6.1-3.6c4.1-5.5,4.4-5.4,8.8,1.5
	c2.3,3.7,13.4,13.8,15,13.8s6.8,5,6.8,6.7c0,0.8-0.3,1.5-0.8,1.5c-0.8,0-3.6,7.1-3.6,9.1c0,1.2,5.9,4.5,6.4,3.5
	c0.2-0.1,1.3-2.8,2.6-6c1.8-4.1,3-5.5,4.4-5.5c1.1,0,2.1,0.5,2.7,1.3c0.4,0.7,1.3,1.1,2,0.7c0,0,0,0,0,0c0.9-0.2,3.6,0.2,6.1,1.1
	c3.7,1.1,7.5,1.6,11.4,1.6c7.9,0,8.5,0.8,8.5,10.9c0,6.7,0.7,7.9,4.3,7.9c2,0,2.9-3.5,2.7-10.7c-0.1-6.1,1.3-8.6,5-8.9
	c6.6-0.6,19-4.9,21.9-7.6l2.4-2.2l2.2,5.6c1.1,3,2.6,7,3.2,8.9c1.2,3.5,2.2,3.9,5.5,1.8c2.3-1.3,2.9-3.8,1.3-5
	c-0.6-0.7-0.9-1.6-0.9-2.5c-0.4-2.2-1.1-4.3-2.2-6.3c-1.2-2.5-1.9-5.3-1.7-6.1c0.4-1.5,1.1-2.1,6.2-5.6c3-2.1,3.1-2.1,9-9.3
	c2.7-3.3,5.2-5.4,5.8-5c0.6,0.4,3,3.4,5.5,6.6c4.4,5.6,4.6,5.7,6.8,4.1c3.7-2.8,3.2-5.6-2.1-13.1l-4.9-6.8l2.6-4.1
	c3-4.5,3.5-8.1,1.3-9.2c-0.6-0.3-1.2-0.5-1.9-0.6C7272,7205.3,7271.1,7205.5,7270.1,7205.7z"/>
<rect x="7118.5" y="7118.5" transform="matrix(6.123234e-17 -1 1 6.123234e-17 -4.049964e-02 14398.9902)" class="st6" width="162" height="161.9"/>
<path class="st1" d="M7202.9,7119.6c-0.7,0.6-1.1,3.3-1.1,6.3c0,6.3,0.5,6.6,10.5,6.8c9.6,0.2,10.5,0.3,10.5,1.1
	c0,0.5-2.2,3.1-4.9,5.8c-2.7,2.7-6,6.5-7.4,8.4c-1.1,1.5-2.3,3-3.6,4.3c-2.6,1.9-7.9,11.2-7.9,13.7c0,5.5,0.3,5.6,22.4,5.6
	c11,0.1,21,0.1,22.2,0c1.9-0.1,2.1-0.5,2.1-5.6c0-3.8-0.4-5.7-1.4-6.5s-4.9-1.2-10.3-1.3c-4.9-0.1-9-0.3-9.4-0.3
	c-1.3-0.2-0.8-1.5,1.4-3.7c1.3-1.3,2.4-2.7,3.5-4.1c0.8-1,4.6-5.5,8.4-9.9l6.9-8v-6.4c0-5-0.3-6.4-1.5-6.8
	C7240.2,7118.1,7204.2,7118.5,7202.9,7119.6z"/>
<path class="st1" d="M7251.3,7149.3c-0.7,1.6-1,3.4-1,5.1c0,4,1.7,5.2,7.5,5.2c2.2,0,3.9,0.4,3.9,0.9s-2.7,3.6-5.9,6.8
	c-7,6.9-7.2,7.5-7.3,12.9c-0.1,3.1,0.3,4.3,1.6,4.9c1.3,0.6,18.8,1.3,27.6,1c2-0.1,2.1-0.4,2.1-6.1v-6l-3.5-0.1
	c-2-0.1-4.3-0.3-5.1-0.3l-2.7-0.3c-1.4-0.1,1-3.4,7-9.9c3.9-4.1,4.9-7.7,3.7-13.5l-0.6-2.3h-13.1
	C7253.5,7147.6,7252.3,7147.8,7251.3,7149.3z"/>
<path class="st1" d="M7216.1,7182c0,4.6,0.8,5.3,6.7,5.5c2.4,0.1,4.6,0.3,5,0.3c1.9,0.2,0.3,4.4-3.1,7.8c-2.1,2.1-3.8,4.1-3.8,4.4
	c-0.7,1.2-1.5,2.2-2.5,3.2c-2,2.1-2.4,3.3-2.1,6.7l0.3,4.1l14,0.2c13.1,0.2,14.2,0,15-1.5c0.6-1.5,0.8-3.1,0.4-4.6
	c-0.5-2.6-1-3-3.3-3.1c-1.5-0.1-4-0.2-5.5-0.3c-4.1-0.2-4.5-1-1.6-4.3c1-1,1.8-2.2,2.5-3.4c1-1.7,2.1-3.3,3.4-4.8
	c2-2.3,3.4-5.1,4-8.1c0.8-6.2,0.2-6.3-15.6-6.2l-13.7,0.2L7216.1,7182z"/>
<path class="st1" d="M7119.7,7206.8c-0.6,1.8,0.3,3.8,4.7,10.4c1.6,2.2,2,3.8,1.3,4.8c-4.2,6.7-6.4,11.9-6.2,14
	c0.5,4.4,3.5,3.8,7.6-1.4c2.2-2.7,4.6-4.8,5.4-4.8s3.6,2.4,6.4,5.3c2.7,2.9,5.4,5.3,5.9,5.3s1,0.8,1,1.8s1.5,3.3,3.2,5.2
	c2.4,2.7,3.3,3.1,3.9,1.9c0.6-1.4,1.5-1.3,4.6,0.7c4.5,2.8,5.2,6.4,2,9.9c-2.8,3.1-2.5,7.4,0.6,8.8c3.7,1.8,4.3,1.5,5.8-2.7
	c0.8-2.3,1.9-4.5,3.3-6.5c1.8-2.4,2.3-2.6,4.7-1.5c5.1,2.5,15.4,5.1,21.8,5.7c3.5,0.4,6.6,0.9,7,1.4s0.8,4.1,0.9,8.1l0.2,7.4h3.6
	c3.3,0,3.7-0.4,4.3-3.5c0.3-2.3,0.3-4.7,0-7c-0.8-4.6,2.3-7.9,8.2-9c5.4-0.8,10.7-2.8,13.4-5c1.4-0.9,2.9-1.5,4.6-1.5
	c2.3,0,3.1,0.9,5.5,6.7c2.1,5.7,3.1,7,5.3,7.2s2.9-0.2,3.7-2.6s0.5-4.1-1.4-8.1c-4.1-9-4.1-9.3,1.6-14.4c3.4-3.2,6.5-6.6,9.4-10.2
	l4.3-5.5l3.2,4.1c1.5,1.8,2.7,3.7,3.8,5.8c0.9,2.8,5.2,2.1,5.9-1c0.9-4,0.7-5-1.2-7.4c-3.5-4.6-6.1-9.1-6.1-10.6
	c0.2-1.2,0.7-2.4,1.6-3.3c1.1-1.8,1.8-3.8,2.1-5.9l0.5-3.9l-4.2,0.2c-2.3,0.1-4.4,0.8-4.6,1.5c-0.9,2-2,4-3.2,5.8
	c-6.3,9.9-10.4,14.9-13.6,17.5c-2.2,1.8-4.3,3.8-6.4,5.8c-1.5,1.7-3.4,3.1-5.6,3.9c-1.5,0.4-2.8,1.1-3.8,2.2
	c-0.6,0.9-1.6,1.5-2.7,1.7c-1.4,0.2-2.6,0.8-3.6,1.8c-1.2,1-2.8,1.7-4.4,1.8c-1.4,0-2.8,0.3-3.1,0.8c-0.9,0.9-1.9,1.1-16.3,2
	c-13,0.8-28-1.9-34.7-6.1c-2.2-1.4-4.2-2.6-4.7-2.6s-1.5-0.8-2.3-1.8c-0.9-1-2.1-1.6-3.5-1.8c-1,0-1.9-0.5-1.9-1.1
	c0-0.6-0.9-1.3-2.1-1.6c-1.3-0.5-2.2-1.6-2.5-2.9c-0.3-1.4-1.4-2.5-2.7-3.1c-1.3-0.4-6.6-6-12-12.5c-9.2-11.2-10-11.8-13.8-11.8
	C7121.6,7205,7120,7205.6,7119.7,7206.8z"/>
</svg>
