<svg xmlns="http://www.w3.org/2000/svg" viewBox="0 0 161.95 162.11"><defs><style>.cls-1{fill:none;}.cls-2{fill:#44aadf;}</style></defs><title>Sleep 3.2</title><g id="Слой_2" data-name="Слой 2"><g id="Слой_1-2" data-name="Слой 1"><rect class="cls-1" x="-0.08" y="0.08" width="162.11" height="161.95" transform="translate(-0.08 162.03) rotate(-90)"/><path class="cls-2" d="M112,98.72c-.61.5-24.85,1.13-53.93,1.26s-53.81.63-55.15.75c-3.39.38-3.7,2.14-1,5.55,1.13,1.63,1.85,3.78,1.54,4.78-.82,2.52,6.77,8.45,12,9.2,3.39.63,4.42,1.39,4.62,3.53.31,2.52,6.16,9.2,8.22,9.2A26.09,26.09,0,0,1,34,136.14c2.67,1.77,5.65,3.15,6.67,3.15a5.58,5.58,0,0,1,3.6,2.4,3.84,3.84,0,0,0,4.21,1.63,4.84,4.84,0,0,1,3.9.76c1,1,8.21,3.15,11.5,3.4a5,5,0,0,1,2.27,1,3,3,0,0,0,2.76.13,3.07,3.07,0,0,1,2.78.12c1.34,1.14,12.22,1.64,13.65.76a26.57,26.57,0,0,1,5.66-.76c2.67-.12,4.72-.38,4.72-.63s.72-.5,8.52-1.64a14.17,14.17,0,0,0,5.65-1.89c1.55-1.63,9.86-5.29,12-5.29a8.83,8.83,0,0,0,4.12-2.52,8.65,8.65,0,0,1,4.41-2.52c.92,0,1.74-.63,1.74-1.26a1.5,1.5,0,0,1,1.55-1.26c.83,0,3-1.64,4.82-3.53a113,113,0,0,1,9.86-8.94c3.6-2.9,6.78-6.18,7.09-7.19a2.29,2.29,0,0,1,2-1.76,1.4,1.4,0,0,0,1.44-1.39,6.53,6.53,0,0,1,1.54-3.15A7.89,7.89,0,0,0,162,102c0-1.89.72-1.89-29.79-2-9.86,0-18.17-.51-18.48-1A1.1,1.1,0,0,0,112,98.72Zm23.63,11.59,4.31.12-4.62,5c-2.57,2.78-5.76,5.3-7.19,5.8a23.12,23.12,0,0,0-6.48,3.91c-4.51,3.65-5.64,3.15-3-1.14a22.36,22.36,0,0,0,2.67-5.79c.92-3.78,6.68-9.45,8.52-8.7.84.51,3.41.76,5.79.76Zm-99.52,1.38c2.06,3.53,5.54,12.35,5,12.86-.31.5-1.53,0-2.77-1a7.27,7.27,0,0,0-3.7-1.89c-2.16,0-9.65-9.07-8.21-10.08C27.44,110.85,35.55,110.94,36.06,111.69Zm76.1.26,3.08.25-4.62,5.29c-2.46,3-4.83,5.42-5.24,5.42s-.92,1.13-1.23,2.65-1,2.26-1.64,1.89-1.64.12-2.47,1.13a5.63,5.63,0,0,1-2.77,1.89,12,12,0,0,0-4.21,2c-4.11,2.52-24.55,2.89-24.55.37,0-.63-1.84-1.63-4.1-2.39-3.81-1.26-10.68-8.32-15.61-16l-1.64-2.65,10.06-.13c7.81-.12,10.26.26,11.29,1.77a2.68,2.68,0,0,0,3,1.26,7.32,7.32,0,0,1,4.72,1.38c2,1.27,3.19,1.39,3.39.63s1-1,2.27-.12,2.77.76,4.82-.51C95,110.94,97.06,110.56,112.16,112Z"/></g></g></svg>