<svg xmlns="http://www.w3.org/2000/svg" viewBox="0 0 161.89 102.3"><defs><style>.cls-1{fill:#44aadf;}</style></defs><title>sleep 3</title><g id="Слой_2" data-name="Слой 2"><g id="Слой_1-2" data-name="Слой 1"><path class="cls-1" d="M100.63,1.6c-1.13,1.1-1.54,3-1.33,6.2l.31,4.59,8-.1c4.31,0,7.91.3,7.91.8a.94.94,0,0,1-1,.8,1.26,1.26,0,0,0-1,1.3c0,.7-2.05,3.4-4.61,5.9s-4.63,5.1-4.63,5.7-.92,2-2.15,3.19c-2.36,2.3-3.6,7.5-2.57,11.5.62,2.3,1.13,2.6,3.69,2,1.85-.3,3.09-.1,3.09.5s.51.7,1.13.3,7-.7,14.06-.8,13.57-.5,14.28-.9c1.55-.9,1.14-9-.51-11-.92-1-2.88-1.3-7.39-1-5.45.4-6.17.3-6.17-1.39,0-1,3.5-5.6,7.6-10.2,6.58-7.2,7.61-8.8,7.5-12-.1-6.6-1-6.9-18.79-7C105,0,102,.33,100.63,1.6Z"/><path class="cls-1" d="M111.89,51.07c-.61.51-24.85,1.14-53.94,1.26s-53.8.63-55.14.76c-3.39.38-3.7,2.14-1,5.54,1.13,1.64,1.85,3.78,1.54,4.79-.82,2.52,6.77,8.44,12,9.2,3.39.63,4.42,1.39,4.62,3.53.31,2.52,6.16,9.2,8.22,9.2a25.68,25.68,0,0,1,5.75,3.15c2.67,1.76,5.65,3.15,6.67,3.15A5.53,5.53,0,0,1,44.19,94a3.85,3.85,0,0,0,4.21,1.64,4.84,4.84,0,0,1,3.9.76c1,1,8.21,3.15,11.5,3.4a5,5,0,0,1,2.27,1,3,3,0,0,0,2.76.12,3.1,3.1,0,0,1,2.78.13c1.34,1.13,12.22,1.64,13.65.76a26.57,26.57,0,0,1,5.66-.76c2.66-.13,4.72-.38,4.72-.63s.72-.5,8.52-1.64a14.33,14.33,0,0,0,5.65-1.89c1.54-1.64,9.86-5.29,12-5.29a8.91,8.91,0,0,0,4.12-2.52,8.65,8.65,0,0,1,4.41-2.52c.92,0,1.74-.63,1.74-1.26a1.5,1.5,0,0,1,1.55-1.26c.83,0,3-1.64,4.82-3.53a113.16,113.16,0,0,1,9.86-9c3.6-2.9,6.78-6.17,7.09-7.18a2.28,2.28,0,0,1,2-1.76,1.4,1.4,0,0,0,1.44-1.39,6.45,6.45,0,0,1,1.54-3.15,7.89,7.89,0,0,0,1.54-3.78c0-1.89.72-1.89-29.79-2-9.86,0-18.17-.5-18.48-1A1.1,1.1,0,0,0,111.89,51.07Zm23.63,11.6,4.31.12-4.62,5c-2.57,2.77-5.76,5.29-7.19,5.8a23.32,23.32,0,0,0-6.48,3.9c-4.51,3.66-5.64,3.16-3-1.13a22.76,22.76,0,0,0,2.67-5.8c.92-3.78,6.68-9.45,8.52-8.69.84.5,3.41.76,5.79.76ZM36,64.05c2.06,3.53,5.54,12.35,5,12.85-.31.51-1.53,0-2.77-1A7.12,7.12,0,0,0,34.52,74c-2.16,0-9.65-9.08-8.21-10.08C27.38,63.21,35.49,63.3,36,64.05Zm76.1.25,3.08.26-4.62,5.29c-2.46,3-4.83,5.42-5.24,5.42s-.92,1.13-1.23,2.64-1,2.27-1.65,1.89-1.63.13-2.46,1.14a5.69,5.69,0,0,1-2.77,1.89,12,12,0,0,0-4.21,2c-4.11,2.52-24.55,2.9-24.55.38,0-.63-1.84-1.64-4.1-2.39-3.81-1.26-10.68-8.32-15.61-16L47.1,64.18l10.06-.13c7.81-.12,10.26.25,11.29,1.77a2.68,2.68,0,0,0,3,1.26,7.32,7.32,0,0,1,4.72,1.38c2,1.26,3.19,1.39,3.39.63s1-1,2.27-.12,2.77.75,4.82-.51C95,63.3,97,62.92,112.1,64.3Z"/></g></g></svg>