<svg xmlns="http://www.w3.org/2000/svg" viewBox="0 0 161.95 162.11"><defs><style>.cls-1{fill:#44aadf;}.cls-2{fill:none;}</style></defs><title>Sleep 1.1</title><g id="Слой_2" data-name="Слой 2"><g id="Слой_1-2" data-name="Слой 1"><path class="cls-1" d="M71.08,52.87a26.09,26.09,0,0,1-4.9.8c-7.58.8-11.47,1.7-11.47,2.6,0,.4-1.57,1.1-3.42,1.5a18.13,18.13,0,0,0-5.37,2,6.45,6.45,0,0,1-3.14,1.4,14.73,14.73,0,0,0-4.63,2.2c-1.84,1.3-3.79,2.3-4.44,2.3s-3,1.6-5.45,3.5-5,3.9-5.64,4.5c-1.95,1.5-14.25,15-17.39,19.1-1.48,2-3.34,4.2-3.89,4.9-3.33,3.8-.1,9.8,11.09,21,8.89,8.9,12,11.5,18.24,15.5a49.18,49.18,0,0,1,6.75,5.1,5.9,5.9,0,0,0,3.51,1.9,8.64,8.64,0,0,1,3.42.9c4,2.1,13.5,5.2,17.12,5.5,1.39.2,2.77.5,3,.9,1,1,31.26.7,35.06-.4a22.34,22.34,0,0,1,6.29-1c1.39,0,2.49-.4,2.49-.9a1.1,1.1,0,0,1,1.19-1h0a19.41,19.41,0,0,0,5.09-2,16.76,16.76,0,0,1,5.64-2,4.45,4.45,0,0,0,3.06-1.4,11.36,11.36,0,0,1,3.32-2c2.6-.9,11.58-7.5,12.5-9.3a2.6,2.6,0,0,1,2-1.3c1.67,0,15.27-14.6,15.27-16.3,0-.7,1.29-2.6,2.77-4.2,3.33-3.5,3.42-5,.46-9.7a18.6,18.6,0,0,1-2.31-4.5c0-.4-2.78-4-6.29-7.9-9-10.2-15.73-15.3-29.33-22.1-2-1-3.78-2.1-4-2.6a2,2,0,0,0-1.76-.7,13,13,0,0,1-4.25-1.4c-5.92-2.9-15.27-4.5-27.66-4.9C77.1,52.67,71.18,52.67,71.08,52.87Zm24.51,13.8c6.67,3.4,15.18,12.6,18.14,19.5,1.75,4.3,2.31,7.2,2.31,13.5.09,8.6-.65,12.1-4,20-2.32,5.4-9.17,13.5-11.56,13.5-.75,0-1.39.4-1.39,1s-.75,1-1.67,1a4.11,4.11,0,0,0-2.68,1.1,8.58,8.58,0,0,1-4,1.4,10.62,10.62,0,0,0-4.07,1.3c-2.22,1.8-15.17-.3-21.37-3.5-10.08-5.2-17-15.1-19.52-27.8-1.2-6.2-1.2-7.6.19-13.4,1.39-6.1,1.39-6.6-.19-7.8-2.58-2-4.81-1.6-6.57,1.4-2.67,4.4-2.3,20.8.65,29.6,1.21,3.8,3.24,8,4.35,9.3a8.65,8.65,0,0,1,2.13,4c0,1.5,0,1.5-10.92-5.2a30.6,30.6,0,0,1-5.36-3.9,5.11,5.11,0,0,0-2.22-1.5c-.65,0-6.11-4.9-8.79-8-.46-.6-2.77-3.1-5-5.6l-4-4.4L12,99.87a8.73,8.73,0,0,0,2-3.5,1.11,1.11,0,0,1,1-1.2h0c1.3,0,3.61-2.5,3.61-3.9,0-.6.27-1.1.73-1.1s2.5-2,4.82-4.5a35.87,35.87,0,0,1,4.88-4.5,5.66,5.66,0,0,0,2.49-1.8,26.32,26.32,0,0,1,8.61-6c2.31-1.1,4.53-2.5,4.8-3.1s1.76-1.1,3.15-1.1a12.26,12.26,0,0,0,5.27-1.6c2-1.1,4.07-1.4,7.59-.9,3.14.4,5.55.2,7-.6C74.33,62.37,87.65,62.57,95.59,66.67Zm34.51,12.5c10.82,7.9,19.89,18,19.89,22.2,0,1.7-11.84,15.2-18.59,21.1-3.8,3.3-14.53,9.2-15.36,8.3-.28-.3.56-2.3,1.85-4.3,5.46-8.6,7.5-20.2,5.74-33-.65-4.9-1.86-10.2-2.69-11.8a39.17,39.17,0,0,1-1.84-4.5,26,26,0,0,0-2-3.8c-1.58-2.3-1.58-2.3,1.11-1.6,1.44.4,6.81,3.7,11.89,7.4Z"/><path class="cls-1" d="M77.3,80.19c-5.89.9-7.17,2.3-5.79,6.3a39,39,0,0,0,3.34,6.8c2.16,3.7,2.85,6.9,1.37,6.9a80.38,80.38,0,0,1-8-2.6c-4.91-1.8-7.46-2.3-8.15-1.6s-1,3.6-1,6.7c0,6.9,2.75,10.9,11.1,16.7,4.42,3.1,6.19,3.7,10.41,3.8,2.76,0,5.41-.5,5.7-1a3.43,3.43,0,0,1,2.56-1c2.55,0,9.63-6.7,10.41-9.9a11,11,0,0,1,1.58-3.9c.49-.7.68-4,.49-7.6C100.26,86.69,89.74,78.19,77.3,80.19Z"/><rect class="cls-2" x="-0.08" y="0.08" width="162.11" height="161.95" transform="translate(-0.08 162.03) rotate(-90)"/></g></g></svg>