<svg xmlns="http://www.w3.org/2000/svg" viewBox="0 0 161.74 137.77"><defs><style>.cls-1{fill:#44aadf;}</style></defs><title>sleep 4</title><g id="Слой_2" data-name="Слой 2"><g id="Слой_1-2" data-name="Слой 1"><path class="cls-1" d="M135.42.12,129,.38,128.49,4a13.75,13.75,0,0,0,.33,5.95c.75,2.16,1.25,2.34,5.26,2.34,6.18-.09,6.51-.09,6.51,1.11s-4.92,5.87-6,5.87a.7.7,0,0,0-.67.72v.06c0,.34-1.66,2.5-3.75,4.57-3.34,3.45-3.76,4.31-3.76,7.68,0,6.47-.33,6.39,17.28,6.47,9.19.09,16.11-.26,16.7-.69,1.09-.87,1.25-3.1.5-8.72l-.42-3.28-4.5.36a26.39,26.39,0,0,1-7-.18l-2.42-.52,3.12-3.43c1.76-1.9,4.26-4.4,5.6-5.61,4.92-4.31,6.18-6.73,6.09-11.73-.08-3.62-.42-4.66-1.5-4.74C154.2,0,140.68,0,135.42.12Z"/><path class="cls-1" d="M93.17,32.13c-.74.43-1,2.07-.82,4.48l.25,3.71,5.41.34a43.08,43.08,0,0,1,6.52.61c1.09.44-1.26,4.15-8.43,13.37-3.67,4.83-4,5.52-3.75,9.32l.25,4h14c15.44,0,16.28-.26,16.28-5.17,0-3.88-1.09-4.66-6.1-4.31-2.76.08-5.09-.18-6-.86-1.34-1-1.17-1.56,2.25-6.13,2.09-2.85,5.18-6.82,6.93-8.89,2.68-3.36,3.17-4.39,2.93-7.33l-.25-3.54-14.2-.17C100.69,31.44,93.76,31.7,93.17,32.13Z"/><path class="cls-1" d="M151.58,62.35c-1.29.23-6.32,5.86-12.57,13.83-6.23,8.21-11.42,14-13.26,14.77a28.56,28.56,0,0,0-6.07,4.11c-1.64,1.52-3.47,2.81-4,2.81a14.84,14.84,0,0,0-4.25,2.35,12.83,12.83,0,0,1-4.33,2.34,10.12,10.12,0,0,0-4,1.88,13.41,13.41,0,0,1-6.42,1.87,10.83,10.83,0,0,0-5.2,1.06c-1.91,1.41-23,1.41-24.37.12-.52-.59-2.25-1.06-3.89-1.18a12.25,12.25,0,0,1-4.6-1.52,10,10,0,0,0-3.56-1.52c-1.9-.24-4.15-1.41-10.57-5.4-1.92-1.17-4.95-3-6.68-4.1s-3.3-2.46-3.3-3a1,1,0,0,0-1-1c-.95,0-3.38-2.81-9.88-11.49-2.08-2.7-4.16-4.93-4.69-4.93S17.54,71.75,16.85,70c-1.91-5-3.73-6.57-8.06-6.69-5-.12-5.47,1.65-2.08,7.51C8.19,73.28,9.4,76,9.4,76.8s-2.34,4.57-5.19,8.32C-.48,91.34-.82,92,1.09,92A13.54,13.54,0,0,1,5.6,93.21c2.16,1.18,2.68.83,6.07-3.64,4.07-5.5,4.42-5.38,8.84,1.54,2.35,3.74,13.36,13.83,15,13.83s6.85,5,6.85,6.68c0,.82-.35,1.53-.78,1.53-.78,0-3.56,7.15-3.56,9.14,0,1.17,5.9,4.45,6.42,3.52.17-.12,1.3-2.81,2.6-6,1.82-4.09,3-5.5,4.43-5.5a3.22,3.22,0,0,1,2.69,1.28,1.56,1.56,0,0,0,2,.73l0,0c.87-.23,3.64.23,6.15,1.06A40.14,40.14,0,0,0,73.75,119c7.89,0,8.5.81,8.5,10.9,0,6.69.68,7.86,4.33,7.86,2,0,2.86-3.52,2.69-10.68-.09-6.09,1.3-8.56,5-8.91,6.59-.58,19-4.92,21.93-7.61l2.43-2.24,2.17,5.63c1.12,3,2.6,7.05,3.2,8.91,1.22,3.53,2.17,3.87,5.47,1.77,2.25-1.29,2.86-3.76,1.3-5a3.86,3.86,0,0,1-.87-2.45,23.1,23.1,0,0,0-2.17-6.34c-1.21-2.47-1.9-5.27-1.73-6.1.43-1.52,1.13-2.11,6.16-5.62,3-2.11,3.11-2.11,9-9.26,2.69-3.29,5.19-5.4,5.8-5s3,3.41,5.47,6.57c4.42,5.63,4.59,5.75,6.84,4.11,3.73-2.82,3.21-5.63-2.07-13.09l-4.86-6.8,2.6-4.1c2.95-4.46,3.47-8.06,1.3-9.15a6.66,6.66,0,0,0-1.9-.59A24.23,24.23,0,0,1,151.58,62.35Z"/></g></g></svg>