<svg xmlns="http://www.w3.org/2000/svg" viewBox="0 0 161.95 162.11"><defs><style>.cls-1{fill:none;}.cls-2{fill:#44aadf;}</style></defs><title>Sleep 2.5</title><g id="Слой_2" data-name="Слой 2"><g id="Слой_1-2" data-name="Слой 1"><rect class="cls-1" x="-0.08" y="0.08" width="162.11" height="161.95" transform="translate(-0.08 162.03) rotate(-90)"/><path class="cls-2" d="M10.59,87.65C8.09,88.75.09,99,.09,101.15c0,.6,1.32,3.1,2.84,5.6a27.09,27.09,0,0,1,2.84,5c0,1.6,9.84,12.2,13,13.9,4.91,2.6,10.68,7.3,10.68,8.7.1,2.1,4.65,4.9,6.73,4.2a5.15,5.15,0,0,1,4.16.9,8.7,8.7,0,0,0,3.88,1.6,9.87,9.87,0,0,1,4,1.4,36,36,0,0,0,13.72,4.2,30.15,30.15,0,0,1,6.9,1.5c4,1.5,25.47.3,34-2,9.84-2.7,18.36-6,21.2-8.3a7.81,7.81,0,0,1,3.51-1.8,1.2,1.2,0,0,0,1.31-1c0-.6.67-1,1.43-1,4.26,0,31.7-28.4,31.7-32.8,0-1.3-3.22-6.5-7.47-12.2l-1.9-2.5H82.8C34.06,86.55,12.3,86.85,10.59,87.65Zm138.35,9.2c3.13,3,1.9,5.3-8.7,16.3-7.86,8.1-12,11.6-17.22,14.3-3.7,2-6.91,3.6-7.1,3.6-1.14,0-.09-3.7,1.42-5.4,2.64-3,5.68-13.5,5.86-19.8.1-10.8.1-10.7,7.76-11C141.1,94.45,147.07,95.05,148.94,96.85ZM37.18,98.75c0,2.1.1,4.5,0,5.3-.28,5.5,4.25,19.7,6.72,20.8,1,.5.76,5.2-.29,5.2-2.55,0-19.4-11.4-23.66-16-3.78-3.9-8.52-11-8.52-12.6a8.1,8.1,0,0,1,2.09-4.1c1.89-2.1,2.75-2.3,12.78-2.3H37Zm22.8-1a19.44,19.44,0,0,1,0,5.8c-.28,2.2.38,4.3,2.47,7.7,6.24,10.3,16.17,14.1,26,9.8,2.84-1.2,6-3.1,7-4.3,2.64-3.1,4.91-9.5,5.29-15.3.29-2.7.48-5.2.48-5.7s3-.7,6.63-.7c8.89,0,9.27.6,7.66,11.6-.66,4.7-1.61,8.7-2,9a19,19,0,0,0-2.56,4.7c-2.36,5.5-5.39,9-10.12,11.7-2.09,1.2-5.2,3-7,4.1-4.17,2.6-17.22,2.9-24.61.5-7-2.2-17-10.8-19.88-17.1-3.21-6.9-4-9.8-4.16-15.4-.28-7.8,1-9.1,8.9-9.1,5.17,0,5.46.1,6,2.7Z"/></g></g></svg>