<svg xmlns="http://www.w3.org/2000/svg" viewBox="0 0 50 50"><defs><style>.cls-1{fill:#44aadf;}</style></defs><title>emotion 4</title><g id="Слой_2" data-name="Слой 2"><g id="Слой_1-2" data-name="Слой 1"><g id="Слой_2-2" data-name="Слой 2"><g id="Слой_1-2-2" data-name="Слой 1-2"><g id="emotion_4" data-name="emotion 4"><path class="cls-1" d="M24.29.1a4.23,4.23,0,0,1-1.72.31,6,6,0,0,0-2.34.52,2.34,2.34,0,0,1-1.44.32,2.3,2.3,0,0,0-1.48.32c-.55.28-1.09.44-1.21.32s-.7.1-1.29.5A3.29,3.29,0,0,1,13.25,3c-.27-.07-.5,0-.5.2s-.55.56-1.17.84c-1.76.8-8,7.24-8.34,8.6A9.73,9.73,0,0,1,2.3,14.8,12.27,12.27,0,0,0,.66,19.34c0,.4-.19.72-.43.72s-.31.16,0,.55.32.68.12.76c-.47.32-.27,8.16.27,8.8A1.58,1.58,0,0,1,1,31a4.11,4.11,0,0,0,.39,1.51,3,3,0,0,1,.28,1.36c-.08.12.15.63.54,1.19A3.44,3.44,0,0,1,3,36.73c0,1.55,4.13,5.77,8.58,8.84a29.81,29.81,0,0,0,4.75,2.9,2.29,2.29,0,0,1,1.37.36c2.77,1.43,13.18,1.59,14.77.24a.86.86,0,0,1,.94-.16c.2.12.39,0,.39-.16s.31-.44.7-.44a3.07,3.07,0,0,0,1.56-.63c.47-.32,1-.48,1.25-.36s.39,0,.39-.16.27-.44.58-.44.59-.16.59-.32a4.61,4.61,0,0,1,1.56-1.27c.86-.52,1.56-1.19,1.56-1.43s.39-.64.89-.92a12.26,12.26,0,0,0,2.42-2.7c.86-1.2,1.76-2.43,2-2.67a1.46,1.46,0,0,0,.39-.84A10,10,0,0,1,48.19,35c1.17-2.7,1.32-3.22,1.24-3.7a1.46,1.46,0,0,1,.28-1c.5-.6.31-8.72-.24-10.79a6.32,6.32,0,0,0-.82-1.95,2.21,2.21,0,0,1-.43-1.31,1.81,1.81,0,0,0-.54-1.32,10.39,10.39,0,0,1-1.37-2.14c-.93-1.95-2.49-3.75-5.69-6.45-1.28-1.12-2.41-2.11-2.53-2.23a6.16,6.16,0,0,0-1.64-.72,4.49,4.49,0,0,1-1.68-.87,1.49,1.49,0,0,0-1.09-.36A3.25,3.25,0,0,1,32,1.55c-.47-.32-.9-.51-1-.4A8.41,8.41,0,0,1,28.58.76,8.9,8.9,0,0,0,25.93.4a.85.85,0,0,1-.86-.2A.61.61,0,0,0,24.29.1ZM29.51,3c.31.12,1.6.56,2.81.92a15.76,15.76,0,0,1,3.51,1.51c.7.48,1.79,1.15,2.38,1.47,1.71.88,5.3,4.58,5.88,6.05a9.94,9.94,0,0,0,1.37,2.19,3.16,3.16,0,0,1,.82,1.87,1.71,1.71,0,0,0,.39,1.23,1.62,1.62,0,0,1,.39,1.16,2.13,2.13,0,0,0,.42,1.31c.55.56.74,8.12.24,8.8a.74.74,0,0,0-.16.75c.12.16.08.48-.15.8s-.32.51-.16.51.08.28-.19.6-.39.72-.28.84-.19.91-.7,1.71a6.15,6.15,0,0,0-1,2.11c0,.87-7.29,8.39-7.8,8.08-.2-.12-1.09.24-2,.79s-1.68,1-1.79.84-.7,0-1.29.36c-1.21.63-4.29,1.07-7,1-1,0-2.22,0-2.8,0a1.82,1.82,0,0,1-1.29-.4.57.57,0,0,0-.7-.16,2.55,2.55,0,0,1-1.6-.39,2.91,2.91,0,0,0-1.6-.4.58.58,0,0,1-.74-.2,6.78,6.78,0,0,0-1.91-1.23A25.32,25.32,0,0,1,7.1,39.26a11,11,0,0,1-1.76-2.55A24.35,24.35,0,0,0,4,33.41C2.38,29.9,1.91,26.8,2.34,21.82a13.84,13.84,0,0,1,1-4.05,8,8,0,0,0,.82-2.19,1.55,1.55,0,0,1,.55-1A3.9,3.9,0,0,0,5.54,13a13.69,13.69,0,0,1,2.92-3.7A23.86,23.86,0,0,1,19,3.18C21.17,2.72,28.42,2.6,29.51,3Z"/><path class="cls-1" d="M12.71,19.24c-1.76,1.59-2.3,3.58-1.25,4.46.51.43.7.39,1.33-.4a3.2,3.2,0,0,0,.74-1.63c0-.76.86-1.68,1.4-1.56A1.91,1.91,0,0,0,16,19.87a1.33,1.33,0,0,1,1.25.2,1,1,0,0,0,.94.24c.43-.28,1.32,1.12.93,1.51-.11.12.24.72.82,1.32.94.95,1.09,1,1.64.44s.54-.72,0-1.6c-.35-.55-.51-1.11-.35-1.23.23-.28-1.91-2.63-2.5-2.71-.19,0-1.24-.12-2.38-.16C14.42,17.81,14.11,17.91,12.71,19.24Z"/><path class="cls-1" d="M32.05,18.12a4.92,4.92,0,0,0-3.47,4.14,3.73,3.73,0,0,0,.23,1.59c.47.48,1.36-.31,2-1.75,1.28-3,6.12-2.66,6.12.36,0,1.59,1.21,2.27,2.1,1.24.47-.52.55-.84.24-1a.71.71,0,0,1-.27-.77c.11-.28-.47-1.28-1.29-2.19A5,5,0,0,0,32.05,18.12Z"/><path class="cls-1" d="M14.31,31c-.59.71.82,2.35,3,3.42a19.66,19.66,0,0,1,2.38,1.31c1.09.88,5.53,1.36,7.64.8a6.65,6.65,0,0,1,2.22-.32,1.77,1.77,0,0,0,1.17-.4A12.66,12.66,0,0,1,32.55,35c1.17-.36,3.59-2.71,3.59-3.54,0-.48-.31-.64-1.17-.56-.62,0-1.17.24-1.17.44,0,.47-1,1.51-1.44,1.39a4.59,4.59,0,0,0-1.87.87c-1.37.88-2,1-5.27,1s-3.86-.08-5.26-1.07a7.68,7.68,0,0,0-1.87-1.08A3.16,3.16,0,0,1,17,31.65C15.94,30.64,14.81,30.38,14.31,31Z"/></g></g></g></g></g></svg>