<svg xmlns="http://www.w3.org/2000/svg" viewBox="0 0 50 50"><defs><style>.cls-1{fill:#44aadf;}</style></defs><title>emotion 5</title><g id="Слой_2" data-name="Слой 2"><g id="Слой_1-2" data-name="Слой 1"><g id="Слой_2-2" data-name="Слой 2"><g id="Слой_1-2-2" data-name="Слой 1-2"><g id="emotion_5" data-name="emotion 5"><path class="cls-1" d="M20.91.33A1.92,1.92,0,0,1,19.6.45a.91.91,0,0,0-.88.17,3.53,3.53,0,0,1-1.46.56,5.94,5.94,0,0,0-1.87.65A3.42,3.42,0,0,1,14,2.31a4.93,4.93,0,0,0-1.78,1,7.56,7.56,0,0,1-1.63,1.05c-1.15.12-6.07,4.81-6.07,5.77a4.88,4.88,0,0,1-1.19,1.94A8.29,8.29,0,0,0,1.74,15,7.7,7.7,0,0,1,1,17.09c-.2.24-.24.56-.12.69s.08.48-.08.76a4.16,4.16,0,0,0-.47,1.13,48.59,48.59,0,0,0-.16,8.24,4.59,4.59,0,0,1,.32,1.41,8.21,8.21,0,0,0,1,3.48A11.38,11.38,0,0,1,2.3,35,6.19,6.19,0,0,0,3.37,37c.48.49.75,1,.64,1.26s.08.68.47,1.09,1.15,1.37,1.79,2.1c1.78,2.22,9.32,7.3,9.92,6.7.11-.12.75.16,1.38.64a2.93,2.93,0,0,0,1.75.73,1.75,1.75,0,0,1,1.23.16c1,.57,10.27.45,10.63-.12a.57.57,0,0,1,.72-.2c.23.16.43.08.43-.16s.16-.33.4-.2A1.61,1.61,0,0,0,34,48.58a3.35,3.35,0,0,1,1.63-.64,6.72,6.72,0,0,0,3-1.66,3.66,3.66,0,0,1,1.07-.52c1.31-.45,6.47-5.94,6.75-7.23.11-.61.35-1.09.55-1.09s.64-.85,1-2A11.37,11.37,0,0,1,49.15,33c.48-.65.52-.89.8-6.87.12-2.78,0-4.52-.28-5a5.85,5.85,0,0,1-.48-2.1A19.1,19.1,0,0,0,47,13.21c-.2-.32-.47-.89-.63-1.21a6.67,6.67,0,0,0-1.19-1.45,3.49,3.49,0,0,1-.92-1.17c0-.93-7.49-6.66-8.72-6.66A7.23,7.23,0,0,1,33.84,2C31.3.45,23.05-.56,20.91.33Zm6.5,2.09a1.83,1.83,0,0,1,1.23.25,8.78,8.78,0,0,0,2.42.56,7.13,7.13,0,0,1,2.54.85A3.11,3.11,0,0,0,35,4.73c1.59,0,9.13,7.1,10,9.44a18,18,0,0,0,1.19,2.31c.39.56.63,1.17.47,1.29s.08.72.44,1.29a2.06,2.06,0,0,1,.44,1.45.81.81,0,0,0,.12.89c.51.65.47,7.67,0,9.33a19.59,19.59,0,0,1-.92,2.34,4.47,4.47,0,0,0-.55,1.49,16.28,16.28,0,0,1-1.59,3.07,18.81,18.81,0,0,0-1.59,3,.39.39,0,0,1-.39.4,3.5,3.5,0,0,0-1.43,1,3.29,3.29,0,0,1-1.59,1,1,1,0,0,0-.79.61,1,1,0,0,1-.79.6,3.73,3.73,0,0,0-1.59,1,3.56,3.56,0,0,1-2,1,2.33,2.33,0,0,0-1.42.53,3.9,3.9,0,0,1-2,.48,6.66,6.66,0,0,0-2.38.37c-1.39.56-2.62.56-5.87,0-4-.73-6.43-1.42-7.14-1.94a14.1,14.1,0,0,0-2-1.17,19,19,0,0,1-6.31-5c-.52-.81-1.27-1.94-1.63-2.5-1-1.54-2-3.64-1.78-3.64s0-.4-.36-.89A3.52,3.52,0,0,1,3,30.73a1.8,1.8,0,0,0-.27-1.09c-.84-.89-.68-9,.23-10.7a2.53,2.53,0,0,0,.32-1.5c-.12-.28.12-.88.56-1.37a3.1,3.1,0,0,0,.71-1.13c-.16-.6.6-2,2.18-4,.59-.74,1.21-1.46,1.87-2.14a15.78,15.78,0,0,0,1.78-1.49,6.11,6.11,0,0,1,2.07-1.41.9.9,0,0,0,.71-.61c.16-.32.44-.6.71-.6a7.16,7.16,0,0,0,2-.85,3.69,3.69,0,0,1,2-.61.71.71,0,0,0,.76-.08c.23-.24.95-.36,3.33-.64a6.09,6.09,0,0,0,1.51-.33,4.06,4.06,0,0,1,1.82.08A5.77,5.77,0,0,0,27.41,2.42Z"/><path class="cls-1" d="M15.31,9.62c-.55.6-.67,1.05-.43,1.37.51.61-.68,2.34-1.43,2.06-.91-.36-1.63.16-1.63,1.21s.72,1.21,2.5,1c.56-.08,1,1.66.75,2.46a1.75,1.75,0,0,0,.36,1.34c.52.72.56.72,1.23,0,.4-.37.6-.81.44-.93s0-.53.24-.81c.35-.44.35-.68-.12-1s-.48-.4,0-.76a2,2,0,0,1,1.42-.29A1.54,1.54,0,0,0,20,14.91c.44-.45.44-.65,0-1.13a3.31,3.31,0,0,0-1.42-.69c-1.19-.16-1.31-.36-1.39-2.06C17.1,9,16.38,8.48,15.31,9.62Z"/><path class="cls-1" d="M32.81,9.26a4.64,4.64,0,0,0-.24,2.22c.12,1.73.12,1.73-1.19,1.73-.87,0-1.43.25-1.59.69-.35.89.36,1.53,1.67,1.53.95,0,1.07.16,1.39,2.1.51,3.31,2.34,2.55,2.1-.84-.12-1.42-.08-1.5.79-1.3a1.64,1.64,0,0,0,1.75-.64c.87-1,.52-1.54-1.07-1.54-1,0-1.71-1.05-1.71-2.5,0-.93-.63-1.94-1.23-1.94C33.32,8.77,33.05,9,32.81,9.26Z"/><path class="cls-1" d="M8.77,24.07c-.36.61.16,4.81.71,5.9a6,6,0,0,1,.64,1.52A14.6,14.6,0,0,0,12,34.44a12.34,12.34,0,0,0,4,3.84,6.69,6.69,0,0,1,2.06,1.61c0,.21.36.37.83.37a3.94,3.94,0,0,1,1.51.36,13.73,13.73,0,0,0,3.85.57,16.06,16.06,0,0,0,10.87-3.07c3-2.35,3.41-2.79,3.73-3.84.16-.48.48-.89.67-.89s.36-.28.36-.6.2-.61.44-.61.35-.24.23-.56,0-.65.16-.73a2.44,2.44,0,0,0,.56-1.53,28.63,28.63,0,0,1,.4-3.07c.27-1.54.19-1.74-.64-2C40,23.91,9,23.75,8.77,24.07Zm29.63,2c1.07,0,1.11.12.88,1.54-.13.72-.28,1.43-.48,2.14a6.17,6.17,0,0,0-.48,1.69c-.08.69-3,4-3.53,4a10.5,10.5,0,0,1-2.46-2,8,8,0,0,0-2.73-2,1.69,1.69,0,0,1-1.08-.4c-.59-.61-5.15-.77-6-.2a8.23,8.23,0,0,1-1.78.76,7.94,7.94,0,0,0-2.9,2.18L16,35.62l-1.87-2.14c-1.7-1.94-2.3-3.23-3-6.54l-.24-1,13.21,0C31.34,26,37.81,26.05,38.4,26.09ZM26.78,32.67a4.44,4.44,0,0,1,1.39.57,2.7,2.7,0,0,0,1.27.56,4.2,4.2,0,0,1,1.7,1.09c1.35,1.22,1.63,3,.48,3a3.11,3.11,0,0,0-1.51.57c-.91.64-7.81.8-8.85.2a12.09,12.09,0,0,0-1.7-.73c-.84-.32-1-.6-.84-1.33.28-1,1.63-2.75,2.27-2.75a5.6,5.6,0,0,0,1.58-.6c.6-.32,1.27-.49,1.47-.36s.36,0,.36-.29.32-.36.91-.16A8.12,8.12,0,0,0,26.78,32.67Z"/></g></g></g></g></g></svg>