<svg xmlns="http://www.w3.org/2000/svg" viewBox="0 0 50 50"><defs><style>.cls-1{fill:#44aadf;}</style></defs><title>emotion 3</title><g id="Слой_2" data-name="Слой 2"><g id="Слой_1-2" data-name="Слой 1"><g id="Слой_2-2" data-name="Слой 2"><g id="Слой_1-2-2" data-name="Слой 1-2"><g id="emotion_3" data-name="emotion 3"><path class="cls-1" d="M19.57.65a15.09,15.09,0,0,0-4.32,1.43,2.64,2.64,0,0,1-1.53.68c-.85,0-4.48,2.86-4.48,3.49a.34.34,0,0,1-.34.32c-.39,0-2.91,2.54-4.75,4.77a7.89,7.89,0,0,0-1.3,2.34,5.94,5.94,0,0,1-.93,2A7.35,7.35,0,0,0,1,18.41a9.85,9.85,0,0,1-.46,2.22,33,33,0,0,0-.5,5.6,24.56,24.56,0,0,0,.42,3,1.15,1.15,0,0,1,0,.52,14.08,14.08,0,0,0,1.68,5.05,2.19,2.19,0,0,1,.58,1.43c0,.51.19.95.38.95a.36.36,0,0,1,.38.33v0c0,.75,2.76,3.81,6,6.63C11.6,46,17,49.2,17.38,48.8c.15-.12.49,0,.8.24,1.11,1,8.34,1.31,11.29.55a7.71,7.71,0,0,1,2.25-.35c.12.07.61-.16,1.15-.6s1.11-.64,1.34-.4.61.08,1.07-.4a2.49,2.49,0,0,1,1.3-.75c.31,0,.58-.2.58-.4s.34-.39.72-.39c1,0,8.42-7.43,8.72-8.7a7.81,7.81,0,0,1,1.15-2.31c.54-.71.84-1.47.69-1.71a1,1,0,0,1,.23-1A6.38,6.38,0,0,0,49.43,29a2.17,2.17,0,0,1,.39-1.24c.27-.31.23-.55,0-.75s-.27-.44-.08-.72.35-2.86,0-2.86a6.48,6.48,0,0,1-.11-1.59,7.23,7.23,0,0,0-.5-2.38,8.58,8.58,0,0,1-.65-2.38A9.28,9.28,0,0,0,47.25,14a7.56,7.56,0,0,1-.91-1.91.44.44,0,0,0-.42-.4c-.2,0-.31-.15-.16-.35.38-.68-5.39-6.28-7.73-7.51-1.22-.64-2.56-1.31-3-1.55A11.14,11.14,0,0,0,31.34.93,3.92,3.92,0,0,1,30,.57C28-.22,23.39-.18,19.57.65Zm9.79,2.07a2.45,2.45,0,0,0,1.3.28,10.62,10.62,0,0,1,4.59,1.78c.54.32,1.53.88,2.22,1.19s1.23.8,1.23,1a.47.47,0,0,0,.49.39c.62,0,4.1,3.54,4.1,4.18a9,9,0,0,0,1.34,2.14A7.1,7.1,0,0,1,46,16.06a3.29,3.29,0,0,0,.61,1.55c.3.48.46,1.08.34,1.28a1,1,0,0,0,0,.87,8.76,8.76,0,0,1,.65,3.3A3.8,3.8,0,0,0,48,24.33.47.47,0,0,1,48,25a5.76,5.76,0,0,0-.38,2.47,6.92,6.92,0,0,1-.46,2.74,1.32,1.32,0,0,0-.34.83,4.33,4.33,0,0,1-.35,1.47c-.26.64-.38,1.31-.23,1.51s0,.36-.15.36-1.8,2.78-1.68,3.26c0,.19-.12.31-.31.31a.36.36,0,0,0-.38.34v0c0,.56-5.05,5.6-5.36,5.4-.15-.12-.38.08-.53.4a1.14,1.14,0,0,1-1.07.6,3.31,3.31,0,0,0-1.72.83,3.74,3.74,0,0,1-2.08.94,3.23,3.23,0,0,0-1.45.44,3.09,3.09,0,0,1-1.57.47,10,10,0,0,0-2.87.48,9.62,9.62,0,0,1-3.06,0,12.93,12.93,0,0,0-3.25-.6,8.5,8.5,0,0,1-1.92-.51,2.13,2.13,0,0,0-1.18-.28,12.07,12.07,0,0,1-3.06-1.27C10.84,43.34,5.52,37.9,4.49,35c-.39-1.11-1-2.58-1.27-3.3a3.67,3.67,0,0,1-.34-1.95,2,2,0,0,0-.35-1.43c-.38-.55-.42-1-.15-1.31s.23-.59.08-.67c-.58-.36-.19-4.17.65-6.95,1.11-3.7,2.06-6,2.41-6,.15,0,.27-.24.27-.56,0-.63,3.4-4.17,6.88-7.11.46-.4.92-.63,1-.52S14.39,5,15,4.57a4.48,4.48,0,0,1,1.49-.8.42.42,0,0,0,.42-.43c0-.24.23-.36.54-.24a5.76,5.76,0,0,0,2.37-.28C21.75,2.32,28.9,2.2,29.36,2.72Z"/><path class="cls-1" d="M15.69,17.57a3.15,3.15,0,0,0-2.48,2.71c-.16,1.47,1.72,3.37,3.36,3.37,1.8,0,2.57-.71,2.83-2.62.2-1.55.12-1.75-1.1-2.7a9.38,9.38,0,0,0-1.46-1A8.67,8.67,0,0,1,15.69,17.57ZM17,20.67c-.26.68-.76.8-1.07.24-.27-.4.12-.83.77-.83.31,0,.43.24.31.58Z"/><path class="cls-1" d="M32.31,17.88c-.69.31-1.26.83-1.26,1.19s-.16.59-.31.59c-.65,0-.19,2.43.54,3,1.33,1.12,2,1.39,2.25,1a.65.65,0,0,1,.77-.16c.88.35,2.06-.6,2.41-1.91s-.19-3.1-1-3.1a.64.64,0,0,1-.57-.36C35,17.46,33.49,17.34,32.31,17.88Zm2.1,2.9c.08.27-.23.47-.65.47-.8,0-1-.43-.53-.95.34-.34,1-.06,1.18.49Z"/><path class="cls-1" d="M14.71,30.52a.53.53,0,0,1-.69.12c-.3-.12-.57.2-.69.76l-.15,1h7.23a68.94,68.94,0,0,1,7.58.24.32.32,0,0,0,.46-.06l0-.06a8.14,8.14,0,0,1,2.95-.08,9.52,9.52,0,0,0,2.91,0c.07-.12.45-.2.84-.12,1,.24,1.76-.43,1.45-1.23a.94.94,0,0,0-1.07-.55,2.37,2.37,0,0,1-1.34-.16.92.92,0,0,0-1,0,5.86,5.86,0,0,1-2.67.16,5.4,5.4,0,0,0-2.87.11c-.08.16-.5.12-.88-.11s-.81-.28-1,0-.46.27-.95,0-.81-.28-.88-.12a3.86,3.86,0,0,1-2.8,0,1,1,0,0,0-.92.12c-.38.19-.76.27-.91.11C19.07,30.17,14.93,30.17,14.71,30.52Z"/></g></g></g></g></g></svg>