<svg xmlns="http://www.w3.org/2000/svg" viewBox="0 0 50 57.88"><defs><style>.cls-1{fill:#44aadf;}</style></defs><title>Health 5</title><g id="Слой_2" data-name="Слой 2"><g id="Слой_1-2" data-name="Слой 1"><g id="Слой_2-2" data-name="Слой 2"><g id="Слой_1-2-2" data-name="Слой 1-2"><path class="cls-1" d="M29.57.47a5.87,5.87,0,0,1-1.95.9A5,5,0,0,0,25.43,2.5a4,4,0,0,1-1.8,1,3.06,3.06,0,0,0-1.52.74c-.7.82-1.56,3.63-1.25,4a9.27,9.27,0,0,1,1,2.11c.78,1.92,4.21,5.39,6.44,6.49,1.17.58,1.84.7,4.34.9,1.48.11,2,4,1,7-1.17,3.32-1.95,3.9-3.2,2.26a4.22,4.22,0,0,0-1.68-1.21,3.32,3.32,0,0,1-1.21-.62A2.81,2.81,0,0,0,26,24.65a11.92,11.92,0,0,1-1.33-.23c0-.32-2.7-.36-3.05-.08a5.79,5.79,0,0,1-1.72.66,7.32,7.32,0,0,0-2.93,2c-1.72,1.72-1.72,1.76-2.85,1.18s-4-.79-6.52-.4c-2.39.4-7.5,5.59-6.76,6.8a.78.78,0,0,1-.16.9c-.54.66-.86,5.63-.47,7.38.24,1,1.25,2.46,3.17,4.57,2.5,2.74,3.16,3.25,5.19,3.95a15.65,15.65,0,0,0,3.64.78c1,0,1.44.27,2.11,1.37,1.05,1.68,3.12,3.32,4.18,3.32a1.76,1.76,0,0,1,1.25.55c.54.66,8.79.66,10,0a5,5,0,0,1,1.76-.55c1.05-.16,2.14-1,4.17-3.13a9.07,9.07,0,0,1,6.06-2.53,7.77,7.77,0,0,0,2.73-.94,5.36,5.36,0,0,1,1.88-.78c.86,0,2.3-2.46,3-5.2s.93-11.91.39-14.34a30.58,30.58,0,0,1-.47-3.71,18,18,0,0,0-.78-3.83,3.34,3.34,0,0,1-.39-1.83c.11-.2-.08-.82-.43-1.37a6.33,6.33,0,0,1-.78-2.26c0-.67-.28-1.29-.51-1.37s-.43-.55-.43-1a3.46,3.46,0,0,0-.63-1.72,1.67,1.67,0,0,1-.35-1.25A2,2,0,0,0,44.51,10a5.26,5.26,0,0,1-.74-1.33,5.46,5.46,0,0,0-2.15-2.26A11.24,11.24,0,0,1,39,4.34C34.22-.16,34.75.16,31.23,0A2.61,2.61,0,0,0,29.57.47Zm3.48,1.72A12.64,12.64,0,0,1,36.8,4.77C38.09,6,39.73,7.5,40.55,8.2A4.84,4.84,0,0,1,42,9.88a1.67,1.67,0,0,0,.59.86,2.33,2.33,0,0,1,.58,1.57,2.37,2.37,0,0,0,.59,1.56,2,2,0,0,1,.59,1.33A3.41,3.41,0,0,0,45,16.91c.31.47.51,1,.39,1.22a2.28,2.28,0,0,0,.31,1.48c2,3.91,3.05,17.54,1.76,23.17-.35,1.6-.78,3.2-.9,3.51-.5,1.21-3.78,2.74-6.4,2.93a3.41,3.41,0,0,0-1.53.35,2.91,2.91,0,0,1-1.36.24,2.78,2.78,0,0,0-2,.93c-.46.51-1.44,1.53-2.1,2.27a6.41,6.41,0,0,1-3.52,1.91c-4,1-12.23.24-12.23-1.09,0-.19-.47-.55-1.09-.78a5,5,0,0,1-1.8-1.72c-.58-1-.9-1.17-1.68-.94s-2.38-.11-4.88-1a16.75,16.75,0,0,1-3.6-3.28L1.8,43.17l.11-2.89c.16-3.36,1.41-6.88,3-8.48C6,30.74,7.19,30.08,7.77,30.24a1.26,1.26,0,0,0,.82-.36c.32-.27,1-.31,2.07,0a5,5,0,0,0,1.8.15c.12-.12,1,.35,2,1l1.76,1.17L17,30.47a5.14,5.14,0,0,1,1.09-1.76,2.89,2.89,0,0,0,1.06-.7,6.68,6.68,0,0,1,4.53-1.45c.51.16,1.21.28,1.52.36a9.87,9.87,0,0,1,2,.78c1.4.7,2.11,1.4,4.14,4.06L32.34,33l.51-1a4.48,4.48,0,0,0,.55-1.6,4.44,4.44,0,0,1,.82-1.76c.47-.62.7-1.25.59-1.36s0-.47.19-.78.31-.51.16-.51,0-.28.23-.67.55-1.79.55-4.41c0-3.2-.12-3.95-.74-4.65s-.92-.7-1.18-.47a.81.81,0,0,1-1,0,1.71,1.71,0,0,0-1-.16c-.55.24-3.71-1.05-3.71-1.48,0-.19-.23-.31-.51-.31-.86,0-3.59-2.89-4.33-4.61s-.75-1.68,0-2.7a14.15,14.15,0,0,1,3.67-2.5,31,31,0,0,0,3.32-1.87C31,1.68,31.29,1.68,33.05,2.19Z"/></g></g></g></g></svg>