<svg xmlns="http://www.w3.org/2000/svg" viewBox="0 0 50 50.67"><defs><style>.cls-1{fill:#44aadf;}</style></defs><title>Health 2</title><g id="Слой_2" data-name="Слой 2"><g id="Слой_1-2" data-name="Слой 1"><g id="Слой_1-2-2" data-name="Слой 1-2"><path class="cls-1" d="M32,.37c0,.19-.26.38-.6.38s-.45.18-.3.41,0,.37-.67.22a1.24,1.24,0,0,0-1.42.3,6.79,6.79,0,0,1-3.25,1.68,2.6,2.6,0,0,0-1.24.75c-.41.41-.74.64-.74.45,0-.41-1,1.53-1.24,2.5a6.63,6.63,0,0,0,.56,2.88c.6,1.57,1.35,2.55,3.52,4.45,2.5,2.24,2.95,2.51,5.46,3.07,1.49.3,3.21.6,3.81.63.82,0,1.27.34,1.79,1.31s.6,1.35.3,1.53-.33.53-.11,1c.71,1.45.19,8.63-.86,12.37-.67,2.32-.75,2.36-5.76,1.83a27.65,27.65,0,0,1-4.86-.86,9.6,9.6,0,0,0-1.68-.33,16.21,16.21,0,0,1-2.06-.38l-1.87-.41A27.29,27.29,0,0,1,14.15,31c-1.64-1.12-5.42-2.58-6.73-2.58-.93,0-5,2.92-5,3.55a2.14,2.14,0,0,1-.74,1.13,2.33,2.33,0,0,0-.75,1.45A3,3,0,0,1,.4,36.08,6.37,6.37,0,0,0,0,39.37l.11,2.54L2.6,44.6c3,3.18,5.65,4.67,9,5a8.06,8.06,0,0,1,2.62.52c.19.19,5.46.34,11.59.34s12.23.11,13.46.19a11.43,11.43,0,0,0,7.1-1.76c1.87-1.12,3.18-2.95,3.18-4.41a1.18,1.18,0,0,1,.3-.9c.15-.07.23-.82.15-1.61s-.19-4.11-.26-7.4-.26-8.26-.34-11C49.26,20,49,18,48.59,16.82a13.1,13.1,0,0,1-.75-2.62,22.32,22.32,0,0,0-1-3.29,8.11,8.11,0,0,0-3.1-4.29c-1.24-1.09-3-2.66-3.85-3.56A11.68,11.68,0,0,0,36.7.75C35.05,0,32-.27,32,.37Zm3,1.87c.9.26,2.47,1.42,4.49,3.37a29.26,29.26,0,0,0,3.4,3c.52,0,2.17,2.76,1.79,3s-.11.63.38,1.19a3.82,3.82,0,0,1,.74,1.76,17,17,0,0,0,.79,3.14c.75,2.13.82,3.25.93,13.09.08,5.9.23,10.91.34,11.1a.8.8,0,0,1,0,.82,5.1,5.1,0,0,0-.37,1.54,3.34,3.34,0,0,1-1.16,2.09c-2.28,2.06-2.36,2.06-10.21,1.94-4-.07-10.32-.15-14-.18a54.72,54.72,0,0,1-7.18-.34c-.29-.19-.48-.15-.48.08s-.79.41-1.8.41a4.41,4.41,0,0,1-3.1-1,27.9,27.9,0,0,0-2.95-1.83,14.2,14.2,0,0,1-3.22-2.5c-1.42-1.46-1.57-1.8-1.49-3.29.11-2,.56-3.74,1-3.74.19,0,.22-.34.11-.75s0-.75.23-.75a.46.46,0,0,0,.41-.48c0-.3.71-1.12,1.53-1.87,1.23-1.05,1.87-1.35,3-1.31.82,0,1.46.11,1.46.26s.56.45,1.23.71a14.61,14.61,0,0,1,3.93,2.21,3.55,3.55,0,0,0,1.49.71,7.84,7.84,0,0,1,1.95.9A12.1,12.1,0,0,0,22,36.6a33.69,33.69,0,0,1,4,.82,11,11,0,0,0,2.61.53,11.56,11.56,0,0,1,1.65.18s1.49.11,3.29.15c3.21.08,3.33,0,4.22-1a3.83,3.83,0,0,0,.9-1.87,2.94,2.94,0,0,1,.56-1.53,4.52,4.52,0,0,0,.56-2.24,13.53,13.53,0,0,1,.34-2.84,4.93,4.93,0,0,0,0-2.06,1.61,1.61,0,0,1-.08-1.08,4.31,4.31,0,0,0,0-2.92c-.19-.37-.15-.67.15-.75s.3-.34,0-.93-.3-.9,0-1.05.26-.41,0-.79a1.18,1.18,0,0,1-.23-1c.12-.26-.26-.94-.78-1.46a2.79,2.79,0,0,0-2.51-.86,4,4,0,0,1-1.94-.26.8.8,0,0,0-1,.07c-.3.26-.64.3-.75.12a2.63,2.63,0,0,0-1.42-.6c-1.72-.34-6-4.45-6.62-6.32A3.81,3.81,0,0,1,24.7,6.8a2.69,2.69,0,0,0,.22-.93c0-.15.34-.26.82-.26s1-.12,1.05-.3a7.49,7.49,0,0,1,3.14-1.57c.3,0,.52-.19.52-.38s.3-.37.68-.37a2.75,2.75,0,0,0,1.34-.56C33.33,1.75,33.27,1.75,35,2.24Z"/></g></g></g></svg>