<svg xmlns="http://www.w3.org/2000/svg" viewBox="0 0 50 54.1"><defs><style>.cls-1{fill:#44aadf;}</style></defs><title>Health 3</title><g id="Слой_2" data-name="Слой 2"><g id="Слой_1-2" data-name="Слой 1"><g id="Слой_2-2" data-name="Слой 2"><g id="Слой_1-2-2" data-name="Слой 1-2"><path class="cls-1" d="M32.49.09a13.82,13.82,0,0,0-2,.69C29.91,1.1,28.73,1.6,28,2c-2.35,1-4.66,2.85-5.44,4.38-.51,1-.55,2.74-.08,3.05a2.9,2.9,0,0,1,.63,1.49c.54,2.39,7.43,8,8.84,7.13.2-.16.63,0,.94.19a1.23,1.23,0,0,0,1.18.24c1.52-.59,2.38,1.41,1.37,3.28-.28.47-.28.83,0,1s0,.71-.43,1.37-.71,1.29-.55,1.57a.54.54,0,0,1-.12.74A5.67,5.67,0,0,0,33.66,29c-.31,2.85-.66,3.32-1.84,2.31-2.74-2.39-4-2.94-7.35-3.06a13.86,13.86,0,0,0-4.08.35,9.82,9.82,0,0,1-1.95.75,7.49,7.49,0,0,0-2.51,1.56l-1.37,1.33L13,31.08a12.77,12.77,0,0,0-4-1.57c-2.15-.43-2.54-.43-3.71.2-1.41.74-3.84,3.68-3.84,4.58A3.68,3.68,0,0,1,.7,35.82c-.54.78-.7,1.8-.7,5v4l2.74,2.5a29.85,29.85,0,0,0,5,3.72c2,1.06,2.58,1.18,5.29,1.06,2.23-.08,3.36.08,4.34.59a6.68,6.68,0,0,0,2.23.66c.51,0,1,.16,1.14.39.31.51,7.2.28,8.22-.27,2.5-1.41,3.6-1.61,8.8-1.57,4.23,0,5.56-.08,6.62-.62a7.12,7.12,0,0,1,1.84-.67c.74,0,3.21-2.47,3-3a1.3,1.3,0,0,1,.32-1.1c.51-.62.58-3.6.19-9.35-.15-2-.35-6.78-.43-10.77a40.28,40.28,0,0,0-.59-7.59,1.74,1.74,0,0,1-.39-1.14,3.73,3.73,0,0,0-.47-1.56,5.71,5.71,0,0,1-.54-1.65c-.32-2.82-3-8-4.11-8a7.73,7.73,0,0,1-1.77-1.33C37.7,1.82,35.62.21,35,.21A5.59,5.59,0,0,1,33.78.05,3,3,0,0,0,32.49.09Zm3.84,3.33c.78.7,2.5,2.27,3.83,3.45C43.8,10.07,44,10.31,44,11.09a1.74,1.74,0,0,0,.27,1,12.51,12.51,0,0,1,1.29,3.64,5.8,5.8,0,0,0,.47,1.57c1,2.35,1.06,3.09,1.29,10.49.4,11.86.51,14.87.59,15.07a1.42,1.42,0,0,1,0,.58,16.39,16.39,0,0,0-.19,1.84c-.12,1.88-.59,2.43-3.17,3.65-2,.93-2.39,1-6,.74C34.06,49.38,30,50,28,51.25s-7.09,1.06-9.4-.54c-1-.71-1.68-.71-5.55-.2a5.88,5.88,0,0,1-4.39-.78c-2.93-1.45-7-5.17-7-6.46a17.93,17.93,0,0,1,1.26-7,5.92,5.92,0,0,0,.78-1.76,3.39,3.39,0,0,1,1-1.41,3.88,3.88,0,0,0,1-1.29c0-.59,3.87-.2,5.12.51.59.31,1.61.86,2.31,1.25,1.57.9,2.74.67,4.35-.94.66-.66,1.29-1.09,1.41-1s.78-.15,1.52-.55,1.41-.58,1.57-.35.39.28.67,0c.62-.47,3.6-.12,5.36.67,1,.43,3.91,2.93,3.91,3.36a5.21,5.21,0,0,0,1,1.26c.55.58.94,1.29.82,1.56s.2.59.67.71c1.37.35,1.49.27,1.25-.67-.39-1.68-.51-6.93-.16-7.16A2.32,2.32,0,0,0,35.82,29a2.53,2.53,0,0,1,.35-1.56,1.05,1.05,0,0,0,.39-.9,13.07,13.07,0,0,1,1.06-4.27,6.05,6.05,0,0,0,.55-1.92,2.79,2.79,0,0,1,.66-1.41c.59-.66.59-.78-.39-1.8s-1.25-1.06-3.48-1A10.86,10.86,0,0,1,31,15.59c-1.72-.74-5.79-4.38-5.79-5.24A3,3,0,0,0,24.66,9a1.52,1.52,0,0,1-.08-1.88c.28-.55.67-1,.9-1a2.32,2.32,0,0,0,1.14-.78,2.34,2.34,0,0,1,1.13-.78A4.19,4.19,0,0,0,29.16,4c.55-.28,1.53-.82,2.16-1.18A3.94,3.94,0,0,1,36.33,3.42Z"/></g></g></g></g></svg>