<svg xmlns="http://www.w3.org/2000/svg" viewBox="0 0 50 56.49"><defs><style>.cls-1{fill:#44aadf;}</style></defs><title>Health 4</title><g id="Слой_2" data-name="Слой 2"><g id="Слой_1-2" data-name="Слой 1"><g id="Слой_2-2" data-name="Слой 2"><g id="Слой_1-2-2" data-name="Слой 1-2"><path class="cls-1" d="M28.88,1.19a21.25,21.25,0,0,0-2.65,1.54A2.22,2.22,0,0,1,25,3.07c-.5,0-.88.15-.88.31s-.42.54-.92.84c-1.08.54-1.92,3.19-1.38,4.23.19.38.27.76.11.88s.08.73.46,1.3c.92,1.39,5.92,6.22,6.72,6.42.31.11,1.58.38,2.8.61l2.27.46L34,21.23c0,2.23-.26,3.53-.8,4.41s-.62,1.46-.5,1.66.08.34-.12.34-.53.62-.84,1.34-.54,1.35-.54,1.35a30.42,30.42,0,0,1-3.65-1.5,9.15,9.15,0,0,0-5.83-.08,12,12,0,0,0-3.42,1.66c-.11.15-.65-.12-1.15-.58a5.89,5.89,0,0,0-2.88-1.57,4.36,4.36,0,0,1-1.15-.5,7.08,7.08,0,0,0-2.88-.31c-2.76.19-3.07.27-4,1A2.69,2.69,0,0,1,5,29.18c-.27,0-.5.11-.5.3a3.82,3.82,0,0,1-.87,1.23C2,32.48,1.05,34.09,1.05,35a2.27,2.27,0,0,1-.42,1.35,7.25,7.25,0,0,0-.58,2.57c-.15,1.88,0,2.53,1.11,5,1.35,2.8,2.42,4,5.76,6.56a5.23,5.23,0,0,0,4,1.39c1.77,0,2.31.15,2.65.73a12.75,12.75,0,0,0,4.92,3.34c2.61.73,6.83.8,8.44.11a13.35,13.35,0,0,1,1.54-.54,4.86,4.86,0,0,0,3-1.88,2,2,0,0,1,1.73-1A4,4,0,0,0,35.1,52c.58-.38.92-.46,1.08-.19s.42.3.69.07c.5-.42,1.92-.73,4.41-1,1.81-.23,5.34-1.85,6.14-2.84a9,9,0,0,0,1.69-4.42A3.4,3.4,0,0,1,49.5,42c.53-.65.69-10.67.23-13a54,54,0,0,1-.85-5.8,9.19,9.19,0,0,0-.57-2.38,3.35,3.35,0,0,1-.43-1.34,6,6,0,0,0-.42-1.66,10.37,10.37,0,0,1-.57-1.65,41.7,41.7,0,0,0-2.73-7.25C43.55,8,42.63,7,37.94,2.76,36.25,1.23,33.72,0,32.25,0A10.65,10.65,0,0,0,28.88,1.19ZM34,2.57c2.38,1.12,8.79,7,9.14,8.33.11.46.42,1.5.61,2.34a17,17,0,0,0,.92,2.5,16.49,16.49,0,0,1,1.15,4.41,7.56,7.56,0,0,0,.27,1c1.31,3.15,1.35,3.54,1.65,12.06.16,5.53.08,7.37-.38,9.21-.65,2.54-1.61,4.42-2.5,4.88a10.43,10.43,0,0,1-4.22,1.5,2.44,2.44,0,0,0-1.3.26,3.35,3.35,0,0,1-1.5.35c-2,.12-6,1.31-6.84,2a8.51,8.51,0,0,1-1.8,1.16c-.58.27-1.61.8-2.34,1.15-1.77.8-5.95.77-7.53-.08A5.06,5.06,0,0,0,17.66,53a6.19,6.19,0,0,1-1.92-1.38c-1.38-1.35-1.57-1.42-3.8-1.35s-2.46,0-4.8-1.76A21,21,0,0,1,3.53,45c-1-1.46-1.15-2-1.19-4.33,0-3,.55-5.8,1.5-6.88a3.61,3.61,0,0,0,.65-1c0-.58,2.61-2.5,3.84-2.85,3-.84,5.18-.34,7.72,1.77,2.11,1.8,2,1.8,3.91.08,1.5-1.31,8.33-1.27,8.33.07,0,.2.35.43.73.58a1.53,1.53,0,0,1,1,.88c.27.77,2,2.77,2.46,2.77.15,0,.27-.66.23-1.46a6.15,6.15,0,0,1,.46-2.54,2.11,2.11,0,0,0,.31-1.42c-.12-.19.31-1.07.88-2a6.21,6.21,0,0,0,1-2,3.39,3.39,0,0,1,.46-1.35c.39-.73.5-2.22.42-5.06-.07-5,0-4.73-1.11-4.46-.54.12-1.07,0-1.19-.15a.42.42,0,0,0-.57-.18l0,0c-.5.3-3.88-.58-4.38-1.16-.67-.67-1.38-1.31-2.11-1.91A15.19,15.19,0,0,1,24.38,9.9c-.73-1.19-.92-3.37-.31-3.37.23,0,.38-.27.38-.58s.47-.69,1.08-.81A9.47,9.47,0,0,0,27.91,4a5.57,5.57,0,0,1,1.92-.88,2.68,2.68,0,0,0,1.3-.57C32.11,1.77,32.18,1.77,34,2.57Z"/></g></g></g></g></svg>