<svg xmlns="http://www.w3.org/2000/svg" viewBox="0 0 33.37 50"><defs><style>.cls-1{fill:#44aadf;}</style></defs><title>intellect 1</title><g id="Слой_2" data-name="Слой 2"><g id="Слой_1-2" data-name="Слой 1"><g id="Слой_2-2" data-name="Слой 2"><g id="Слой_1-2-2" data-name="Слой 1-2"><path class="cls-1" d="M14.11.27a7.66,7.66,0,0,0-2.74.79,1.63,1.63,0,0,1-1,.37c-1.31,0-7.56,5.15-8,6.63A4.24,4.24,0,0,1,1.51,9.5,8.17,8.17,0,0,0,.14,13.79C.11,14.45,0,15.44,0,16a8.18,8.18,0,0,0,.35,2.55,4.29,4.29,0,0,1,.27,1.78.41.41,0,0,0,.24.48,5.52,5.52,0,0,1,1,1.72,4.86,4.86,0,0,0,1,1.68,1.24,1.24,0,0,1,.38.93,5.32,5.32,0,0,0,1.3,2.13,16.8,16.8,0,0,1,2.13,3.22c.48,1,1,1.82,1.14,1.82S8,32.61,8,33a1.5,1.5,0,0,0,.3.93,9.5,9.5,0,0,1,.55,2.88c.21,2.64.76,3.6,1.93,3.33a1.49,1.49,0,0,1,1,.17c.34.21.27.31-.28.31-1.1,0-2.61,1.41-2.33,2.16a1,1,0,0,0,.72.59c.68,0,.58.34-.41,1.4-.76.79-.83,1-.52,1.65.45.79.93.89,2.27.38s1.85,0,.61.51c-.78.35-1,.69-1,1.34,0,1.27.62,1.69,1.82,1.21.55-.21,1.79-.59,2.72-.83,2.74-.75,4.77-1.54,5.28-2.06s.42-.62-.31-1.37-.79-.86-.13-1.37a4.15,4.15,0,0,1,1.58-.69,3,3,0,0,0,1.33-.72c.35-.45.28-.69-.58-1.38l-1-.82.89-.79c.72-.62.93-1.17,1.1-2.81.17-1.93.65-3.09,3-7.32a21.57,21.57,0,0,1,2-2.81A10.21,10.21,0,0,0,30,24.92a5.29,5.29,0,0,1,.85-1.38,7.27,7.27,0,0,0,.86-1.27,13.26,13.26,0,0,1,.59-1.47c.72-1.69.75-1.82,1-5,.24-2.81-.2-5.52-1.13-6.52a1,1,0,0,1-.31-.92c.41-.62-4.91-5.46-7.17-6.56a10.88,10.88,0,0,0-2.75-1A3.17,3.17,0,0,1,20.77.44C19.84-.08,16.65-.14,14.11.27Zm7.83,3.22a3.79,3.79,0,0,0,1.61.69c2.1.58,7,5.49,5.43,5.49a5.8,5.8,0,0,1-1.65-1.3,10.07,10.07,0,0,0-2-1.61c-2.47-1.21-5-2.82-5-3.2S21.62,3,21.94,3.49ZM15.42,18.94c.13.24.44.24.89,0s.65-.24.65,0,.83.27,2.06.17c1.79-.14,2.1-.07,2.4.55s.62.69,2.1.58c1.65-.17,1.68-.13,1.68.83,0,.55-.1,1-.24,1a5.06,5.06,0,0,0-1.51,2.54,1,1,0,0,1-.31.69,16.49,16.49,0,0,0-1.58,5.25.55.55,0,0,1-.1.62c-.17.1-.24.45-.14.82.17.69-1.17,2.2-1.68,1.89s-.31-3.09.41-5.42a7.43,7.43,0,0,0,.52-2.61c-.11-.17-.07-.34.1-.34s.65-.73,1-1.65l.72-1.62-1-.3c-.79-.25-1.1-.14-1.86.61-.92.93-1.61,1.17-1.61.52,0-.21-.17-.24-.41-.07a9.71,9.71,0,0,1-2.75.31c-1.92,0-2.33-.07-2.5-.55s-1.55-1.2-1.55-.69a12.23,12.23,0,0,0,.76,2,6.61,6.61,0,0,1,.65,2.09,1.38,1.38,0,0,0,.34,1,4.57,4.57,0,0,1,.52,2,17.81,17.81,0,0,0,.27,2.3c.28,1.17-.07,2.06-.79,2.06s-.92-1.1-1.2-4.32A3.91,3.91,0,0,0,11,27.53a3.2,3.2,0,0,1-.37-1.27,16.51,16.51,0,0,0-1.21-3,6.2,6.2,0,0,1-.85-2.5,7.31,7.31,0,0,1,2.3-.28c1.75,0,2.16-.13,3-.92C14.8,18.54,15.07,18.43,15.42,18.94Zm4.8,22a.86.86,0,0,1-.62.35c-.24,0-.2-.14.11-.35C20.36,40.51,20.5,40.51,20.22,40.91Zm-5.87,2.2c-.34.28-.79.41-1,.31s.07-.41.52-.65C14.94,42.23,15.24,42.46,14.35,43.11Zm3.06,2.16c.1.18-.21.31-.69.35-.65,0-.75,0-.41-.28C16.89,45,17.2,45,17.41,45.27Z"/></g></g></g></g></svg>