<svg xmlns="http://www.w3.org/2000/svg" viewBox="0 0 33.05 50"><defs><style>.cls-1{fill:#44aadf;}</style></defs><title>intellect 3</title><g id="Слой_2" data-name="Слой 2"><g id="Слой_1-2" data-name="Слой 1"><g id="Слой_2-2" data-name="Слой 2"><g id="Слой_1-2-2" data-name="Слой 1-2"><path class="cls-1" d="M13.65.2c0,.28.85,1.06,2.45,2.34.46.39.74.78.63.89s-.56-.14-1-.57a20.43,20.43,0,0,0-1.85-1.49l-1-.74.25.81c.25.78.21.78-.57.21-1.49-1-1.6-.56-.18.68.78.67,1.24,1.24,1.07,1.24A7,7,0,0,1,11.7,2.33C10.32,1.12,9.47.7,9.93,1.44a50.72,50.72,0,0,0,4.5,4.29c3.58,3.12,4.89,4.33,4.75,4.47S18.36,9.77,17.55,9l-2.38-2.2c-.81-.74-1.52-1-1.52-.57,0,.14.35.53.78.89s.67.74.57.85-.57-.18-1-.67S12.41,5.91,11.59,5.2s-1.34-1.28-1.06-1.28A3.06,3.06,0,0,1,12,5c.92,1,1.67,1.34,1.67.88A20.58,20.58,0,0,0,10.1,2.4c-1.27-.89-1.66-.75-.71.28.47.5.64.89.43.89s-.43-.14-.43-.32-.31-.39-.7-.5c-1.28-.32-.93.07,3.15,3.62a49.46,49.46,0,0,1,5.71,5.46c0,.14-.28,0-.64-.39S15.28,10,14,8.89s-2.48-2.17-2.77-2.45A16,16,0,0,0,7.52,3.57C7.27,3.6,8,4.38,9,5.34s1.84,1.81,1.74,1.92-1-.61-2.09-1.6c-1.88-1.7-3-2.34-2.1-1.13a27.54,27.54,0,0,0,3.62,3.36c.92.82,1.6,1.53,1.52,1.6s-.92-.43-3.47-2.73A27.27,27.27,0,0,0,6,4.88c-.78-.46-.57.39.25,1.1C6.67,6.3,7.91,7.43,9,8.5l2,1.88L9,8.86C8,8,6.63,6.88,6,6.34c-1-1-1.6-1.24-1.6-.78,0,.15.43.61,1,1.07,1.17,1,.75,1.13-.67.1S3.47,6.38,5.14,8c.78.75,1.35,1.45,1.24,1.53S5.67,9.11,5,8.4A4.27,4.27,0,0,0,3.08,7.12c-.42,0-.17.39.82,1.25.78.67,1.24,1.2,1,1.24A1.4,1.4,0,0,1,4.08,9c-.82-1-1.81-1.35-2.17-.82-.46.71-.42.82.61,1.92.49.53.78,1.06.67,1.17a.33.33,0,0,1-.46-.11,5.11,5.11,0,0,0-.92-.88c-.64-.5-.64-.47-.43.28.18.53.14.74-.21.67s-.35-.07-.18,0a.69.69,0,0,1,.25.5c0,.21.5.78,1.06,1.28s1,1,.89,1.09S2.52,13.9,2,13.33.78,12.44.64,12.55s.46.89,1.35,1.66S3.4,15.6,3.19,15.6a5.89,5.89,0,0,1-1.74-1.21C.67,13.72.07,13.15,0,13.15A3.3,3.3,0,0,0,0,14c0,.6.14.78.53.64S1,14.53.6,15c-.56.67-.67.53,2.52,3.23,1.13.92,2,1.8,1.84,1.91s-.32.07-.46-.11a23.76,23.76,0,0,0-2.23-2c-1.81-1.52-2-1.63-2.2-1a2.28,2.28,0,0,0,.57,1.67c.49.6.6,1,.35,1.06-.6.21.71,1.74,3.94,4.61,1.84,1.67,1.91,2.13.07.53-2.16-1.81-3.19-2.55-3.37-2.34s.28.53.85,1,.89,1,.75,1.21.49,1.06,1.38,1.88a4.71,4.71,0,0,1,1.52,2.05,2.39,2.39,0,0,0,.71,1.42c.46.5.71,1.1.6,1.39s0,.42.39.28.5-.07.39.21.18.82.61,1.28c.56.64.64.88.25,1.1s-.11.35.63.49,1.1.43,1.1.64-.14.29-.53,0c-1.1-.89-.85-.07.39,1.34.67.82,1.1,1.49.92,1.49s-.42-.25-.56-.53-.36-.53-.54-.53c-.56,0-.85,1.42-.39,2a.94.94,0,0,1,.22.85c-.11.18.1.25.49.14.89-.25.89-.28-.07-1.17-.42-.39-.64-.71-.42-.71.49,0,1.56.92,1.56,1.35s1.27.92,1.77.6a1.14,1.14,0,0,1,1,.18c.53.32.53.35-.18.14s-.82-.1-.6.6.24.78-.32.22a2.29,2.29,0,0,0-1.21-.61c-.42,0-.25.32.6,1.07s1.32,1,1.6.78a4.91,4.91,0,0,1,1.38-.57c.78-.18,1-.39.78-.85s-.14-.5.22-.18.6.32,1.13.07a4.83,4.83,0,0,1,1.91-.39A2.68,2.68,0,0,0,21.84,40c.88-1,.85-1.1-.43-2.16-.6-.5-.92-.93-.74-.93a4,4,0,0,1,1.35.89,3.15,3.15,0,0,0,1.38.85c.18,0,.14-.1-.07-.21a.73.73,0,0,1-.46-.64.84.84,0,0,0-.57-.67c-.32-.14-.5-.32-.39-.46s.46,0,.78.24.64.36.78.22.14-.25.07-.32c-.5-.36-4.11-3.33-4.5-3.72a1,1,0,0,1-.29-1c.11-.36,0-.43-.42-.29s-.57.18-.07-.42.46-.6-.36-.43c-.49.15-.67.15-.42,0a.94.94,0,0,0,.42-.75c0-.46.11-.46.54-.1.74.6,1.09.18.49-.6-.42-.54-.42-.57.14-.36,1,.36.18-.89-1.24-2-.64-.5-1-.92-.81-.92a5.06,5.06,0,0,1,1.59,1.06c1.21,1,1.88,1.17,1.14.25-.25-.28-.32-.6-.18-.71a3.08,3.08,0,0,0,0-2.62c-.43-.53-2.77-.64-2.77-.14a.73.73,0,0,0,.35.56.8.8,0,0,1,.36.64c0,.25-.18.14-.39-.21a1.14,1.14,0,0,0-.75-.6,2.08,2.08,0,0,1-1.06-.61c-.35-.32-.64-.39-.64-.17a1.51,1.51,0,0,0,.64.85c.64.46,1.31,1.34,1,1.34A6.29,6.29,0,0,1,15.21,25c-1.84-1.63-1.92-1.67-1.92-1.1a1.23,1.23,0,0,0,.64.89c.32.21.46.39.32.39a3.65,3.65,0,0,1-1.13-.57c-.85-.57-.85-.53-.68.46.54,3.22.54,3.22,3.66,6,1.66,1.52,3.47,3.08,4,3.47.88.71,1.59,1.6,1.24,1.6a2,2,0,0,1-.64-.47c-1.21-1.17-7-6.27-7.13-6.27a5.78,5.78,0,0,0-.14,1.91v1.95l2.94,2.56a17.59,17.59,0,0,1,3,2.94c0,.21-.6-.21-1.31-.89-4-3.77-4.54-4.19-4.89-3.84s-.18.46.17.71.25.29-.53.14l-1.06-.2.85.75c.46.39.78.78.67.88s-.56-.21-1.1-.67-.85-.92-.53-1,.36-.29,0-.78-.39-.71-.14-1S11,31.8,9.25,30.06c-1.38-1.38-2-2.12-1.45-1.63s1.49,1.28,2,1.81a4,4,0,0,0,1.35,1c.6,0,.39-.67-.32-1.13-.53-.32-.6-.53-.32-.89a.68.68,0,0,0,0-1h0c-.28-.35-.32-.56,0-.67s.18-.14-.07-.11C9.82,27.62,8,26.38,8,25.88c0-.18.35,0,.78.39A3,3,0,0,0,9.82,27c.46,0-.5-1.28-1.6-2.13-.53-.42-1-1-.92-1.17s.07-.28.22,0a.73.73,0,0,0,.67.46c.28,0,.5.14.5.32s.24.43.56.53c.53.22.53.14.11-.39a23.54,23.54,0,0,0-1.92-2c-.77-.74-1.2-1.34-1-1.34a.42.42,0,0,1,.42.42c0,.32.11.32.46,0s.32-.54-.14-.86-1.42-1.17-2.48-2.09-2.37-2.05-3-2.55-.85-.92-.6-.92a4.84,4.84,0,0,1,1.77,1.2C3.65,17.16,5,18.4,6,19.28s1.88,1.53,2.05,1.42-.1-.56-.6-1.06c-.85-.78-1.1-1.17-.81-1.17a6.27,6.27,0,0,1,1.16.89c.64.53,1.07.74,1.17.46s-.14-.61-.46-.82c-1.41-1.06-4.82-4.18-4.68-4.36s.57.21,1,.67c.82.78,1.56,1.42,4.79,4,1.42,1.2,1.49.67.07-.71-.75-.71-.92-1.1-.64-1.28s.32-.39,0-.82S8.72,16,8.9,16c.42,0,3.83,3.15,3.65,3.37s-.67-.36-1.31-.93c-1.17-1.1-2.13-1.31-1.38-.32s2.73,2.24,2.73,1.81c0-.21.24-.39.53-.39.64,0,.67-.39.1-1.06-.39-.43-.35-.43.18,0,.78.61,1.21.25.6-.49s0-.75.64-.11c.46.46,2.91.64,2.91.21,0-.14-.18-.28-.43-.28s-.32-.11-.17-.21.56,0,1,.35c1.32.92,2,.68.82-.32-.57-.46-.89-.85-.67-.88a1.51,1.51,0,0,1,.85.53,1.57,1.57,0,0,0,1,.53c.39,0,.24-.28-.5-1-.57-.49-2.31-2-3.79-3.4s-3.05-2.69-3.37-2.94-.46-.5-.22-.5a10.26,10.26,0,0,1,2.49,1.88c1.13,1,3.4,3.08,5.07,4.5a22.91,22.91,0,0,1,3.15,3c.07.25-.35-.07-1-.6s-1.13-.85-1.27-.68c-.32.54,1.52,1.92,2.27,1.67.49-.14,1.06.14,2,1S26,22,25.6,22c-.85,0-.75.5.28,1.28a2.46,2.46,0,0,1,.89,1c0,.14-.5-.11-1.14-.64s-1.2-.82-1.27-.53a1.11,1.11,0,0,0,.49,1c.64.46.64.5-.1.25s-.78-.11-.57.39.1.57-.36.39-.46,0,.18.81c.43.61.92,1.07,1.14,1.07s.24.1.1.21-.57,0-1-.35c-.92-.68-1.66-.75-1.06-.15s.53,1-.18.75-.6-.18,0,.5c.75.88.78,1.2,0,.92-.53-.18-.53-.11,0,.71.78,1.2,1.88,1.56,2.59.81.39-.35.43-.57.14-.57a.39.39,0,0,1-.42-.37v0c0-.21.32-.28.78-.1.74.21.78.21.28-.43a6.12,6.12,0,0,0-.88-.95c-.18-.15.14-.18.7-.08,1,.22,1,.22.36-.35s-.67-.57.28-.35,1.39-.29.53-.68c-.24-.1-.07-.1.43,0l.89.21-.78-.85c-1-1-1.1-1.7-.18-.92a7.57,7.57,0,0,0,1.13.82c.43.21.46.17.11-.22-.57-.56-.6-1-.11-1a3,3,0,0,0,1.28-1l.85-.95-2.37-2.2A11.62,11.62,0,0,1,26.41,18a9.75,9.75,0,0,1,2.41,2A11.28,11.28,0,0,0,31.48,22c.21,0-.64-1.06-1.95-2.3a11.82,11.82,0,0,1-2.13-2.3,11.68,11.68,0,0,1,2.17,1.73c1,1,1.91,1.56,2.05,1.35s0-.46-.28-.64-.39-.32.07-.32a.91.91,0,0,0,.78-.74c.25-.89-1-2.38-4.11-5-1.14-1-1.92-1.74-1.77-1.74a34.62,34.62,0,0,1,4.92,4.11c.43.43,1,.64,1.17.53s-.28-.81-1.24-1.59-1.52-1.42-1.45-1.53.78.43,1.52,1.1A8.57,8.57,0,0,0,32.86,16c.57,0-.17-1-2-2.63a7.52,7.52,0,0,1-1.95-2.23c0-.28-.17-.39-.39-.28-.6.39-2.12-1.28-1.88-2,.11-.36.08-.64-.1-.64A5.42,5.42,0,0,1,25.1,7.12c-.64-.56-1.35-1-1.63-.85a1.22,1.22,0,0,1-1.06-.35c-.64-.64-1.32-.75-1.32-.21a.33.33,0,0,0,.29.35A8.87,8.87,0,0,1,23,7.34c.78.67,1.74,1.56,2.13,1.88a8.28,8.28,0,0,1,1.24,1.27c.5.68.5.68-.18.18-2.34-1.77-6.06-5.32-5.56-5.32A.42.42,0,0,0,21.09,5c0-.25-.31-.32-.74-.21s-.67.07-.53-.32,0-.5-.5-.32-1-.07-1.7-.78C16.38,2,13.65-.12,13.65.2ZM16,4c2.13,2,3.51,3.19,4.4,3.87.74.6.81.78.39,1.06s-.28.57.78,1.56c.74.68,1.2,1.24,1.06,1.24A6.88,6.88,0,0,1,21,10.45c-1-1-1.24-1.35-.88-1.6s.39-.32.32-.39c-.25-.18-5.75-5-6.28-5.49a1.34,1.34,0,0,1-.46-.68C13.65,2,14.46,2.61,16,4Zm-1.24.46c.25.29.29.54.07.54A1.52,1.52,0,0,1,14,4.45c-.24-.28-.28-.53-.07-.53A1.52,1.52,0,0,1,14.71,4.45Zm4.58,1c.49.5.71.92.53.92a5.2,5.2,0,0,1-1.6-1.27c-.71-.78-.92-1.14-.49-.92A7.89,7.89,0,0,1,19.29,5.48Zm-2.95.39c.32.29.39.53.22.53a1.46,1.46,0,0,1-.78-.53c-.25-.28-.32-.53-.22-.53A1.9,1.9,0,0,1,16.34,5.87Zm2.13,2.24c-.21.17-1.28-.82-1.28-1.21,0-.14.32,0,.71.39S18.54,8,18.47,8.11ZM21.16,7a20.65,20.65,0,0,0,2.52,2.37,11.23,11.23,0,0,1,2.24,2.24c-.08.07-.71-.32-1.35-.93s-1.85-1.63-2.66-2.26C20.46,7.33,20,6.76,20.7,6.76A.53.53,0,0,1,21.16,7Zm3.62.28c.39.28.53.53.36.53a2.57,2.57,0,0,1-1.07-.53c-.35-.28-.49-.5-.32-.5A2.31,2.31,0,0,1,24.78,7.29ZM13.19,9a2.36,2.36,0,0,1,.81,1c0,.17-.21.07-.46-.18s-.92-.78-1.42-1.17-.95-.85-.95-1S11.52,7.65,13.19,9Zm-4.5.57c3.82,3.33,4.07,3.58,3.51,3.93s-.43.36,0,.64c.28.21.43.46.32.57s-.74-.29-1.38-.89c-1.35-1.24-1.92-1.35-1.6-.32.21.67.18.71-.28.28s-.43-.63-.18-.92,0-.78-1-1.7c-.78-.67-1.21-1.24-1-1.24a11.62,11.62,0,0,1,2.3,1.77,12.25,12.25,0,0,0,2.24,1.78c.57,0,.18-.68-.89-1.53C8.9,10.52,6,7.75,6.42,7.89A13.18,13.18,0,0,1,8.69,9.6ZM16,8.53c.11.18,0,.36-.14.36a.4.4,0,0,1-.39-.36c0-.21.07-.35.14-.35A.66.66,0,0,1,16,8.53Zm10.11,0c0,.18-.07.36-.14.36s-.29-.18-.39-.36,0-.35.14-.35a.36.36,0,0,1,.39.31ZM3,9.06c.25.29.29.54.07.54a1.52,1.52,0,0,1-.78-.54c-.24-.28-.28-.53-.07-.53A1.52,1.52,0,0,1,3,9.06Zm2.38,2.17c.74.71,1,1.13.64.92-.78-.39-2.59-2.2-2.2-2.2A6.5,6.5,0,0,1,5.39,11.23Zm2.37.56c.57.57.89,1,.71,1a12.21,12.21,0,0,1-3-2.7C5.5,9.84,6.28,10.45,7.76,11.79Zm12.09.57c-.24.25-2-1.38-2-1.84,0-.18.46.1,1.07.67S20,12.29,19.85,12.36Zm1-.66c-.18.21-1.2-.71-1.2-1.07,0-.17.28,0,.63.29S20.92,11.62,20.88,11.7Zm4.43.64c.5.42.82.85.71.95s-3.15-2.41-3.15-2.8.42,0,2.44,1.84Zm-12-.07a8.21,8.21,0,0,1,1.39,1.59c-.39,0-3.69-3.19-3.34-3.19a6.49,6.49,0,0,1,1.95,1.58Zm2.49-1.07c.24.29.28.53.07.53a1.46,1.46,0,0,1-.78-.53c-.25-.28-.29-.53-.07-.53a1.59,1.59,0,0,1,.78.52Zm-13.3.52c.11.18,0,.36-.14.36A.4.4,0,0,1,2,11.72c0-.21.07-.35.14-.35A.66.66,0,0,1,2.48,11.72ZM5,12.29c.5.5.82,1,.75,1S3.72,11.9,3.72,11.58,4.11,11.37,5,12.29Zm23.51,0c.46.5.67.89.46.89a2.78,2.78,0,0,1-1.17-.89c-.46-.49-.67-.88-.46-.88A2.82,2.82,0,0,1,28.54,12.25Zm-25,.18c.1.18,0,.36-.15.36A.4.4,0,0,1,3,12.43c0-.21.07-.35.15-.35A.69.69,0,0,1,3.55,12.43Zm14,.57c.75.85.78.92.11.57-.89-.46-1.77-1.49-1.31-1.49A3.43,3.43,0,0,1,17.58,13Zm1.81,0a12,12,0,0,0,1.74,1.6c.42.35.71.71.6.85s-1.06-.6-2.12-1.59-1.71-1.81-1.49-1.81A3.11,3.11,0,0,1,19.39,13Zm-11.63.18c.25.25,1.42,1.31,2.63,2.38a11.8,11.8,0,0,1,2.2,2.27c0,.17-.36,0-.78-.43-4.08-3.72-5-4.64-4.79-4.64A1.61,1.61,0,0,1,7.76,13.21Zm13.33-.07c0,.18-.07.36-.14.36s-.28-.18-.39-.36,0-.35.14-.35a.35.35,0,0,1,.39.31Zm3.19,0c0,.18-.07.36-.14.36s-.28-.18-.39-.36,0-.35.14-.35a.35.35,0,0,1,.39.31Zm-19.17.75c.46.39.74.78.63.88s-.56-.21-1.06-.71C3.58,13,3.9,12.86,5.11,13.89Zm10.67,2c.67.63,1.1,1.13.88,1.13a16.39,16.39,0,0,1-3.72-3.4C12.94,13.39,13.26,13.64,15.78,15.91Zm13-.46c1,.88,1.6,1.59,1.46,1.59a2.93,2.93,0,0,1-1-.71,2.87,2.87,0,0,0-1.07-.71c-.46,0-.32.64.18.82.21.07.32.28.14.46s-.53,0-.88-.32c-.5-.53-.54-.67-.11-.92s.43-.43-.07-.92-.75-.89-.46-.89A14.65,14.65,0,0,1,28.75,15.45ZM7.83,14.7c.57.6.64.92.15.92-.18,0-.5-.32-.71-.71C6.84,14.1,7.09,14,7.83,14.7Zm5.43,1.88a.23.23,0,0,1,0,.32c-.24.25-2.76-2-2.76-2.48,0-.22.6.21,1.31.88A16.58,16.58,0,0,0,13.26,16.58Zm4-.89c.35.36.53.64.39.64a6.35,6.35,0,0,1-2.24-2C15.42,14.1,16.24,14.7,17.27,15.69Zm2.41-.95c.71.85.21,1-.54.17-.35-.39-.46-.71-.28-.71A1.47,1.47,0,0,1,19.68,14.74Zm3.68.5c-.07.11-.42-.1-.78-.46-.56-.6-.56-.64.18-.18C23.19,14.84,23.47,15.13,23.36,15.24Zm2.13.22c.74.7,1.31,1.34,1.21,1.41A5.31,5.31,0,0,1,25,15.63c-.89-.78-1.38-1.38-1.21-1.38a5.66,5.66,0,0,1,1.74,1.2Zm.78-.71c.32.28.39.53.21.53a1.56,1.56,0,0,1-.78-.53c-.25-.29-.32-.54-.21-.54a1.9,1.9,0,0,1,.78.53ZM7.13,15.81c.31.28.39.53.21.53a1.5,1.5,0,0,1-.78-.53c-.25-.28-.32-.53-.21-.53a1.85,1.85,0,0,1,.78.52Zm9,2.06c0,.42-2.34-1.6-2.59-2.2-.14-.25.39.07,1.17.71a5.82,5.82,0,0,1,1.42,1.48Zm5.7-1.1c0,.42-.35.32-.92-.22-.71-.74-.6-1,.21-.49.39.25.71.56.71.7ZM24.28,16a.35.35,0,0,1-.35.35.37.37,0,0,1-.35-.35.35.35,0,0,1,.35-.36.33.33,0,0,1,.35.31s0,0,0,0Zm-19.64.53c.32.28.39.53.22.53a1.52,1.52,0,0,1-.78-.53c-.25-.28-.32-.53-.22-.53a1.79,1.79,0,0,1,.78.52Zm19.43.71c.78.67,1.24,1.24,1.07,1.24a6.55,6.55,0,0,1-1.71-1.24c-.74-.68-1.24-1.24-1.06-1.24a6,6,0,0,1,1.7,1.23ZM6,17.75c.1.18.07.35-.14.35a.81.81,0,0,1-.57-.35c-.11-.21-.07-.35.14-.35A.68.68,0,0,1,6,17.75Zm25.7.39c0,.5-.6.35-.82-.18-.14-.35,0-.46.32-.32S31.73,18,31.73,18.14Zm-.85,1c-.21.17-1.28-.82-1.28-1.21,0-.14.32,0,.71.39S31,19,30.88,19.1Zm-5.71.71c-.21.24-1.59-.68-1.59-1,0-.18.39-.07.85.28S25.24,19.73,25.17,19.81ZM2.84,19.38c.6.43.6.57.21.85s-.43.39-.07.85.35.57.18.57c-.43,0-.93-.39-1.49-1.14-.39-.49-.39-.56.24-.39.93.25,1-.17.15-.81-.36-.25-.46-.46-.29-.46A2.25,2.25,0,0,1,2.84,19.38Zm24.42.74c.14.36,0,.36-.49,0a2.14,2.14,0,0,1-.85-.89c-.15-.35,0-.35.49,0A2.18,2.18,0,0,1,27.26,20.12ZM6,22.33c1,1.24.64,1.07-1.31-.63a3.08,3.08,0,0,1-1-1.17C3.72,20.05,4.89,20.94,6,22.33Zm21.59-.49c1,.88,1.7,1.66,1.59,1.73A7.41,7.41,0,0,1,27.12,22c-1.06-1-1.77-1.73-1.59-1.73a9.54,9.54,0,0,1,2.09,1.55Zm1.13-.36a6.26,6.26,0,0,0,1.14.85c.32.18.49.46.35.57s-.78-.25-1.42-.85-1-1.1-.88-1.1a1.72,1.72,0,0,1,.81.52ZM5.71,24c-.14.14-.39,0-.57-.25-.57-.89-.39-1.24.25-.61.32.31.46.7.32.84Zm22.12-.61c.46.39.71.82.57,1s-.64-.18-1.14-.71c-1-1.11-.64-1.29.57-.26ZM7.62,25.28c0,.17-.32.1-.71-.15s-.71-.56-.71-.7.32-.11.71.14.71.55.71.7Zm-2.3.8c1.2,1.21,1.17,1.56-.07.53a5.53,5.53,0,0,1-1.49-1.56C3.72,24.77,4.54,25.3,5.32,26.08Zm19.85-.5c.39.61,0,.75-.53.15-.28-.32-.28-.54-.07-.54A.78.78,0,0,1,25.17,25.58ZM14.82,27c1.45,1.17,2.84,2.51,2.66,2.66S16.31,29,14.11,27c-1.21-1.07-1.63-1.88-.57-1Zm.89-.71c1.13,1.06.95,1.2-.29.28a6,6,0,0,1-1.06-.88C14.36,25.34,15,25.62,15.71,26.26Zm3.43.33c-.21.18-.88-.36-.88-.71,0-.18.21-.14.49.11S19.18,26.51,19.14,26.59Zm-11.52,0c0,.18-.07.36-.14.36s-.28-.18-.39-.36,0-.35.14-.35a.35.35,0,0,1,.39.32v0Zm1.24,1a5.54,5.54,0,0,1,.89.92c.5.64.5.67-.21.28s-1.81-1.49-1.35-1.49a1.38,1.38,0,0,1,.67.28Zm6.92,1.87c0,.18-.36,0-.78-.39a2.84,2.84,0,0,0-1.07-.7c-.14,0-.28-.18-.28-.39s.5,0,1.06.39,1.07.91,1.07,1.08Zm2.12-1.27c.39.46.36.49-.14.32-.32-.11-.57-.36-.57-.53,0-.48.22-.4.71.2Zm7.45.6c0,.43-.5.36-1-.14-.68-.67-.5-1,.28-.57.39.25.71.56.71.7Zm-.36,1c.29.18.39.43.25.57s-.53,0-.85-.32c-.64-.64-.28-.82.6-.26Zm-8.33.36c.11.18,0,.35-.14.35a.39.39,0,0,1-.39-.35c0-.21.07-.36.14-.36a.66.66,0,0,1,.39.35Zm-7,1.31a5.79,5.79,0,0,0,1.06.78c.32.18.5.46.36.57s-.93-.43-1.78-1.24c-1.31-1.33-1-1.4.36-.12Zm6.59,1.42c.14.35,0,.35-.49,0a2.06,2.06,0,0,1-.85-.88c-.15-.36,0-.36.49,0a2.18,2.18,0,0,1,.85.88Zm-6.17.46c.68.57,1.1,1.06.89,1.06-.46,0-2.91-2.12-2.48-2.12a4.72,4.72,0,0,1,1.59,1.05Zm6.56,1.23c.39.39,1.74,1.56,2.95,2.62a10.51,10.51,0,0,1,2.19,2.31c0,.21-.28,0-.67-.36s-1.67-1.56-2.91-2.62C15.07,33.81,14,32.78,14,32.46S14.36,32.46,16.66,34.59Zm0,3.33c-.18.21-2.63-2.13-2.63-2.48,0-.14.61.32,1.39,1s1.31,1.38,1.24,1.46Zm2.69-2.44c0,.17-.07.35-.14.35a.9.9,0,0,1-.39-.35c-.11-.18,0-.36.14-.36a.35.35,0,0,1,.39.32Zm.89.7c.1.18,0,.36-.14.36a.38.38,0,0,1-.39-.36c0-.21.07-.35.14-.35A.69.69,0,0,1,20.21,36.18Zm-8,.54c.25.28.28.53.07.53a1.56,1.56,0,0,1-.78-.53c-.25-.29-.28-.54-.07-.54A1.52,1.52,0,0,1,12.23,36.72Zm1.95.17c.11.18,0,.36-.14.36a.39.39,0,0,1-.39-.36c0-.21.07-.35.14-.35A.69.69,0,0,1,14.18,36.89ZM14.75,39c.81.78,1.31,1.42,1.17,1.42a11.48,11.48,0,0,1-3-2.62C12.94,37.39,13.33,37.64,14.75,39Zm1.95.25c-.21.21-1.28-.32-1.28-.64s.32-.14.71.11S16.77,39.23,16.7,39.27Zm2.59.71c.07.07,0,.21-.07.35s-2-1.49-2-1.91c0-.14.43.14,1,.64S19.22,39.94,19.29,40Zm-5.82-.6c.11.17.07.35-.14.35a.83.83,0,0,1-.57-.35c-.1-.22-.07-.36.14-.36A.72.72,0,0,1,13.47,39.38Zm7.62.78c0,.42-.21.31-.92-.47s-.67-.78.14-.28C20.74,39.71,21.09,40,21.09,40.16Zm-3.15.17c.46.53.42.53-.28.14-.86-.42-1-.74-.5-.74A1.38,1.38,0,0,1,17.94,40.33Z"/><path class="cls-1" d="M17,.38a.66.66,0,0,1-.75.21c-.78-.32.07,1.1,1,1.6s1.24.14.35-.61c-.53-.46-.6-.71-.31-.88s.35-.39.21-.5S17.16.17,17,.38Z"/><path class="cls-1" d="M18.61.27a6.41,6.41,0,0,0,1.7,1.53,13.29,13.29,0,0,1,1.92,1.59.33.33,0,0,0,.46.11C23,3.21,20.81,1.19,20,.91c-.35-.14-.64-.39-.64-.57A.32.32,0,0,0,19,0h0C18.79,0,18.61.13,18.61.27Z"/><path class="cls-1" d="M20.39.2c0,.32,1.45,1.7,2.76,2.59,1.1.81,1.56.64.71-.21-.25-.25-.28-.43-.07-.43a2,2,0,0,1,1,.68c.46.54.5.71.14.82s0,.64.89,1.49,1.56,1.24,2.06,1.1.67-.07.67.14a.43.43,0,0,1-.43.39c-.24,0-.07.25.36.57s.78.74.74.95a3.75,3.75,0,0,0,0,.82c.07.67,3.23,3.86,3.23,3.3a4.37,4.37,0,0,0-1.35-1.78C29.67,9.32,28.54,7.87,29.85,9c.82.74,1.42.85.85.14a1.28,1.28,0,0,1-.28-1c.07-.28.07-.39,0-.21-.29.5-.78-.14-.57-.71s.07-.53-.39-.35-.53.1-.39-.11c.32-.5-.74-1.45-1.31-1.24A1.27,1.27,0,0,1,26.59,5c-.75-.85-.5-1,.35-.14.32.31.64.49.75.39.39-.36-1-1.32-1.67-1.14-.39.14-.67.07-.67-.14a.4.4,0,0,1,.41-.39h0c.22,0,0-.39-.42-.92-.64-.64-1.1-.82-1.67-.68s-.81,0-.81-.17a.44.44,0,0,0-.46-.36,1.64,1.64,0,0,1-1-.71C21,.06,20.39-.22,20.39.2Z"/><path class="cls-1" d="M17.9,1.06c0,.18.5.68,1.07,1.1,1.13.82,1.49.46.46-.42S17.9.66,17.9,1.06Z"/><path class="cls-1" d="M22.87,5.7a.38.38,0,0,0,.39.35c.17,0,.24-.18.14-.35s-.29-.36-.39-.36S22.87,5.48,22.87,5.7Z"/><path class="cls-1" d="M27.83,10.34c0,.18.18.25.35.14s.36-.28.36-.39S28.4,10,28.18,10A.39.39,0,0,0,27.83,10.34Z"/><path class="cls-1" d="M30.84,12.79c.93.92,1.49,1.31,1.74,1.06s.28-.39.18-.46-.68-.53-1.31-1.06C29.67,10.87,29.28,11.19,30.84,12.79Z"/><path class="cls-1" d="M11,22.61a1.11,1.11,0,0,0,.31,1.14c.32.32.54.39.54.14a.84.84,0,0,0-.36-.63c-.28-.18-.25-.39,0-.75s.25-.5,0-.5S11.13,22.29,11,22.61Z"/><path class="cls-1" d="M20.17,23c-.49.78-.25,1.53.46,1.53.36,0,.46-.22.32-.57s-.07-.53.39-.36.53.15-.07-.49C20.49,22.22,20.63,22.22,20.17,23Z"/><path class="cls-1" d="M22,30.51a.86.86,0,0,0,0,.78,4.6,4.6,0,0,1,.31,1.6c0,.85-.1,1.13-.42,1-.6-.21-.07.89.71,1.52s1.59-.46,1-1.38-.54-1.13-.07-.85c.17.11.63,0,1-.21s.61-.57.29-1.1-1.31-.89-1.31-.35a1.63,1.63,0,0,0,.46.75c.35.39.28.39-.36,0s-.67-.57-.39-1,.29-.56-.1-.81C22.55,30.09,22.26,30.09,22,30.51Zm.71.36c.11.17,0,.35-.14.35a.39.39,0,0,1-.39-.35c0-.22.07-.36.14-.36A.68.68,0,0,1,22.69,30.87Z"/><path class="cls-1" d="M9.25,36.72c.14.28.39.53.57.53s.18-.21-.07-.53a2.44,2.44,0,0,0-.57-.54C9.11,36.18,9.15,36.43,9.25,36.72Z"/><path class="cls-1" d="M11.34,41.83c.18.57.11.71-.31.53s-.57-.07-.57.15c0,.56,1.06.81,1.81.42s.85-.5-.25-1.24C11.13,41.12,11.1,41.12,11.34,41.83Z"/><path class="cls-1" d="M20.63,41.75c-.32.07-.53.32-.42.5s0,.32-.32.32a.86.86,0,0,1-.71-.46c-.11-.22-.11-.08,0,.35.21.92.07,1-1,.43-.64-.32-.71-.32-.32.07.71.74.5,1.2-.25.53-.39-.36-.88-.53-1.09-.39s-.32.35,0,.6.25.25-.28.11-.82-.07-.82.14a.39.39,0,0,0,.36.39.37.37,0,0,1,.35.42c0,.25-.28.15-.67-.21-.82-.74-1.74-.42-1.07.36.5.6,1.17.63,2.2.07a3.82,3.82,0,0,1,2.31-.57c.53,0,.74-.21.56-.46s0-.36.71-.25.92.11.75-.57c-.07-.39-.07-.53,0-.32.36.82.92.5.64-.35s-.21-.78.78.11c.71.63.85.67.5.17-.57-.78-1.14-1.24-1.42-1.2C21.34,41.57,21,41.64,20.63,41.75Z"/><path class="cls-1" d="M13.29,45.23c0,.6-.56.7-.88.17a.71.71,0,0,0-.57-.35c-.21,0-.25.14-.14.35s0,.36-.18.36c-.53,0-1.45.92-1.2,1.17.1.1.49-.07.88-.39a3.27,3.27,0,0,1,1.31-.64c1.56-.11,1.85-.18,1.85-.46s-.25-.39-.53-.53A.34.34,0,0,0,13.29,45.23Z"/><path class="cls-1" d="M19.82,47c0,.46.07.85.25.85s.32-.07.32-.14a4,4,0,0,1,.21-.67.51.51,0,0,0-.27-.67h0C20,46.25,19.82,46.5,19.82,47Z"/><path class="cls-1" d="M18.61,46.82c.71.46,1.17.46.89,0a1,1,0,0,0-.82-.35C18.15,46.47,18.15,46.54,18.61,46.82Z"/><path class="cls-1" d="M15.78,47.21a3.51,3.51,0,0,0,1.56,1.38c.14,0,.14-.35,0-.81-.21-.64-.18-.71.21-.36.64.64,1.21.57.68-.07C17.87,46.89,15.78,46.75,15.78,47.21Z"/><path class="cls-1" d="M14.71,47.88c0,.18-.25.36-.53.36s-.53.14-.53.35-.25.36-.57.36-.42.17-.28.42.07.32-.32.18-.6-.07-.6.11c0,.53.92.42,1.41-.18.32-.39.61-.43,1.14-.14s.67.28.46-.39-.14-.75.5-.53c.95.28.95,0,0-.54C14.93,47.64,14.71,47.64,14.71,47.88Z"/></g></g></g></g></svg>