<svg xmlns="http://www.w3.org/2000/svg" viewBox="0 0 46.18 50"><defs><style>.cls-1{fill:#44aadf;}</style></defs><title>intellect 5</title><g id="Слой_2" data-name="Слой 2"><g id="Слой_1-2" data-name="Слой 1"><g id="Слой_2-2" data-name="Слой 2"><g id="Слой_1-2-2" data-name="Слой 1-2"><path class="cls-1" d="M15.57.88C14.73,2,14.7,2.22,15.4,4.61l.54,1.89L14.36,8,12.78,9.46l-1.18-.7a5.75,5.75,0,0,0-1.49-.68,3.78,3.78,0,0,1-1.25-.67C7.52,6.4,5.4,6.23,4.49,7a2,2,0,0,0-.74,1.24c0,1.65.43,2.16,2.82,3.34A16.62,16.62,0,0,0,9.4,12.8c.34,0,.41.3.27,1.08a34,34,0,0,1-.94,4.31,18.7,18.7,0,0,1-3.54.23c-4.54.1-6,1-4.81,3.17.44.77,2.25,1.75,2.73,1.45a11.78,11.78,0,0,1,3-.24c2.08,0,2.83.13,3.33.61a1.88,1.88,0,0,1,.67,1.07c0,.24.14.44.31.44s.4.41.5.91c.2.74,0,1-1,2A5.82,5.82,0,0,1,8.33,29a3.59,3.59,0,0,0-1.55,1.69,6.09,6.09,0,0,0,.37,1.24c.3,1,.47,1,1.68,1a2.65,2.65,0,0,0,1.65-.51.48.48,0,0,1,.64-.23c.2.13.37.1.37-.07,0-.37,2.33-1.48,2.7-1.25.67.41,2.72,4.65,3.06,6.3a38.49,38.49,0,0,1,.44,5.36L17.76,46l1.48,1.82c.81,1,1.51,1.88,1.58,2,.24.34,2.73.2,3.54-.2a5.93,5.93,0,0,1,1.51-.54,10.41,10.41,0,0,0,1.55-.51,4.89,4.89,0,0,1,1.45-.4,3.56,3.56,0,0,0,1.51-1c.78-.77,1-1.24.85-1.81s0-.95.67-1.42c.81-.6.84-.81.94-4A12.59,12.59,0,0,1,34,34c1.65-3.87,1.38-3.73,4.17-2.25,1.35.71,2.5,1.14,2.56,1s.48-.23.91-.13c.64.1.91-.07,1.22-.71.6-1.34-.14-2.76-1.92-3.63-2.36-1.15-2.56-1.42-2-3.1.27-.78.58-1.65.71-1.92a3.63,3.63,0,0,0,.24-1c0-.41.6-.54,2.49-.61a6.39,6.39,0,0,0,2.42-.37c0-.13.31-.37.68-.47.53-.14.67-.47.67-1.48,0-1.69-.88-2.23-3.67-2.23h-2l-.41-1.21a25.16,25.16,0,0,0-1-2.46c-.64-1.21-.64-1.24,0-1.92a2.36,2.36,0,0,1,1.22-.7c1.17,0,3.77-2.29,4.1-3.67.31-1.15-1.24-2.5-2.52-2.19s-3.44,1.51-3.44,1.92c0,.16-.3.23-.67.13s-.67-.07-.67,0a2.7,2.7,0,0,1-1,.81c-1,.58-1,.58-3.17-.84L30.76,5.56l.1-2.16c.06-1.72-.07-2.29-.54-2.76A2.26,2.26,0,0,0,29.38,0c-.57,0-2.39.88-2.19,1.08s0,.47-.17.84a10.17,10.17,0,0,0-.54,1.52c-.16.94-.2.94-3,.94-3,0-3.3-.17-3.67-1.72C19.51,1.48,18,0,17,0A2.31,2.31,0,0,0,15.57.88Zm13.91,2a16.26,16.26,0,0,1-.27,2.6L28.94,6.7l1.79.84a16.34,16.34,0,0,1,3,1.82l1.18,1,1.68-1.08c1-.57,2.43-1.41,3.34-1.85s1.58-.91,1.58-1.08c0-.44.91-.3,1.35.24.3.37.3.57-.07.91A11.19,11.19,0,0,1,39,9.77a1,1,0,0,0-.81.43,4.25,4.25,0,0,1-1.14.88c-.88.44-.88.47-.37,1.52a14.61,14.61,0,0,0,1.14,2,4.15,4.15,0,0,1,.61,2.05,2.37,2.37,0,0,0,.44,1.52,6.91,6.91,0,0,0,2.69.27c2.53-.1,3.77.4,3,1.21a5.69,5.69,0,0,1-2.76.47c-1.32,0-2.56.07-2.8.1s-.47.51-.5,1.28A3.13,3.13,0,0,1,38.1,23a1.44,1.44,0,0,0-.33.87,4.73,4.73,0,0,1-.85,1.75c-1,1.42-.87,1.52,2.26,3.27,2.09,1.18,2.8,1.85,2.46,2.36-.2.33-1.21-.07-4.65-1.86a3.93,3.93,0,0,0-1.92-.64,5.82,5.82,0,0,0-1.41,2.6.22.22,0,0,1-.13.26h-.07c-.17,0-.58.64-.91,1.41s-.74,1.79-.91,2.16a9,9,0,0,0-.37,2.46c0,1.61-.44,2.52-1.11,2.32a2.08,2.08,0,0,0-1,.3,16.19,16.19,0,0,1-2.53.81,10.93,10.93,0,0,0-2.29.74,2.43,2.43,0,0,1-1,.41,5.26,5.26,0,0,0-1.45.43c-1.14.47-2.25.17-2.52-.67s.3-1.28,1.31-1.28c.84,0,.71-.57-.23-.81s-1.22-.81-1.42-2.73c-.3-2.39-3.94-8.89-5-8.89a4.43,4.43,0,0,0-2.18,2c0,.24-.11.34-.21.24s-.5.1-.84.44c-.91.91-2.46.74-2.59-.31-.07-.47.07-.74.4-.74a4,4,0,0,0,1.62-1,15.57,15.57,0,0,1,2.19-1.52l1.07-.54-.88-1.61c-.84-1.52-1.28-2.36-1.78-3.44-.2-.4-1.05-.5-4.38-.5-3.6,0-4.18-.07-4.51-.61C1.35,19.84,2,19.67,6,19.7a21,21,0,0,0,4.18-.2c.3-.14.47-.64.44-1.28a10.35,10.35,0,0,1,1.24-4.61c.64-.78.2-1.15-2.52-2.36S5.43,9.3,5.43,8.59s1.41-.88,2-.37a3.69,3.69,0,0,0,1.31.7,9.88,9.88,0,0,1,1.86.88c2.12,1.28,2.56,1.38,3.33.64,1.92-1.75,3.13-2.69,3.54-2.69s.5-.51-.07-1a.79.79,0,0,1-.34-.81A4.55,4.55,0,0,0,16.75,4c-.54-1.51-.41-2.36.33-2.36s1.38,1.25,1.65,2.77c.37,1.92.84,2.39,2,2a12,12,0,0,1,5.42-.37c1.41.34,1.28.47,1.92-2.62.3-1.66.54-2.09.94-2S29.52,1.89,29.48,2.86Zm1.21,38.4c.91,1.11-.2,2-2.86,2.35a10.51,10.51,0,0,0-1.18.44,17.29,17.29,0,0,1-2.83.91,9.69,9.69,0,0,0-2.39.84c-.33.27-.67.14-1.38-.44l-.94-.84,1.48-.71a8.84,8.84,0,0,1,1.92-.7,3.1,3.1,0,0,0,1-.34,44.11,44.11,0,0,1,6.34-2A1.22,1.22,0,0,1,30.69,41.26Zm-1.51,3.9c.23.71-.37,1.75-.84,1.48a2.51,2.51,0,0,0-1.42.31c-.6.27-1.92.7-2.93,1-2,.6-2.83.3-2.66-1,.07-.57.57-.84,2.46-1.31a9.92,9.92,0,0,0,2.46-.88,2.76,2.76,0,0,1,1.41-.3C28.71,44.45,29,44.59,29.18,45.16Z"/><path class="cls-1" d="M26.82,9c.57.33,1.72.94,2.56,1.34a17.77,17.77,0,0,1,3.5,2.6c2,1.85,2.77,2.22,1.65.77A18,18,0,0,0,28.27,9C26,8.28,25.58,8.28,26.82,9Z"/><path class="cls-1" d="M22.44,22.56c-.23.71-1.44,1-3.23.81-1.45-.17-1.95.31-1.21,1.15s2.25,3.67,2.05,3.84a3.08,3.08,0,0,0,.34,1.34A10.15,10.15,0,0,1,21,32.47c.17,1.81.61,2.49,1.18,1.78s-.74-6.84-1.62-8a3.5,3.5,0,0,1-.67-1.28c0-.47.77-.44,1.31.07a1.34,1.34,0,0,0,.74.47l.47.13a4.38,4.38,0,0,0,2.6-.13c.13-.2.43-.13.77.13.51.44.64.41,1.15-.2a2.78,2.78,0,0,1,1.11-.87c.67-.27,1.88.54,1.34.87a.59.59,0,0,0-.2.68.59.59,0,0,1-.17.7,1.34,1.34,0,0,0-.37,1.05,3.4,3.4,0,0,1-.3,1.41c-.44.88-.71,5.09-.34,5.29.17.13.41-.07.51-.4A6.77,6.77,0,0,1,29,33a4.67,4.67,0,0,0,.27-1.89,11.37,11.37,0,0,1,1.11-4.47,11.25,11.25,0,0,0,.68-1.45c.2-.51.53-.91.7-.91s.17-.24-.1-.54a1.3,1.3,0,0,0-1.24-.37,1.7,1.7,0,0,1-1.59-.57c-.6-.61-1.11-.71-3.47-.74S22.61,22.09,22.44,22.56Z"/></g></g></g></g></svg>