<svg xmlns="http://www.w3.org/2000/svg" viewBox="0 0 34.5 50"><defs><style>.cls-1{fill:#44aadf;}</style></defs><title>intellect 4</title><g id="Слой_2" data-name="Слой 2"><g id="Слой_1-2" data-name="Слой 1"><g id="Слой_2-2" data-name="Слой 2"><g id="Слой_1-2-2" data-name="Слой 1-2"><path class="cls-1" d="M15.61.09s-.7.1-1.47.21a10.74,10.74,0,0,0-3,.87c-.88.39-2,.81-2.42,1a20.71,20.71,0,0,0-3.89,3.3C2.36,7.87,1.66,8.82,1,10.54A16.77,16.77,0,0,0,.4,19.87,23.78,23.78,0,0,0,3.83,26.7a2.89,2.89,0,0,1,.67,1A8,8,0,0,0,5.66,29.4a21.42,21.42,0,0,1,1.57,2.28C8.57,34.07,9.41,38.45,9.41,43c0,2.32.14,3.16.56,3.51a6.69,6.69,0,0,1,1.19,1.75,4,4,0,0,0,1.3,1.54,5.67,5.67,0,0,0,3.44-.17,26.53,26.53,0,0,1,3.26-1.09c3.71-1,4.66-1.72,4.56-3.33-.07-1,.14-1.37,1.08-2.17,1.2-1,1.2-1,1.27-4.28s.7-6.31,1.29-6.31c.18,0,.21-.18.11-.36s.21-1,.77-1.68a8,8,0,0,0,1-1.47,12.87,12.87,0,0,1,1.33-2,33.63,33.63,0,0,0,3.55-8,1.64,1.64,0,0,1,.28-.7c.31-.52,0-4.66-.42-5.43a1.79,1.79,0,0,1-.28-1c.45-2.07-4.11-7.54-7.86-9.43C23.05,1,20.63.16,20.21.4a.68.68,0,0,1-.7-.1A12.53,12.53,0,0,0,15.61.09Zm5.86,2.28a3.72,3.72,0,0,0,1.3.45,4.45,4.45,0,0,1,1.61.81,4.74,4.74,0,0,0,1.37.77c.63,0,5.08,5,5.75,6.56a15.82,15.82,0,0,1,.7,8.41c-.24.74-.87,2.32-1.44,3.55a18.31,18.31,0,0,0-1,2.38c0,.11-.35.63-.8,1.12A16.21,16.21,0,0,0,26.1,30.6c-.14.45-.42.8-.63.8s-.28.21-.18.49A1.5,1.5,0,0,1,25,33.05a9.62,9.62,0,0,0-.73,3,7.09,7.09,0,0,1-.74,2.8,4.4,4.4,0,0,1-2.14.81,6.36,6.36,0,0,0-2.31.74c-.67.52-.67.52,0,.52A6.57,6.57,0,0,0,21,40.42c1.37-.6,2.7-.39,3,.49s0,1.36-.91,1.36a4.4,4.4,0,0,0-1.66.51,11.1,11.1,0,0,1-2.52.7,11.06,11.06,0,0,0-2.6.74,2.1,2.1,0,0,1-1.19.39,2,2,0,0,0-1.16.31c-1.26.67-2.49.49-2.63-.38-.1-.56.28-.81,2-1.34a5.13,5.13,0,0,0,2.31-1.12c.11-.28.64-.49,1.2-.49s1-.17,1-.35c0-.49-.31-.46-2.66.35-2.53.84-3.61.88-3.89.14s.59-2.31,1.19-2.1a1.81,1.81,0,0,0,1.23-.18c.77-.31.73-.31-.11-.14-1.44.28-2.24-.74-2.91-3.51-.77-3.26-1.65-5-4.21-8.59-1.75-2.42-3.4-5.29-3.33-5.71a15.21,15.21,0,0,0-.63-1.83c-.74-2-.81-6-.11-7.5C3.89,8.91,4.52,8,6.21,6.31A12.93,12.93,0,0,1,11.5,3a1.51,1.51,0,0,0,.7-.36C12.91,1.67,19.89,1.52,21.47,2.37ZM21.72,44c.17,0,.31.35.31.8,0,.6-.35,1-1.22,1.41a6.26,6.26,0,0,1-1.93.59,1.11,1.11,0,0,0-.88.35,1.19,1.19,0,0,1-.91.35,4.83,4.83,0,0,0-1.69.53c-.91.46-1.05.42-1.75-.21-1.26-1.19-.88-1.68,1.89-2.42a11.1,11.1,0,0,0,2.56-1c.43-.28.92-.42,1.06-.31s.49,0,.77-.18a1.25,1.25,0,0,1,1-.14A2.8,2.8,0,0,0,21.72,44Z"/><path class="cls-1" d="M18.53,4.61a10.4,10.4,0,0,0,2.38,1.26,21,21,0,0,1,6.31,4.56C28,11.48,28.77,12.15,29,12s-.07-.5-.39-.85a2,2,0,0,1-.6-1c0-.84-2.45-2.95-4.73-4.07S18.53,4.21,18.53,4.61Z"/><path class="cls-1" d="M15.26,19.41a1.2,1.2,0,0,0-.77.81c-.17.52-.52.66-1.68.63-3.47-.11-3.79.28-2.17,2.63a4.93,4.93,0,0,1,.87,1.79.85.85,0,0,0,.39.7.58.58,0,0,1,.17.7,2.71,2.71,0,0,0,.39,1.61,7.88,7.88,0,0,1,.59,2.91c0,1.55.15,1.79.74,1.79,1.23,0,.88-3.93-.7-7.71-1.4-3.37-1.4-3.34-.88-3.34.21,0,.53.39.74.85.39.77.53.8,3.58.73,4-.14,3.75-.1,3.75-.63,0-.77,1.51-1.3,2-.7.39.42.39.63,0,1.26s-1.12,2.91-.88,3.16c.07.07-.07.35-.31.63a9.44,9.44,0,0,0-.67,3.19c-.21,2.63-.21,2.7.53,2.49.38-.1.73-.35.77-.59s.07-1.09.14-2a17.86,17.86,0,0,1,2-6.91c1.05-2.21,1.09-3.15.07-2.77-.77.32-2.21-.14-2.21-.7,0-.28-.1-.49-.24-.53s-.81-.07-1.44-.1-1.23,0-1.33.18a.44.44,0,0,1-.6.07A5.22,5.22,0,0,0,15.26,19.41Z"/></g></g></g></g></svg>